<?xml version="1.0" encoding="UTF-8" standalone="no"?><svg xmlns="http://www.w3.org/2000/svg" xmlns:xlink="http://www.w3.org/1999/xlink" contentScriptType="application/ecmascript" contentStyleType="text/css" height="571px" preserveAspectRatio="none" style="width:614px;height:571px;" version="1.1" viewBox="0 0 614 571" width="614px" zoomAndPan="magnify"><defs><filter height="300%" id="fdnaxuirp6wfh" width="300%" x="-1" y="-1"><feGaussianBlur result="blurOut" stdDeviation="2.0"/><feColorMatrix in="blurOut" result="blurOut2" type="matrix" values="0 0 0 0 0 0 0 0 0 0 0 0 0 0 0 0 0 0 .4 0"/><feOffset dx="4.0" dy="4.0" in="blurOut2" result="blurOut3"/><feBlend in="SourceGraphic" in2="blurOut3" mode="normal"/></filter></defs><g><line style="stroke: #A80036; stroke-width: 1.0; stroke-dasharray: 5.0,5.0;" x1="26" x2="26" y1="86.4883" y2="484.2148"/><line style="stroke: #A80036; stroke-width: 1.0; stroke-dasharray: 5.0,5.0;" x1="187.5" x2="187.5" y1="86.4883" y2="484.2148"/><line style="stroke: #A80036; stroke-width: 1.0; stroke-dasharray: 5.0,5.0;" x1="404" x2="404" y1="86.4883" y2="484.2148"/><line style="stroke: #A80036; stroke-width: 1.0; stroke-dasharray: 5.0,5.0;" x1="564" x2="564" y1="86.4883" y2="484.2148"/><text fill="#000000" font-family="sans-serif" font-size="14" lengthAdjust="spacingAndGlyphs" textLength="31" x="8" y="83.5352">User</text><ellipse cx="26.5" cy="13" fill="#FEFECE" filter="url(#fdnaxuirp6wfh)" rx="8" ry="8" style="stroke: #A80036; stroke-width: 2.0;"/><path d="M26.5,21 L26.5,48 M13.5,29 L39.5,29 M26.5,48 L13.5,63 M26.5,48 L39.5,63 " fill="none" filter="url(#fdnaxuirp6wfh)" style="stroke: #A80036; stroke-width: 2.0;"/><text fill="#000000" font-family="sans-serif" font-size="14" lengthAdjust="spacingAndGlyphs" textLength="31" x="8" y="496.75">User</text><ellipse cx="26.5" cy="509.7031" fill="#FEFECE" filter="url(#fdnaxuirp6wfh)" rx="8" ry="8" style="stroke: #A80036; stroke-width: 2.0;"/><path d="M26.5,517.7031 L26.5,544.7031 M13.5,525.7031 L39.5,525.7031 M26.5,544.7031 L13.5,559.7031 M26.5,544.7031 L39.5,559.7031 " fill="none" filter="url(#fdnaxuirp6wfh)" style="stroke: #A80036; stroke-width: 2.0;"/><text fill="#000000" font-family="sans-serif" font-size="14" lengthAdjust="spacingAndGlyphs" textLength="92" x="138.5" y="83.5352">MotimActivity</text><path d="M169.5,34 C169.5,24 187.5,24 187.5,24 C187.5,24 205.5,24 205.5,34 L205.5,60 C205.5,70 187.5,70 187.5,70 C187.5,70 169.5,70 169.5,60 L169.5,34 " fill="#FEFECE" filter="url(#fdnaxuirp6wfh)" style="stroke: #000000; stroke-width: 1.5;"/><path d="M169.5,34 C169.5,44 187.5,44 187.5,44 C187.5,44 205.5,44 205.5,34 " fill="none" style="stroke: #000000; stroke-width: 1.5;"/><text fill="#000000" font-family="sans-serif" font-size="14" lengthAdjust="spacingAndGlyphs" textLength="92" x="138.5" y="496.75">MotimActivity</text><path d="M169.5,509.7031 C169.5,499.7031 187.5,499.7031 187.5,499.7031 C187.5,499.7031 205.5,499.7031 205.5,509.7031 L205.5,535.7031 C205.5,545.7031 187.5,545.7031 187.5,545.7031 C187.5,545.7031 169.5,545.7031 169.5,535.7031 L169.5,509.7031 " fill="#FEFECE" filter="url(#fdnaxuirp6wfh)" style="stroke: #000000; stroke-width: 1.5;"/><path d="M169.5,509.7031 C169.5,519.7031 187.5,519.7031 187.5,519.7031 C187.5,519.7031 205.5,519.7031 205.5,509.7031 " fill="none" style="stroke: #000000; stroke-width: 1.5;"/><text fill="#000000" font-family="sans-serif" font-size="14" lengthAdjust="spacingAndGlyphs" textLength="85" x="359" y="83.5352">MotimPoints</text><path d="M386.5,34 C386.5,24 404.5,24 404.5,24 C404.5,24 422.5,24 422.5,34 L422.5,60 C422.5,70 404.5,70 404.5,70 C404.5,70 386.5,70 386.5,60 L386.5,34 " fill="#FEFECE" filter="url(#fdnaxuirp6wfh)" style="stroke: #000000; stroke-width: 1.5;"/><path d="M386.5,34 C386.5,44 404.5,44 404.5,44 C404.5,44 422.5,44 422.5,34 " fill="none" style="stroke: #000000; stroke-width: 1.5;"/><text fill="#000000" font-family="sans-serif" font-size="14" lengthAdjust="spacingAndGlyphs" textLength="85" x="359" y="496.75">MotimPoints</text><path d="M386.5,509.7031 C386.5,499.7031 404.5,499.7031 404.5,499.7031 C404.5,499.7031 422.5,499.7031 422.5,509.7031 L422.5,535.7031 C422.5,545.7031 404.5,545.7031 404.5,545.7031 C404.5,545.7031 386.5,545.7031 386.5,535.7031 L386.5,509.7031 " fill="#FEFECE" filter="url(#fdnaxuirp6wfh)" style="stroke: #000000; stroke-width: 1.5;"/><path d="M386.5,509.7031 C386.5,519.7031 404.5,519.7031 404.5,519.7031 C404.5,519.7031 422.5,519.7031 422.5,509.7031 " fill="none" style="stroke: #000000; stroke-width: 1.5;"/><text fill="#000000" font-family="sans-serif" font-size="14" lengthAdjust="spacingAndGlyphs" textLength="81" x="521" y="83.5352">MotimUsers</text><path d="M546.5,34 C546.5,24 564.5,24 564.5,24 C564.5,24 582.5,24 582.5,34 L582.5,60 C582.5,70 564.5,70 564.5,70 C564.5,70 546.5,70 546.5,60 L546.5,34 " fill="#FEFECE" filter="url(#fdnaxuirp6wfh)" style="stroke: #000000; stroke-width: 1.5;"/><path d="M546.5,34 C546.5,44 564.5,44 564.5,44 C564.5,44 582.5,44 582.5,34 " fill="none" style="stroke: #000000; stroke-width: 1.5;"/><text fill="#000000" font-family="sans-serif" font-size="14" lengthAdjust="spacingAndGlyphs" textLength="81" x="521" y="496.75">MotimUsers</text><path d="M546.5,509.7031 C546.5,499.7031 564.5,499.7031 564.5,499.7031 C564.5,499.7031 582.5,499.7031 582.5,509.7031 L582.5,535.7031 C582.5,545.7031 564.5,545.7031 564.5,545.7031 C564.5,545.7031 546.5,545.7031 546.5,535.7031 L546.5,509.7031 " fill="#FEFECE" filter="url(#fdnaxuirp6wfh)" style="stroke: #000000; stroke-width: 1.5;"/><path d="M546.5,509.7031 C546.5,519.7031 564.5,519.7031 564.5,519.7031 C564.5,519.7031 582.5,519.7031 582.5,509.7031 " fill="none" style="stroke: #000000; stroke-width: 1.5;"/><polygon fill="#A80036" points="175.5,113.7988,185.5,117.7988,175.5,121.7988,179.5,117.7988" style="stroke: #A80036; stroke-width: 1.0;"/><line style="stroke: #A80036; stroke-width: 1.0;" x1="26.5" x2="181.5" y1="117.7988" y2="117.7988"/><text fill="#000000" font-family="sans-serif" font-size="13" lengthAdjust="spacingAndGlyphs" textLength="137" x="33.5" y="113.0566">Send raw activity data</text><polygon fill="#A80036" points="552.5,143.1094,562.5,147.1094,552.5,151.1094,556.5,147.1094" style="stroke: #A80036; stroke-width: 1.0;"/><line style="stroke: #A80036; stroke-width: 1.0;" x1="187.5" x2="558.5" y1="147.1094" y2="147.1094"/><text fill="#000000" font-family="sans-serif" font-size="13" lengthAdjust="spacingAndGlyphs" textLength="92" x="194.5" y="142.3672">Authorize user</text><polygon fill="#A80036" points="198.5,172.4199,188.5,176.4199,198.5,180.4199,194.5,176.4199" style="stroke: #A80036; stroke-width: 1.0;"/><line style="stroke: #A80036; stroke-width: 1.0;" x1="192.5" x2="563.5" y1="176.4199" y2="176.4199"/><text fill="#000000" font-family="sans-serif" font-size="13" lengthAdjust="spacingAndGlyphs" textLength="97" x="204.5" y="171.6777">200 Authorized</text><line style="stroke: #A80036; stroke-width: 1.0;" x1="187.5" x2="229.5" y1="205.7305" y2="205.7305"/><line style="stroke: #A80036; stroke-width: 1.0;" x1="229.5" x2="229.5" y1="205.7305" y2="218.7305"/><line style="stroke: #A80036; stroke-width: 1.0;" x1="188.5" x2="229.5" y1="218.7305" y2="218.7305"/><polygon fill="#A80036" points="198.5,214.7305,188.5,218.7305,198.5,222.7305,194.5,218.7305" style="stroke: #A80036; stroke-width: 1.0;"/><text fill="#000000" font-family="sans-serif" font-size="13" lengthAdjust="spacingAndGlyphs" textLength="85" x="194.5" y="200.9883">Save raw data</text><polygon fill="#A80036" points="37.5,244.041,27.5,248.041,37.5,252.041,33.5,248.041" style="stroke: #A80036; stroke-width: 1.0;"/><line style="stroke: #A80036; stroke-width: 1.0;" x1="31.5" x2="186.5" y1="248.041" y2="248.041"/><text fill="#000000" font-family="sans-serif" font-size="13" lengthAdjust="spacingAndGlyphs" textLength="76" x="43.5" y="243.2988">201 Created</text><polygon fill="#A80036" points="392.5,273.3516,402.5,277.3516,392.5,281.3516,396.5,277.3516" style="stroke: #A80036; stroke-width: 1.0;"/><line style="stroke: #A80036; stroke-width: 1.0;" x1="187.5" x2="398.5" y1="277.3516" y2="277.3516"/><text fill="#000000" font-family="sans-serif" font-size="13" lengthAdjust="spacingAndGlyphs" textLength="193" x="194.5" y="272.6094">Ping that user has new pointsa</text><polygon fill="#A80036" points="552.5,302.6621,562.5,306.6621,552.5,310.6621,556.5,306.6621" style="stroke: #A80036; stroke-width: 1.0;"/><line style="stroke: #A80036; stroke-width: 1.0;" x1="404.5" x2="558.5" y1="306.6621" y2="306.6621"/><text fill="#000000" font-family="sans-serif" font-size="13" lengthAdjust="spacingAndGlyphs" textLength="92" x="411.5" y="301.9199">Authorize user</text><polygon fill="#A80036" points="415.5,331.9727,405.5,335.9727,415.5,339.9727,411.5,335.9727" style="stroke: #A80036; stroke-width: 1.0;"/><line style="stroke: #A80036; stroke-width: 1.0;" x1="409.5" x2="563.5" y1="335.9727" y2="335.9727"/><text fill="#000000" font-family="sans-serif" font-size="13" lengthAdjust="spacingAndGlyphs" textLength="97" x="421.5" y="331.2305">200 Authorized</text><polygon fill="#A80036" points="198.5,361.2832,188.5,365.2832,198.5,369.2832,194.5,365.2832" style="stroke: #A80036; stroke-width: 1.0;"/><line style="stroke: #A80036; stroke-width: 1.0;" x1="192.5" x2="403.5" y1="365.2832" y2="365.2832"/><text fill="#000000" font-family="sans-serif" font-size="13" lengthAdjust="spacingAndGlyphs" textLength="123" x="204.5" y="360.541">Ask for actvity data</text><polygon fill="#A80036" points="392.5,390.5938,402.5,394.5938,392.5,398.5938,396.5,394.5938" style="stroke: #A80036; stroke-width: 1.0;"/><line style="stroke: #A80036; stroke-width: 1.0;" x1="187.5" x2="398.5" y1="394.5938" y2="394.5938"/><text fill="#000000" font-family="sans-serif" font-size="13" lengthAdjust="spacingAndGlyphs" textLength="150" x="194.5" y="389.8516">200 Return activity data</text><line style="stroke: #A80036; stroke-width: 1.0;" x1="404.5" x2="446.5" y1="423.9043" y2="423.9043"/><line style="stroke: #A80036; stroke-width: 1.0;" x1="446.5" x2="446.5" y1="423.9043" y2="436.9043"/><line style="stroke: #A80036; stroke-width: 1.0;" x1="405.5" x2="446.5" y1="436.9043" y2="436.9043"/><polygon fill="#A80036" points="415.5,432.9043,405.5,436.9043,415.5,440.9043,411.5,436.9043" style="stroke: #A80036; stroke-width: 1.0;"/><text fill="#000000" font-family="sans-serif" font-size="13" lengthAdjust="spacingAndGlyphs" textLength="146" x="411.5" y="419.1621">Recalculate user points</text><polygon fill="#A80036" points="37.5,462.2148,27.5,466.2148,37.5,470.2148,33.5,466.2148" style="stroke: #A80036; stroke-width: 1.0;"/><line style="stroke: #A80036; stroke-width: 1.0;" x1="31.5" x2="403.5" y1="466.2148" y2="466.2148"/><text fill="#000000" font-family="sans-serif" font-size="13" lengthAdjust="spacingAndGlyphs" textLength="131" x="43.5" y="461.4727">200 Send new points</text><!--
@startuml MF Activity Sequence

actor User
database MotimActivity
database MotimPoints
database MotimUsers

User -> MotimActivity : Send raw activity data
MotimActivity -> MotimUsers : Authorize user
MotimUsers -> MotimActivity : 200 Authorized
MotimActivity -> MotimActivity : Save raw data
User <- MotimActivity : 201 Created
MotimActivity -> MotimPoints : Ping that user has new pointsa
MotimPoints -> MotimUsers : Authorize user
MotimUsers -> MotimPoints : 200 Authorized
MotimPoints -> MotimActivity: Ask for actvity data
MotimActivity -> MotimPoints: 200 Return activity data
MotimPoints -> MotimPoints: Recalculate user points
MotimPoints -> User: 200 Send new points

@enduml

PlantUML version 1.2019.09(Mon Aug 26 18:19:51 CEST 2019)
(GPL source distribution)
Java Runtime: Java(TM) SE Runtime Environment
JVM: Java HotSpot(TM) 64-Bit Server VM
Java Version: 1.8.0_172-b11
Operating System: Mac OS X
OS Version: 10.15.2
Default Encoding: UTF-8
Language: en
Country: NO
--></g></svg>