<?xml version="1.0" encoding="UTF-8" standalone="no"?><svg xmlns="http://www.w3.org/2000/svg" xmlns:xlink="http://www.w3.org/1999/xlink" contentScriptType="application/ecmascript" contentStyleType="text/css" height="317px" preserveAspectRatio="none" style="width:277px;height:317px;" version="1.1" viewBox="0 0 277 317" width="277px" zoomAndPan="magnify"><defs><filter height="300%" id="fk0td4p7kemvf" width="300%" x="-1" y="-1"><feGaussianBlur result="blurOut" stdDeviation="2.0"/><feColorMatrix in="blurOut" result="blurOut2" type="matrix" values="0 0 0 0 0 0 0 0 0 0 0 0 0 0 0 0 0 0 .4 0"/><feOffset dx="4.0" dy="4.0" in="blurOut2" result="blurOut3"/><feBlend in="SourceGraphic" in2="blurOut3" mode="normal"/></filter></defs><g><!--class e01--><rect fill="#FEFECE" filter="url(#fk0td4p7kemvf)" height="164.5957" id="e01" style="stroke: #A80036; stroke-width: 1.5;" width="145" x="6" y="8"/><ellipse cx="49.35" cy="24" fill="#ADD1B2" rx="11" ry="11" style="stroke: #A80036; stroke-width: 1.0;"/><path d="M52.9643,30.5 L45.2445,30.5 L45.2445,18.1069 L52.9643,18.1069 L52.9643,20.2651 L47.6933,20.2651 L47.6933,22.938 L52.4662,22.938 L52.4662,25.0962 L47.6933,25.0962 L47.6933,28.3418 L52.9643,28.3418 Z "/><text fill="#000000" font-family="sans-serif" font-size="12" lengthAdjust="spacingAndGlyphs" textLength="50" x="69.65" y="28.5352">Activities</text><line style="stroke: #A80036; stroke-width: 1.5;" x1="7" x2="150" y1="40" y2="40"/><ellipse cx="17" cy="51" fill="#000000" rx="3" ry="3" style="stroke: #000000; stroke-width: 1.0;"/><text fill="#000000" font-family="sans-serif" font-size="11" lengthAdjust="spacingAndGlyphs" textLength="112" x="26" y="54.6348">id : uuid «generated»</text><line style="stroke: #A80036; stroke-width: 1.0;" x1="7" x2="150" y1="60.9551" y2="60.9551"/><ellipse cx="17" cy="71.9551" fill="#000000" rx="3" ry="3" style="stroke: #000000; stroke-width: 1.0;"/><text fill="#000000" font-family="sans-serif" font-size="11" lengthAdjust="spacingAndGlyphs" textLength="73" x="26" y="75.5898">user_id : uuid</text><ellipse cx="17" cy="84.9102" fill="#000000" rx="3" ry="3" style="stroke: #000000; stroke-width: 1.0;"/><text fill="#000000" font-family="sans-serif" font-size="11" lengthAdjust="spacingAndGlyphs" textLength="79" x="26" y="88.5449">value : number</text><ellipse cx="17" cy="97.8652" fill="#000000" rx="3" ry="3" style="stroke: #000000; stroke-width: 1.0;"/><text fill="#000000" font-family="sans-serif" font-size="11" lengthAdjust="spacingAndGlyphs" textLength="88" x="26" y="101.5">created_at : data</text><ellipse cx="17" cy="110.8203" fill="#000000" rx="3" ry="3" style="stroke: #000000; stroke-width: 1.0;"/><text fill="#000000" font-family="sans-serif" font-size="11" lengthAdjust="spacingAndGlyphs" textLength="88" x="26" y="114.4551">created_at : data</text><ellipse cx="17" cy="123.7754" fill="#000000" rx="3" ry="3" style="stroke: #000000; stroke-width: 1.0;"/><text fill="#000000" font-family="sans-serif" font-size="11" lengthAdjust="spacingAndGlyphs" textLength="119" x="26" y="127.4102">registered_from : date</text><ellipse cx="17" cy="136.7305" fill="#000000" rx="3" ry="3" style="stroke: #000000; stroke-width: 1.0;"/><text fill="#000000" font-family="sans-serif" font-size="11" lengthAdjust="spacingAndGlyphs" textLength="104" x="26" y="140.3652">registered_to : date</text><ellipse cx="17" cy="149.6855" fill="#000000" rx="3" ry="3" style="stroke: #000000; stroke-width: 1.0;"/><text fill="#000000" font-family="sans-serif" font-size="11" lengthAdjust="spacingAndGlyphs" textLength="119" x="26" y="153.3203">source : text «Source»</text><ellipse cx="17" cy="162.6406" fill="#000000" rx="3" ry="3" style="stroke: #000000; stroke-width: 1.0;"/><text fill="#000000" font-family="sans-serif" font-size="11" lengthAdjust="spacingAndGlyphs" textLength="94" x="26" y="166.2754">type : text «Type»</text><!--class Source--><rect fill="#FEFECE" filter="url(#fk0td4p7kemvf)" height="86.8652" id="Source" style="stroke: #A80036; stroke-width: 1.5;" width="80" x="186.5" y="47"/><ellipse cx="206" cy="63" fill="#EB937F" rx="11" ry="11" style="stroke: #A80036; stroke-width: 1.0;"/><path d="M209.6143,69.5 L201.8945,69.5 L201.8945,57.1069 L209.6143,57.1069 L209.6143,59.2651 L204.3433,59.2651 L204.3433,61.938 L209.1162,61.938 L209.1162,64.0962 L204.3433,64.0962 L204.3433,67.3418 L209.6143,67.3418 Z "/><text fill="#000000" font-family="sans-serif" font-size="12" lengthAdjust="spacingAndGlyphs" textLength="38" x="221" y="67.5352">Source</text><line style="stroke: #A80036; stroke-width: 1.5;" x1="187.5" x2="265.5" y1="79" y2="79"/><text fill="#000000" font-family="sans-serif" font-size="11" lengthAdjust="spacingAndGlyphs" textLength="68" x="192.5" y="93.6348">GOOGLE_FIT</text><text fill="#000000" font-family="sans-serif" font-size="11" lengthAdjust="spacingAndGlyphs" textLength="66" x="192.5" y="106.5898">HEALTH_KIT</text><text fill="#000000" font-family="sans-serif" font-size="11" lengthAdjust="spacingAndGlyphs" textLength="43" x="192.5" y="119.5449">GARMIN</text><line style="stroke: #A80036; stroke-width: 1.5;" x1="187.5" x2="265.5" y1="125.8652" y2="125.8652"/><!--class Type--><rect fill="#FEFECE" filter="url(#fk0td4p7kemvf)" height="73.9102" id="Type" style="stroke: #A80036; stroke-width: 1.5;" width="66" x="45.5" y="233"/><ellipse cx="62.75" cy="249" fill="#EB937F" rx="11" ry="11" style="stroke: #A80036; stroke-width: 1.0;"/><path d="M66.3643,255.5 L58.6445,255.5 L58.6445,243.1069 L66.3643,243.1069 L66.3643,245.2651 L61.0933,245.2651 L61.0933,247.938 L65.8662,247.938 L65.8662,250.0962 L61.0933,250.0962 L61.0933,253.3418 L66.3643,253.3418 Z "/><text fill="#000000" font-family="sans-serif" font-size="12" lengthAdjust="spacingAndGlyphs" textLength="29" x="77.25" y="253.5352">Type</text><line style="stroke: #A80036; stroke-width: 1.5;" x1="46.5" x2="110.5" y1="265" y2="265"/><text fill="#000000" font-family="sans-serif" font-size="11" lengthAdjust="spacingAndGlyphs" textLength="31" x="51.5" y="279.6348">STEPS</text><text fill="#000000" font-family="sans-serif" font-size="11" lengthAdjust="spacingAndGlyphs" textLength="54" x="51.5" y="292.5898">DISTANCE</text><line style="stroke: #A80036; stroke-width: 1.5;" x1="46.5" x2="110.5" y1="298.9102" y2="298.9102"/><!--link e01 to Source--><!--link e01 to Type--><!--
@startuml MF Activity Entities

entity "Activities" as e01 {
  * id : uuid <<generated>>
  - -
  * user_id : uuid
  * value : number
  * created_at : data
  * created_at : data 
  * registered_from : date
  * registered_to : date
  * source : text <<Source>>
  * type : text <<Type>>
}

enum Source {
  GOOGLE_FIT
  HEALTH_KIT
  GARMIN
}

enum Type {
  STEPS
  DISTANCE
}

@enduml

PlantUML version 1.2019.09(Mon Aug 26 18:19:51 CEST 2019)
(GPL source distribution)
Java Runtime: Java(TM) SE Runtime Environment
JVM: Java HotSpot(TM) 64-Bit Server VM
Java Version: 1.8.0_172-b11
Operating System: Mac OS X
OS Version: 10.15.2
Default Encoding: UTF-8
Language: en
Country: NO
--></g></svg>