<?xml version="1.0" encoding="UTF-8" standalone="no"?><svg xmlns="http://www.w3.org/2000/svg" xmlns:xlink="http://www.w3.org/1999/xlink" contentScriptType="application/ecmascript" contentStyleType="text/css" height="278px" preserveAspectRatio="none" style="width:341px;height:278px;" version="1.1" viewBox="0 0 341 278" width="341px" zoomAndPan="magnify"><defs><filter height="300%" id="f17ywiozhuz786" width="300%" x="-1" y="-1"><feGaussianBlur result="blurOut" stdDeviation="2.0"/><feColorMatrix in="blurOut" result="blurOut2" type="matrix" values="0 0 0 0 0 0 0 0 0 0 0 0 0 0 0 0 0 0 .4 0"/><feOffset dx="4.0" dy="4.0" in="blurOut2" result="blurOut3"/><feBlend in="SourceGraphic" in2="blurOut3" mode="normal"/></filter></defs><g><!--MD5=[111002b242a260edbcaabc3e471064d0]
cluster checkout--><rect fill="#FFFFFF" filter="url(#f17ywiozhuz786)" height="243" style="stroke: #000000; stroke-width: 1.5;" width="130" x="119" y="24"/><text fill="#000000" font-family="sans-serif" font-size="14" font-weight="bold" lengthAdjust="spacingAndGlyphs" textLength="73" x="147.5" y="38.9951">checkout</text><ellipse cx="183.9619" cy="155.0236" fill="#FEFECE" filter="url(#f17ywiozhuz786)" rx="48.9619" ry="14.5236" style="stroke: #A80036; stroke-width: 1.5;"/><text fill="#000000" font-family="sans-serif" font-size="14" lengthAdjust="spacingAndGlyphs" textLength="65" x="151.4619" y="159.6721">checkout</text><ellipse cx="183.9264" cy="74.0236" fill="#FEFECE" filter="url(#f17ywiozhuz786)" rx="45.4264" ry="14.5236" style="stroke: #A80036; stroke-width: 1.5;"/><text fill="#000000" font-family="sans-serif" font-size="14" lengthAdjust="spacingAndGlyphs" textLength="60" x="153.9264" y="78.6721">payment</text><ellipse cx="184.2132" cy="236.0236" fill="#FEFECE" filter="url(#f17ywiozhuz786)" rx="24.2132" ry="14.5236" style="stroke: #A80036; stroke-width: 1.5;"/><text fill="#000000" font-family="sans-serif" font-size="14" lengthAdjust="spacingAndGlyphs" textLength="30" x="169.2132" y="240.6721">help</text><!--MD5=[92848cbaf65985a669855153c5362c37]
entity customer--><ellipse cx="39" cy="124" fill="#FEFECE" filter="url(#f17ywiozhuz786)" rx="8" ry="8" style="stroke: #A80036; stroke-width: 1.5;"/><path d="M39,132 L39,159 M26,140 L52,140 M39,159 L26,174 M39,159 L52,174 " fill="none" filter="url(#f17ywiozhuz786)" style="stroke: #A80036; stroke-width: 1.5;"/><text fill="#000000" font-family="sans-serif" font-size="14" lengthAdjust="spacingAndGlyphs" textLength="66" x="6" y="192.4951">customer</text><!--MD5=[ebeabf449828f4e0b33bbb47961e644b]
entity clerk--><ellipse cx="312.5" cy="124" fill="#FEFECE" filter="url(#f17ywiozhuz786)" rx="8" ry="8" style="stroke: #A80036; stroke-width: 1.5;"/><path d="M312.5,132 L312.5,159 M299.5,140 L325.5,140 M312.5,159 L299.5,174 M312.5,159 L325.5,174 " fill="none" filter="url(#f17ywiozhuz786)" style="stroke: #A80036; stroke-width: 1.5;"/><text fill="#000000" font-family="sans-serif" font-size="14" lengthAdjust="spacingAndGlyphs" textLength="33" x="296" y="192.4951">clerk</text><!--MD5=[852381a7bb976b86080137fb6d718ea9]
link customer to checkout--><path d="M72.092,155 C90.6198,155 114.282,155 134.988,155 " fill="none" id="customer-checkout" style="stroke: #A80036; stroke-width: 1.0;"/><!--MD5=[3ad5c6d5c608bfd6b87dc9c07c40a15f]
link checkout to payment--><path d="M184,140.143 C184,127.127 184,108.107 184,93.8 " fill="none" id="checkout-&gt;payment" style="stroke: #A80036; stroke-width: 1.0; stroke-dasharray: 7.0,7.0;"/><polygon fill="#A80036" points="184,88.762,180,97.762,184,93.762,188,97.762,184,88.762" style="stroke: #A80036; stroke-width: 1.0;"/><text fill="#000000" font-family="sans-serif" font-size="13" lengthAdjust="spacingAndGlyphs" textLength="45" x="150" y="119.0669">include</text><!--MD5=[739e7928149c8fe27c2b5850560351c7]
link help to checkout--><path d="M184,221.1434 C184,208.1269 184,189.1069 184,174.8 " fill="none" id="help-&gt;checkout" style="stroke: #A80036; stroke-width: 1.0; stroke-dasharray: 7.0,7.0;"/><polygon fill="#A80036" points="184,169.762,180,178.762,184,174.762,188,178.762,184,169.762" style="stroke: #A80036; stroke-width: 1.0;"/><text fill="#000000" font-family="sans-serif" font-size="13" lengthAdjust="spacingAndGlyphs" textLength="51" x="147" y="200.0669">extends</text><!--MD5=[b4c4ee8f2d94c159d2b9e04bd372cbe0]
link checkout to clerk--><path d="M233.185,155 C255.388,155 280.222,155 295.853,155 " fill="none" id="checkout-clerk" style="stroke: #A80036; stroke-width: 1.0;"/><!--MD5=[56ec219b0c07229348295678c218a9b5]
@startuml
left to right direction
skinparam packageStyle rectangle
actor customer
actor clerk
rectangle checkout {
  customer - - (checkout)
  (checkout) .> (payment) : include
  (help) .> (checkout) : extends
  (checkout) - - clerk
}
@enduml

PlantUML version 1.2019.13(Tue Dec 10 17:18:29 UTC 2019)
(GPL source distribution)
Java Runtime: Java(TM) SE Runtime Environment
JVM: Java HotSpot(TM) 64-Bit Server VM
Java Version: 1.7.0_25-b15
Operating System: Linux
Default Encoding: UTF-8
Language: en
Country: US
--></g></svg>