<?xml version="1.0" encoding="UTF-8" standalone="no"?><svg xmlns="http://www.w3.org/2000/svg" xmlns:xlink="http://www.w3.org/1999/xlink" contentScriptType="application/ecmascript" contentStyleType="text/css" height="525px" preserveAspectRatio="none" style="width:526px;height:525px;" version="1.1" viewBox="0 0 526 525" width="526px" zoomAndPan="magnify"><defs><filter height="300%" id="fvl9s09326gwo" width="300%" x="-1" y="-1"><feGaussianBlur result="blurOut" stdDeviation="2.0"/><feColorMatrix in="blurOut" result="blurOut2" type="matrix" values="0 0 0 0 0 0 0 0 0 0 0 0 0 0 0 0 0 0 .4 0"/><feOffset dx="4.0" dy="4.0" in="blurOut2" result="blurOut3"/><feBlend in="SourceGraphic" in2="blurOut3" mode="normal"/></filter></defs><g><!--MD5=[b8cfd8c4119a3b0a7a46bfc5fc780f85]
class Error--><rect fill="#FEFECE" filter="url(#fvl9s09326gwo)" height="73.6094" id="Error" style="stroke: #A80036; stroke-width: 1.5;" width="107" x="37" y="20.5"/><ellipse cx="71.8" cy="36.5" fill="#ADD1B2" rx="11" ry="11" style="stroke: #A80036; stroke-width: 1.0;"/><path d="M74.1438,32.1719 L74.3156,32.25 C74.5344,31.9375 74.7375,31.8438 75.0344,31.8438 C75.3313,31.8438 75.6125,31.9844 75.7688,32.25 C75.8625,32.4063 75.8781,32.5313 75.8781,32.9688 L75.8781,34.3906 C75.8781,34.8125 75.8469,35 75.7375,35.1563 C75.5656,35.375 75.3,35.5156 75.0344,35.5156 C74.8156,35.5156 74.5813,35.4063 74.4406,35.2656 C74.3,35.1406 74.2688,35.0156 74.2063,34.6094 C74.1125,34.2031 73.9406,33.9844 73.4563,33.7031 C72.9875,33.4531 72.3781,33.2969 71.8,33.2969 C70.0656,33.2969 68.8156,34.6094 68.8156,36.3906 L68.8156,37.4844 C68.8156,39.1875 70.1125,40.2813 72.1594,40.2813 C72.925,40.2813 73.6125,40.1563 74.0344,39.8906 C74.2219,39.7969 74.2219,39.7969 74.675,39.3125 C74.8625,39.125 75.0656,39.0469 75.2844,39.0469 C75.7531,39.0469 76.1438,39.4375 76.1438,39.8906 C76.1438,40.2813 75.8156,40.7344 75.2375,41.1406 C74.4875,41.6875 73.3313,41.9844 72.1125,41.9844 C69.2219,41.9844 67.1125,40.0938 67.1125,37.5156 L67.1125,36.3906 C67.1125,33.6719 69.1125,31.5938 71.7375,31.5938 C72.6125,31.5938 73.2063,31.7344 74.1438,32.1719 Z "/><text fill="#000000" font-family="sans-serif" font-size="12" lengthAdjust="spacingAndGlyphs" textLength="31" x="90.2" y="40.6543">Error</text><line style="stroke: #A80036; stroke-width: 1.5;" x1="38" x2="143" y1="52.5" y2="52.5"/><text fill="#000000" font-family="sans-serif" font-size="11" lengthAdjust="spacingAndGlyphs" textLength="49" x="43" y="66.7104">code: Int</text><text fill="#000000" font-family="sans-serif" font-size="11" lengthAdjust="spacingAndGlyphs" textLength="95" x="43" y="79.5151">message: String</text><line style="stroke: #A80036; stroke-width: 1.5;" x1="38" x2="143" y1="86.1094" y2="86.1094"/><!--MD5=[3492c9cfc0f6cd990abee700d172ce18]
class ServiceCategory--><rect fill="#FEFECE" filter="url(#fvl9s09326gwo)" height="73.6094" id="ServiceCategory" style="stroke: #A80036; stroke-width: 1.5;" width="133" x="179" y="20.5"/><ellipse cx="194" cy="36.5" fill="#ADD1B2" rx="11" ry="11" style="stroke: #A80036; stroke-width: 1.0;"/><path d="M196.3438,32.1719 L196.5156,32.25 C196.7344,31.9375 196.9375,31.8438 197.2344,31.8438 C197.5313,31.8438 197.8125,31.9844 197.9688,32.25 C198.0625,32.4063 198.0781,32.5313 198.0781,32.9688 L198.0781,34.3906 C198.0781,34.8125 198.0469,35 197.9375,35.1563 C197.7656,35.375 197.5,35.5156 197.2344,35.5156 C197.0156,35.5156 196.7813,35.4063 196.6406,35.2656 C196.5,35.1406 196.4688,35.0156 196.4063,34.6094 C196.3125,34.2031 196.1406,33.9844 195.6563,33.7031 C195.1875,33.4531 194.5781,33.2969 194,33.2969 C192.2656,33.2969 191.0156,34.6094 191.0156,36.3906 L191.0156,37.4844 C191.0156,39.1875 192.3125,40.2813 194.3594,40.2813 C195.125,40.2813 195.8125,40.1563 196.2344,39.8906 C196.4219,39.7969 196.4219,39.7969 196.875,39.3125 C197.0625,39.125 197.2656,39.0469 197.4844,39.0469 C197.9531,39.0469 198.3438,39.4375 198.3438,39.8906 C198.3438,40.2813 198.0156,40.7344 197.4375,41.1406 C196.6875,41.6875 195.5313,41.9844 194.3125,41.9844 C191.4219,41.9844 189.3125,40.0938 189.3125,37.5156 L189.3125,36.3906 C189.3125,33.6719 191.3125,31.5938 193.9375,31.5938 C194.8125,31.5938 195.4063,31.7344 196.3438,32.1719 Z "/><text fill="#000000" font-family="sans-serif" font-size="12" lengthAdjust="spacingAndGlyphs" textLength="101" x="208" y="40.6543">ServiceCategory</text><line style="stroke: #A80036; stroke-width: 1.5;" x1="180" x2="311" y1="52.5" y2="52.5"/><text fill="#000000" font-family="sans-serif" font-size="11" lengthAdjust="spacingAndGlyphs" textLength="43" x="185" y="66.7104">id: Uuid</text><text fill="#000000" font-family="sans-serif" font-size="11" lengthAdjust="spacingAndGlyphs" textLength="74" x="185" y="79.5151">name: String</text><line style="stroke: #A80036; stroke-width: 1.5;" x1="180" x2="311" y1="86.1094" y2="86.1094"/><!--MD5=[428d22d350d9880e10e0ddd45e620f15]
class ServiceProvider--><rect fill="#FEFECE" filter="url(#fvl9s09326gwo)" height="99.2188" id="ServiceProvider" style="stroke: #A80036; stroke-width: 1.5;" width="128" x="347.5" y="8"/><ellipse cx="362.5" cy="24" fill="#ADD1B2" rx="11" ry="11" style="stroke: #A80036; stroke-width: 1.0;"/><path d="M364.8438,19.6719 L365.0156,19.75 C365.2344,19.4375 365.4375,19.3438 365.7344,19.3438 C366.0313,19.3438 366.3125,19.4844 366.4688,19.75 C366.5625,19.9063 366.5781,20.0313 366.5781,20.4688 L366.5781,21.8906 C366.5781,22.3125 366.5469,22.5 366.4375,22.6563 C366.2656,22.875 366,23.0156 365.7344,23.0156 C365.5156,23.0156 365.2813,22.9063 365.1406,22.7656 C365,22.6406 364.9688,22.5156 364.9063,22.1094 C364.8125,21.7031 364.6406,21.4844 364.1563,21.2031 C363.6875,20.9531 363.0781,20.7969 362.5,20.7969 C360.7656,20.7969 359.5156,22.1094 359.5156,23.8906 L359.5156,24.9844 C359.5156,26.6875 360.8125,27.7813 362.8594,27.7813 C363.625,27.7813 364.3125,27.6563 364.7344,27.3906 C364.9219,27.2969 364.9219,27.2969 365.375,26.8125 C365.5625,26.625 365.7656,26.5469 365.9844,26.5469 C366.4531,26.5469 366.8438,26.9375 366.8438,27.3906 C366.8438,27.7813 366.5156,28.2344 365.9375,28.6406 C365.1875,29.1875 364.0313,29.4844 362.8125,29.4844 C359.9219,29.4844 357.8125,27.5938 357.8125,25.0156 L357.8125,23.8906 C357.8125,21.1719 359.8125,19.0938 362.4375,19.0938 C363.3125,19.0938 363.9063,19.2344 364.8438,19.6719 Z "/><text fill="#000000" font-family="sans-serif" font-size="12" lengthAdjust="spacingAndGlyphs" textLength="96" x="376.5" y="28.1543">ServiceProvider</text><line style="stroke: #A80036; stroke-width: 1.5;" x1="348.5" x2="474.5" y1="40" y2="40"/><text fill="#000000" font-family="sans-serif" font-size="11" lengthAdjust="spacingAndGlyphs" textLength="43" x="353.5" y="54.2104">id: Uuid</text><text fill="#000000" font-family="sans-serif" font-size="11" lengthAdjust="spacingAndGlyphs" textLength="74" x="353.5" y="67.0151">name: String</text><text fill="#000000" font-family="sans-serif" font-size="11" lengthAdjust="spacingAndGlyphs" textLength="70" x="353.5" y="79.8198">owner: User</text><text fill="#000000" font-family="sans-serif" font-size="11" lengthAdjust="spacingAndGlyphs" textLength="99" x="353.5" y="92.6245">location: Location</text><line style="stroke: #A80036; stroke-width: 1.5;" x1="348.5" x2="474.5" y1="99.2188" y2="99.2188"/><!--MD5=[dbb8b4f13c7b21394f9d757e58732f45]
class Service--><rect fill="#FEFECE" filter="url(#fvl9s09326gwo)" height="163.2422" id="Service" style="stroke: #A80036; stroke-width: 1.5;" width="162" x="9.5" y="167"/><ellipse cx="63.75" cy="183" fill="#ADD1B2" rx="11" ry="11" style="stroke: #A80036; stroke-width: 1.0;"/><path d="M66.0938,178.6719 L66.2656,178.75 C66.4844,178.4375 66.6875,178.3438 66.9844,178.3438 C67.2813,178.3438 67.5625,178.4844 67.7188,178.75 C67.8125,178.9063 67.8281,179.0313 67.8281,179.4688 L67.8281,180.8906 C67.8281,181.3125 67.7969,181.5 67.6875,181.6563 C67.5156,181.875 67.25,182.0156 66.9844,182.0156 C66.7656,182.0156 66.5313,181.9063 66.3906,181.7656 C66.25,181.6406 66.2188,181.5156 66.1563,181.1094 C66.0625,180.7031 65.8906,180.4844 65.4063,180.2031 C64.9375,179.9531 64.3281,179.7969 63.75,179.7969 C62.0156,179.7969 60.7656,181.1094 60.7656,182.8906 L60.7656,183.9844 C60.7656,185.6875 62.0625,186.7813 64.1094,186.7813 C64.875,186.7813 65.5625,186.6563 65.9844,186.3906 C66.1719,186.2969 66.1719,186.2969 66.625,185.8125 C66.8125,185.625 67.0156,185.5469 67.2344,185.5469 C67.7031,185.5469 68.0938,185.9375 68.0938,186.3906 C68.0938,186.7813 67.7656,187.2344 67.1875,187.6406 C66.4375,188.1875 65.2813,188.4844 64.0625,188.4844 C61.1719,188.4844 59.0625,186.5938 59.0625,184.0156 L59.0625,182.8906 C59.0625,180.1719 61.0625,178.0938 63.6875,178.0938 C64.5625,178.0938 65.1563,178.2344 66.0938,178.6719 Z "/><text fill="#000000" font-family="sans-serif" font-size="12" lengthAdjust="spacingAndGlyphs" textLength="45" x="84.25" y="187.1543">Service</text><line style="stroke: #A80036; stroke-width: 1.5;" x1="10.5" x2="170.5" y1="199" y2="199"/><text fill="#000000" font-family="sans-serif" font-size="11" lengthAdjust="spacingAndGlyphs" textLength="43" x="15.5" y="213.2104">id: Uuid</text><text fill="#000000" font-family="sans-serif" font-size="11" lengthAdjust="spacingAndGlyphs" textLength="74" x="15.5" y="226.0151">name: String</text><text fill="#000000" font-family="sans-serif" font-size="11" lengthAdjust="spacingAndGlyphs" textLength="105" x="15.5" y="238.8198">description: String</text><text fill="#000000" font-family="sans-serif" font-size="11" lengthAdjust="spacingAndGlyphs" textLength="150" x="15.5" y="251.6245">category: ServiceCategory</text><text fill="#000000" font-family="sans-serif" font-size="11" lengthAdjust="spacingAndGlyphs" textLength="144" x="15.5" y="264.4292">provider: ServiceProvider</text><text fill="#000000" font-family="sans-serif" font-size="11" lengthAdjust="spacingAndGlyphs" textLength="63" x="15.5" y="277.2339">picture: Url</text><text fill="#000000" font-family="sans-serif" font-size="11" lengthAdjust="spacingAndGlyphs" textLength="99" x="15.5" y="290.0386">location: Location</text><text fill="#000000" font-family="sans-serif" font-size="11" lengthAdjust="spacingAndGlyphs" textLength="116" x="15.5" y="302.8433">createdAt: DateTime</text><text fill="#000000" font-family="sans-serif" font-size="11" lengthAdjust="spacingAndGlyphs" textLength="119" x="15.5" y="315.6479">updatedAt: DateTime</text><line style="stroke: #A80036; stroke-width: 1.5;" x1="10.5" x2="170.5" y1="322.2422" y2="322.2422"/><!--MD5=[c25ea81cbf43478f44638108820ac108]
class ServiceSlot--><rect fill="#FEFECE" filter="url(#fvl9s09326gwo)" height="124.8281" id="ServiceSlot" style="stroke: #A80036; stroke-width: 1.5;" width="131" x="207" y="186"/><ellipse cx="235.5" cy="202" fill="#ADD1B2" rx="11" ry="11" style="stroke: #A80036; stroke-width: 1.0;"/><path d="M237.8438,197.6719 L238.0156,197.75 C238.2344,197.4375 238.4375,197.3438 238.7344,197.3438 C239.0313,197.3438 239.3125,197.4844 239.4688,197.75 C239.5625,197.9063 239.5781,198.0313 239.5781,198.4688 L239.5781,199.8906 C239.5781,200.3125 239.5469,200.5 239.4375,200.6563 C239.2656,200.875 239,201.0156 238.7344,201.0156 C238.5156,201.0156 238.2813,200.9063 238.1406,200.7656 C238,200.6406 237.9688,200.5156 237.9063,200.1094 C237.8125,199.7031 237.6406,199.4844 237.1563,199.2031 C236.6875,198.9531 236.0781,198.7969 235.5,198.7969 C233.7656,198.7969 232.5156,200.1094 232.5156,201.8906 L232.5156,202.9844 C232.5156,204.6875 233.8125,205.7813 235.8594,205.7813 C236.625,205.7813 237.3125,205.6563 237.7344,205.3906 C237.9219,205.2969 237.9219,205.2969 238.375,204.8125 C238.5625,204.625 238.7656,204.5469 238.9844,204.5469 C239.4531,204.5469 239.8438,204.9375 239.8438,205.3906 C239.8438,205.7813 239.5156,206.2344 238.9375,206.6406 C238.1875,207.1875 237.0313,207.4844 235.8125,207.4844 C232.9219,207.4844 230.8125,205.5938 230.8125,203.0156 L230.8125,201.8906 C230.8125,199.1719 232.8125,197.0938 235.4375,197.0938 C236.3125,197.0938 236.9063,197.2344 237.8438,197.6719 Z "/><text fill="#000000" font-family="sans-serif" font-size="12" lengthAdjust="spacingAndGlyphs" textLength="69" x="252.5" y="206.1543">ServiceSlot</text><line style="stroke: #A80036; stroke-width: 1.5;" x1="208" x2="337" y1="218" y2="218"/><text fill="#000000" font-family="sans-serif" font-size="11" lengthAdjust="spacingAndGlyphs" textLength="43" x="213" y="232.2104">id: Uuid</text><text fill="#000000" font-family="sans-serif" font-size="11" lengthAdjust="spacingAndGlyphs" textLength="69" x="213" y="245.0151">duration: Int</text><text fill="#000000" font-family="sans-serif" font-size="11" lengthAdjust="spacingAndGlyphs" textLength="91" x="213" y="257.8198">service: Service</text><text fill="#000000" font-family="sans-serif" font-size="11" lengthAdjust="spacingAndGlyphs" textLength="117" x="213" y="270.6245">startingAt: DateTime</text><text fill="#000000" font-family="sans-serif" font-size="11" lengthAdjust="spacingAndGlyphs" textLength="116" x="213" y="283.4292">createdAt: DateTime</text><text fill="#000000" font-family="sans-serif" font-size="11" lengthAdjust="spacingAndGlyphs" textLength="119" x="213" y="296.2339">updatedAt: DateTime</text><line style="stroke: #A80036; stroke-width: 1.5;" x1="208" x2="337" y1="302.8281" y2="302.8281"/><!--MD5=[a28d90c503c104e63a4115c8fbeebdbd]
class ServiceBooking--><rect fill="#FEFECE" filter="url(#fvl9s09326gwo)" height="124.8281" id="ServiceBooking" style="stroke: #A80036; stroke-width: 1.5;" width="142" x="373.5" y="186"/><ellipse cx="395.25" cy="202" fill="#ADD1B2" rx="11" ry="11" style="stroke: #A80036; stroke-width: 1.0;"/><path d="M397.5938,197.6719 L397.7656,197.75 C397.9844,197.4375 398.1875,197.3438 398.4844,197.3438 C398.7813,197.3438 399.0625,197.4844 399.2188,197.75 C399.3125,197.9063 399.3281,198.0313 399.3281,198.4688 L399.3281,199.8906 C399.3281,200.3125 399.2969,200.5 399.1875,200.6563 C399.0156,200.875 398.75,201.0156 398.4844,201.0156 C398.2656,201.0156 398.0313,200.9063 397.8906,200.7656 C397.75,200.6406 397.7188,200.5156 397.6563,200.1094 C397.5625,199.7031 397.3906,199.4844 396.9063,199.2031 C396.4375,198.9531 395.8281,198.7969 395.25,198.7969 C393.5156,198.7969 392.2656,200.1094 392.2656,201.8906 L392.2656,202.9844 C392.2656,204.6875 393.5625,205.7813 395.6094,205.7813 C396.375,205.7813 397.0625,205.6563 397.4844,205.3906 C397.6719,205.2969 397.6719,205.2969 398.125,204.8125 C398.3125,204.625 398.5156,204.5469 398.7344,204.5469 C399.2031,204.5469 399.5938,204.9375 399.5938,205.3906 C399.5938,205.7813 399.2656,206.2344 398.6875,206.6406 C397.9375,207.1875 396.7813,207.4844 395.5625,207.4844 C392.6719,207.4844 390.5625,205.5938 390.5625,203.0156 L390.5625,201.8906 C390.5625,199.1719 392.5625,197.0938 395.1875,197.0938 C396.0625,197.0938 396.6563,197.2344 397.5938,197.6719 Z "/><text fill="#000000" font-family="sans-serif" font-size="12" lengthAdjust="spacingAndGlyphs" textLength="95" x="410.75" y="206.1543">ServiceBooking</text><line style="stroke: #A80036; stroke-width: 1.5;" x1="374.5" x2="514.5" y1="218" y2="218"/><text fill="#000000" font-family="sans-serif" font-size="11" lengthAdjust="spacingAndGlyphs" textLength="43" x="379.5" y="232.2104">id: Uuid</text><text fill="#000000" font-family="sans-serif" font-size="11" lengthAdjust="spacingAndGlyphs" textLength="89" x="379.5" y="245.0151">customer: User</text><text fill="#000000" font-family="sans-serif" font-size="11" lengthAdjust="spacingAndGlyphs" textLength="93" x="379.5" y="257.8198">slot: ServiceSlot</text><text fill="#000000" font-family="sans-serif" font-size="11" lengthAdjust="spacingAndGlyphs" textLength="116" x="379.5" y="270.6245">createdAt: DateTime</text><text fill="#000000" font-family="sans-serif" font-size="11" lengthAdjust="spacingAndGlyphs" textLength="119" x="379.5" y="283.4292">updatedAt: DateTime</text><text fill="#000000" font-family="sans-serif" font-size="11" lengthAdjust="spacingAndGlyphs" textLength="130" x="379.5" y="296.2339">confirmedAt: DateTime</text><line style="stroke: #A80036; stroke-width: 1.5;" x1="374.5" x2="514.5" y1="302.8281" y2="302.8281"/><!--MD5=[5cb228ae24c49dcd6aea6b9c51a538dd]
class ServiceBookingReview--><rect fill="#FEFECE" filter="url(#fvl9s09326gwo)" height="124.8281" id="ServiceBookingReview" style="stroke: #A80036; stroke-width: 1.5;" width="169" x="6" y="390"/><ellipse cx="21" cy="406" fill="#ADD1B2" rx="11" ry="11" style="stroke: #A80036; stroke-width: 1.0;"/><path d="M23.3438,401.6719 L23.5156,401.75 C23.7344,401.4375 23.9375,401.3438 24.2344,401.3438 C24.5313,401.3438 24.8125,401.4844 24.9688,401.75 C25.0625,401.9063 25.0781,402.0313 25.0781,402.4688 L25.0781,403.8906 C25.0781,404.3125 25.0469,404.5 24.9375,404.6563 C24.7656,404.875 24.5,405.0156 24.2344,405.0156 C24.0156,405.0156 23.7813,404.9063 23.6406,404.7656 C23.5,404.6406 23.4688,404.5156 23.4063,404.1094 C23.3125,403.7031 23.1406,403.4844 22.6563,403.2031 C22.1875,402.9531 21.5781,402.7969 21,402.7969 C19.2656,402.7969 18.0156,404.1094 18.0156,405.8906 L18.0156,406.9844 C18.0156,408.6875 19.3125,409.7813 21.3594,409.7813 C22.125,409.7813 22.8125,409.6563 23.2344,409.3906 C23.4219,409.2969 23.4219,409.2969 23.875,408.8125 C24.0625,408.625 24.2656,408.5469 24.4844,408.5469 C24.9531,408.5469 25.3438,408.9375 25.3438,409.3906 C25.3438,409.7813 25.0156,410.2344 24.4375,410.6406 C23.6875,411.1875 22.5313,411.4844 21.3125,411.4844 C18.4219,411.4844 16.3125,409.5938 16.3125,407.0156 L16.3125,405.8906 C16.3125,403.1719 18.3125,401.0938 20.9375,401.0938 C21.8125,401.0938 22.4063,401.2344 23.3438,401.6719 Z "/><text fill="#000000" font-family="sans-serif" font-size="12" lengthAdjust="spacingAndGlyphs" textLength="137" x="35" y="410.1543">ServiceBookingReview</text><line style="stroke: #A80036; stroke-width: 1.5;" x1="7" x2="174" y1="422" y2="422"/><text fill="#000000" font-family="sans-serif" font-size="11" lengthAdjust="spacingAndGlyphs" textLength="43" x="12" y="436.2104">id: Uuid</text><text fill="#000000" font-family="sans-serif" font-size="11" lengthAdjust="spacingAndGlyphs" textLength="139" x="12" y="449.0151">booking: ServiceBooking</text><text fill="#000000" font-family="sans-serif" font-size="11" lengthAdjust="spacingAndGlyphs" textLength="63" x="12" y="461.8198">text: String</text><text fill="#000000" font-family="sans-serif" font-size="11" lengthAdjust="spacingAndGlyphs" textLength="63" x="12" y="474.6245">rate: Rates</text><text fill="#000000" font-family="sans-serif" font-size="11" lengthAdjust="spacingAndGlyphs" textLength="116" x="12" y="487.4292">createdAt: DateTime</text><text fill="#000000" font-family="sans-serif" font-size="11" lengthAdjust="spacingAndGlyphs" textLength="119" x="12" y="500.2339">updatedAt: DateTime</text><line style="stroke: #A80036; stroke-width: 1.5;" x1="7" x2="174" y1="506.8281" y2="506.8281"/><!--MD5=[1083d51992ad94a18e54f7c859020ca5]
link Error to ServiceCategory--><!--MD5=[d8bdb7577f5c2c74b49707d6e701716a]
link ServiceCategory to ServiceProvider--><!--MD5=[7f0ac748ecbd03a589bd0d20c867a3b6]
link Error to Service--><!--MD5=[23664e164a16073970781cef9301d7cf]
link Service to ServiceSlot--><!--MD5=[88ba0a68aed02c8bef21da590dba0d02]
link ServiceSlot to ServiceBooking--><!--MD5=[cd6e72a6657ef997312d1db1519e2560]
link Service to ServiceBookingReview--><!--MD5=[f04389270dcc5a18f0d597e7110e9ae1]
@startuml
class Error {
  code: Int
  message: String
}

class ServiceCategory {
  id: Uuid
  name: String
}

class ServiceProvider {
  id: Uuid
  name: String 
  owner: User
  location: Location
}

class Service {
  id: Uuid
  name: String
  description: String
  category: ServiceCategory
  provider: ServiceProvider
  picture: Url
  location: Location
  createdAt: DateTime
  updatedAt: DateTime
}

class ServiceSlot {
  id: Uuid
  duration: Int
  service: Service
  startingAt: DateTime
  createdAt: DateTime
  updatedAt: DateTime
}

class ServiceBooking {
  id: Uuid
  customer: User
  slot: ServiceSlot
  createdAt: DateTime
  updatedAt: DateTime
  confirmedAt: DateTime
}

class ServiceBookingReview {
  id: Uuid
  booking: ServiceBooking
  text: String
  rate: Rates
  createdAt: DateTime
  updatedAt: DateTime
}
@enduml

PlantUML version 1.2019.13(Tue Dec 10 17:18:29 UTC 2019)
(GPL source distribution)
Java Runtime: Java(TM) SE Runtime Environment
JVM: Java HotSpot(TM) 64-Bit Server VM
Java Version: 1.7.0_25-b15
Operating System: Linux
Default Encoding: UTF-8
Language: en
Country: US
--></g></svg>