<?xml version="1.0" encoding="UTF-8" standalone="no"?><svg xmlns="http://www.w3.org/2000/svg" xmlns:xlink="http://www.w3.org/1999/xlink" contentScriptType="application/ecmascript" contentStyleType="text/css" height="303px" preserveAspectRatio="none" style="width:369px;height:303px;" version="1.1" viewBox="0 0 369 303" width="369px" zoomAndPan="magnify"><defs><filter height="300%" id="f1y0gcyicb8uyv" width="300%" x="-1" y="-1"><feGaussianBlur result="blurOut" stdDeviation="2.0"/><feColorMatrix in="blurOut" result="blurOut2" type="matrix" values="0 0 0 0 0 0 0 0 0 0 0 0 0 0 0 0 0 0 .4 0"/><feOffset dx="4.0" dy="4.0" in="blurOut2" result="blurOut3"/><feBlend in="SourceGraphic" in2="blurOut3" mode="normal"/></filter></defs><g><!--MD5=[8d82b504b58c2fac8ac5760159ea733e]
class ChatRoom--><rect fill="#FEFECE" filter="url(#f1y0gcyicb8uyv)" height="86.4141" id="ChatRoom" style="stroke: #A80036; stroke-width: 1.5;" width="131" x="28" y="21"/><ellipse cx="58.75" cy="37" fill="#ADD1B2" rx="11" ry="11" style="stroke: #A80036; stroke-width: 1.0;"/><path d="M61.0938,32.6719 L61.2656,32.75 C61.4844,32.4375 61.6875,32.3438 61.9844,32.3438 C62.2813,32.3438 62.5625,32.4844 62.7188,32.75 C62.8125,32.9063 62.8281,33.0313 62.8281,33.4688 L62.8281,34.8906 C62.8281,35.3125 62.7969,35.5 62.6875,35.6563 C62.5156,35.875 62.25,36.0156 61.9844,36.0156 C61.7656,36.0156 61.5313,35.9063 61.3906,35.7656 C61.25,35.6406 61.2188,35.5156 61.1563,35.1094 C61.0625,34.7031 60.8906,34.4844 60.4063,34.2031 C59.9375,33.9531 59.3281,33.7969 58.75,33.7969 C57.0156,33.7969 55.7656,35.1094 55.7656,36.8906 L55.7656,37.9844 C55.7656,39.6875 57.0625,40.7813 59.1094,40.7813 C59.875,40.7813 60.5625,40.6563 60.9844,40.3906 C61.1719,40.2969 61.1719,40.2969 61.625,39.8125 C61.8125,39.625 62.0156,39.5469 62.2344,39.5469 C62.7031,39.5469 63.0938,39.9375 63.0938,40.3906 C63.0938,40.7813 62.7656,41.2344 62.1875,41.6406 C61.4375,42.1875 60.2813,42.4844 59.0625,42.4844 C56.1719,42.4844 54.0625,40.5938 54.0625,38.0156 L54.0625,36.8906 C54.0625,34.1719 56.0625,32.0938 58.6875,32.0938 C59.5625,32.0938 60.1563,32.2344 61.0938,32.6719 Z "/><text fill="#000000" font-family="sans-serif" font-size="12" lengthAdjust="spacingAndGlyphs" textLength="64" x="76.25" y="41.1543">ChatRoom</text><line style="stroke: #A80036; stroke-width: 1.5;" x1="29" x2="158" y1="53" y2="53"/><text fill="#000000" font-family="sans-serif" font-size="11" lengthAdjust="spacingAndGlyphs" textLength="43" x="34" y="67.2104">id: Uuid</text><text fill="#000000" font-family="sans-serif" font-size="11" lengthAdjust="spacingAndGlyphs" textLength="116" x="34" y="80.0151">createdAt: DateTime</text><text fill="#000000" font-family="sans-serif" font-size="11" lengthAdjust="spacingAndGlyphs" textLength="119" x="34" y="92.8198">updatedAt: DateTime</text><line style="stroke: #A80036; stroke-width: 1.5;" x1="29" x2="158" y1="99.4141" y2="99.4141"/><!--MD5=[9dc6b2a68c0261fc8fcab01023765c51]
class ChatRoomParticipant--><rect fill="#FEFECE" filter="url(#f1y0gcyicb8uyv)" height="112.0234" id="ChatRoomParticipant" style="stroke: #A80036; stroke-width: 1.5;" width="164" x="194.5" y="8"/><ellipse cx="209.5" cy="24" fill="#ADD1B2" rx="11" ry="11" style="stroke: #A80036; stroke-width: 1.0;"/><path d="M211.8438,19.6719 L212.0156,19.75 C212.2344,19.4375 212.4375,19.3438 212.7344,19.3438 C213.0313,19.3438 213.3125,19.4844 213.4688,19.75 C213.5625,19.9063 213.5781,20.0313 213.5781,20.4688 L213.5781,21.8906 C213.5781,22.3125 213.5469,22.5 213.4375,22.6563 C213.2656,22.875 213,23.0156 212.7344,23.0156 C212.5156,23.0156 212.2813,22.9063 212.1406,22.7656 C212,22.6406 211.9688,22.5156 211.9063,22.1094 C211.8125,21.7031 211.6406,21.4844 211.1563,21.2031 C210.6875,20.9531 210.0781,20.7969 209.5,20.7969 C207.7656,20.7969 206.5156,22.1094 206.5156,23.8906 L206.5156,24.9844 C206.5156,26.6875 207.8125,27.7813 209.8594,27.7813 C210.625,27.7813 211.3125,27.6563 211.7344,27.3906 C211.9219,27.2969 211.9219,27.2969 212.375,26.8125 C212.5625,26.625 212.7656,26.5469 212.9844,26.5469 C213.4531,26.5469 213.8438,26.9375 213.8438,27.3906 C213.8438,27.7813 213.5156,28.2344 212.9375,28.6406 C212.1875,29.1875 211.0313,29.4844 209.8125,29.4844 C206.9219,29.4844 204.8125,27.5938 204.8125,25.0156 L204.8125,23.8906 C204.8125,21.1719 206.8125,19.0938 209.4375,19.0938 C210.3125,19.0938 210.9063,19.2344 211.8438,19.6719 Z "/><text fill="#000000" font-family="sans-serif" font-size="12" lengthAdjust="spacingAndGlyphs" textLength="132" x="223.5" y="28.1543">ChatRoomParticipant</text><line style="stroke: #A80036; stroke-width: 1.5;" x1="195.5" x2="357.5" y1="40" y2="40"/><text fill="#000000" font-family="sans-serif" font-size="11" lengthAdjust="spacingAndGlyphs" textLength="43" x="200.5" y="54.2104">id: Uuid</text><text fill="#000000" font-family="sans-serif" font-size="11" lengthAdjust="spacingAndGlyphs" textLength="61" x="200.5" y="67.0151">user: User</text><text fill="#000000" font-family="sans-serif" font-size="11" lengthAdjust="spacingAndGlyphs" textLength="61" x="200.5" y="79.8198">role: Roles</text><text fill="#000000" font-family="sans-serif" font-size="11" lengthAdjust="spacingAndGlyphs" textLength="116" x="200.5" y="92.6245">createdAt: DateTime</text><text fill="#000000" font-family="sans-serif" font-size="11" lengthAdjust="spacingAndGlyphs" textLength="119" x="200.5" y="105.4292">updatedAt: DateTime</text><line style="stroke: #A80036; stroke-width: 1.5;" x1="195.5" x2="357.5" y1="112.0234" y2="112.0234"/><!--MD5=[825d8f9934a0a39f4af751f96ebc9deb]
class ChatRoomMessage--><rect fill="#FEFECE" filter="url(#f1y0gcyicb8uyv)" height="112.0234" id="ChatRoomMessage" style="stroke: #A80036; stroke-width: 1.5;" width="175" x="6" y="180"/><ellipse cx="31.35" cy="196" fill="#ADD1B2" rx="11" ry="11" style="stroke: #A80036; stroke-width: 1.0;"/><path d="M33.6938,191.6719 L33.8656,191.75 C34.0844,191.4375 34.2875,191.3438 34.5844,191.3438 C34.8813,191.3438 35.1625,191.4844 35.3188,191.75 C35.4125,191.9063 35.4281,192.0313 35.4281,192.4688 L35.4281,193.8906 C35.4281,194.3125 35.3969,194.5 35.2875,194.6563 C35.1156,194.875 34.85,195.0156 34.5844,195.0156 C34.3656,195.0156 34.1313,194.9063 33.9906,194.7656 C33.85,194.6406 33.8188,194.5156 33.7563,194.1094 C33.6625,193.7031 33.4906,193.4844 33.0063,193.2031 C32.5375,192.9531 31.9281,192.7969 31.35,192.7969 C29.6156,192.7969 28.3656,194.1094 28.3656,195.8906 L28.3656,196.9844 C28.3656,198.6875 29.6625,199.7813 31.7094,199.7813 C32.475,199.7813 33.1625,199.6563 33.5844,199.3906 C33.7719,199.2969 33.7719,199.2969 34.225,198.8125 C34.4125,198.625 34.6156,198.5469 34.8344,198.5469 C35.3031,198.5469 35.6938,198.9375 35.6938,199.3906 C35.6938,199.7813 35.3656,200.2344 34.7875,200.6406 C34.0375,201.1875 32.8813,201.4844 31.6625,201.4844 C28.7719,201.4844 26.6625,199.5938 26.6625,197.0156 L26.6625,195.8906 C26.6625,193.1719 28.6625,191.0938 31.2875,191.0938 C32.1625,191.0938 32.7563,191.2344 33.6938,191.6719 Z "/><text fill="#000000" font-family="sans-serif" font-size="12" lengthAdjust="spacingAndGlyphs" textLength="120" x="47.65" y="200.1543">ChatRoomMessage</text><line style="stroke: #A80036; stroke-width: 1.5;" x1="7" x2="180" y1="212" y2="212"/><text fill="#000000" font-family="sans-serif" font-size="11" lengthAdjust="spacingAndGlyphs" textLength="43" x="12" y="226.2104">id: Uuid</text><text fill="#000000" font-family="sans-serif" font-size="11" lengthAdjust="spacingAndGlyphs" textLength="163" x="12" y="239.0151">author: ChatRoomParticipant</text><text fill="#000000" font-family="sans-serif" font-size="11" lengthAdjust="spacingAndGlyphs" textLength="116" x="12" y="251.8198">createdAt: DateTime</text><text fill="#000000" font-family="sans-serif" font-size="11" lengthAdjust="spacingAndGlyphs" textLength="119" x="12" y="264.6245">updatedAt: DateTime</text><text fill="#000000" font-family="sans-serif" font-size="11" lengthAdjust="spacingAndGlyphs" textLength="63" x="12" y="277.4292">text: String</text><line style="stroke: #A80036; stroke-width: 1.5;" x1="7" x2="180" y1="284.0234" y2="284.0234"/><!--MD5=[adb912e82da036b62db67f8223c31fa5]
link ChatRoom to ChatRoomParticipant--><!--MD5=[9f49bca8c9175ab6de9b082ccfe5ab73]
link ChatRoom to ChatRoomMessage--><!--MD5=[574af55ac58fa53847220bd0689f5807]
@startuml
class ChatRoom {
  id: Uuid
  createdAt: DateTime
  updatedAt: DateTime
}

class ChatRoomParticipant {
  id: Uuid
  user: User
  role: Roles
  createdAt: DateTime
  updatedAt: DateTime
}

class ChatRoomMessage {
  id: Uuid
  author: ChatRoomParticipant
  createdAt: DateTime
  updatedAt: DateTime
  text: String
}
@enduml

PlantUML version 1.2019.13(Tue Dec 10 17:18:29 UTC 2019)
(GPL source distribution)
Java Runtime: Java(TM) SE Runtime Environment
JVM: Java HotSpot(TM) 64-Bit Server VM
Java Version: 1.7.0_25-b15
Operating System: Linux
Default Encoding: UTF-8
Language: en
Country: US
--></g></svg>