<?xml version="1.0" encoding="UTF-8" standalone="no"?><svg xmlns="http://www.w3.org/2000/svg" xmlns:xlink="http://www.w3.org/1999/xlink" contentScriptType="application/ecmascript" contentStyleType="text/css" height="762px" preserveAspectRatio="none" style="width:506px;height:762px;" version="1.1" viewBox="0 0 506 762" width="506px" zoomAndPan="magnify"><defs><filter height="300%" id="f8um04xek6oay" width="300%" x="-1" y="-1"><feGaussianBlur result="blurOut" stdDeviation="2.0"/><feColorMatrix in="blurOut" result="blurOut2" type="matrix" values="0 0 0 0 0 0 0 0 0 0 0 0 0 0 0 0 0 0 .4 0"/><feOffset dx="4.0" dy="4.0" in="blurOut2" result="blurOut3"/><feBlend in="SourceGraphic" in2="blurOut3" mode="normal"/></filter></defs><g><!--MD5=[b8cfd8c4119a3b0a7a46bfc5fc780f85]
class Error--><rect fill="#FEFECE" filter="url(#f8um04xek6oay)" height="73.6094" id="Error" style="stroke: #A80036; stroke-width: 1.5;" width="107" x="6" y="33.5"/><ellipse cx="40.8" cy="49.5" fill="#ADD1B2" rx="11" ry="11" style="stroke: #A80036; stroke-width: 1.0;"/><path d="M43.1438,45.1719 L43.3156,45.25 C43.5344,44.9375 43.7375,44.8438 44.0344,44.8438 C44.3313,44.8438 44.6125,44.9844 44.7688,45.25 C44.8625,45.4063 44.8781,45.5313 44.8781,45.9688 L44.8781,47.3906 C44.8781,47.8125 44.8469,48 44.7375,48.1563 C44.5656,48.375 44.3,48.5156 44.0344,48.5156 C43.8156,48.5156 43.5813,48.4063 43.4406,48.2656 C43.3,48.1406 43.2688,48.0156 43.2063,47.6094 C43.1125,47.2031 42.9406,46.9844 42.4563,46.7031 C41.9875,46.4531 41.3781,46.2969 40.8,46.2969 C39.0656,46.2969 37.8156,47.6094 37.8156,49.3906 L37.8156,50.4844 C37.8156,52.1875 39.1125,53.2813 41.1594,53.2813 C41.925,53.2813 42.6125,53.1563 43.0344,52.8906 C43.2219,52.7969 43.2219,52.7969 43.675,52.3125 C43.8625,52.125 44.0656,52.0469 44.2844,52.0469 C44.7531,52.0469 45.1438,52.4375 45.1438,52.8906 C45.1438,53.2813 44.8156,53.7344 44.2375,54.1406 C43.4875,54.6875 42.3313,54.9844 41.1125,54.9844 C38.2219,54.9844 36.1125,53.0938 36.1125,50.5156 L36.1125,49.3906 C36.1125,46.6719 38.1125,44.5938 40.7375,44.5938 C41.6125,44.5938 42.2063,44.7344 43.1438,45.1719 Z "/><text fill="#000000" font-family="sans-serif" font-size="12" lengthAdjust="spacingAndGlyphs" textLength="31" x="59.2" y="53.6543">Error</text><line style="stroke: #A80036; stroke-width: 1.5;" x1="7" x2="112" y1="65.5" y2="65.5"/><text fill="#000000" font-family="sans-serif" font-size="11" lengthAdjust="spacingAndGlyphs" textLength="49" x="12" y="79.7104">code: Int</text><text fill="#000000" font-family="sans-serif" font-size="11" lengthAdjust="spacingAndGlyphs" textLength="95" x="12" y="92.5151">message: String</text><line style="stroke: #A80036; stroke-width: 1.5;" x1="7" x2="112" y1="99.1094" y2="99.1094"/><!--MD5=[3fd616f346a44cd59a91eb10b19e157c]
class User--><rect fill="#FEFECE" filter="url(#f8um04xek6oay)" height="112.0234" id="User" style="stroke: #A80036; stroke-width: 1.5;" width="139" x="80" y="216.5"/><ellipse cx="130.75" cy="232.5" fill="#ADD1B2" rx="11" ry="11" style="stroke: #A80036; stroke-width: 1.0;"/><path d="M133.0938,228.1719 L133.2656,228.25 C133.4844,227.9375 133.6875,227.8438 133.9844,227.8438 C134.2813,227.8438 134.5625,227.9844 134.7188,228.25 C134.8125,228.4063 134.8281,228.5313 134.8281,228.9688 L134.8281,230.3906 C134.8281,230.8125 134.7969,231 134.6875,231.1563 C134.5156,231.375 134.25,231.5156 133.9844,231.5156 C133.7656,231.5156 133.5313,231.4063 133.3906,231.2656 C133.25,231.1406 133.2188,231.0156 133.1563,230.6094 C133.0625,230.2031 132.8906,229.9844 132.4063,229.7031 C131.9375,229.4531 131.3281,229.2969 130.75,229.2969 C129.0156,229.2969 127.7656,230.6094 127.7656,232.3906 L127.7656,233.4844 C127.7656,235.1875 129.0625,236.2813 131.1094,236.2813 C131.875,236.2813 132.5625,236.1563 132.9844,235.8906 C133.1719,235.7969 133.1719,235.7969 133.625,235.3125 C133.8125,235.125 134.0156,235.0469 134.2344,235.0469 C134.7031,235.0469 135.0938,235.4375 135.0938,235.8906 C135.0938,236.2813 134.7656,236.7344 134.1875,237.1406 C133.4375,237.6875 132.2813,237.9844 131.0625,237.9844 C128.1719,237.9844 126.0625,236.0938 126.0625,233.5156 L126.0625,232.3906 C126.0625,229.6719 128.0625,227.5938 130.6875,227.5938 C131.5625,227.5938 132.1563,227.7344 133.0938,228.1719 Z "/><text fill="#000000" font-family="sans-serif" font-size="12" lengthAdjust="spacingAndGlyphs" textLength="29" x="151.25" y="236.6543">User</text><line style="stroke: #A80036; stroke-width: 1.5;" x1="81" x2="218" y1="248.5" y2="248.5"/><text fill="#000000" font-family="sans-serif" font-size="11" lengthAdjust="spacingAndGlyphs" textLength="43" x="86" y="262.7104">id: Uuid</text><text fill="#000000" font-family="sans-serif" font-size="11" lengthAdjust="spacingAndGlyphs" textLength="98" x="86" y="275.5151">firstName: String</text><text fill="#000000" font-family="sans-serif" font-size="11" lengthAdjust="spacingAndGlyphs" textLength="96" x="86" y="288.3198">lastName: String</text><text fill="#000000" font-family="sans-serif" font-size="11" lengthAdjust="spacingAndGlyphs" textLength="73" x="86" y="301.1245">email: String</text><text fill="#000000" font-family="sans-serif" font-size="11" lengthAdjust="spacingAndGlyphs" textLength="127" x="86" y="313.9292">passwordHash: String</text><line style="stroke: #A80036; stroke-width: 1.5;" x1="81" x2="218" y1="320.5234" y2="320.5234"/><!--MD5=[3492c9cfc0f6cd990abee700d172ce18]
class ServiceCategory--><rect fill="#FEFECE" filter="url(#f8um04xek6oay)" height="73.6094" id="ServiceCategory" style="stroke: #A80036; stroke-width: 1.5;" width="133" x="170" y="664.5"/><ellipse cx="185" cy="680.5" fill="#ADD1B2" rx="11" ry="11" style="stroke: #A80036; stroke-width: 1.0;"/><path d="M187.3438,676.1719 L187.5156,676.25 C187.7344,675.9375 187.9375,675.8438 188.2344,675.8438 C188.5313,675.8438 188.8125,675.9844 188.9688,676.25 C189.0625,676.4063 189.0781,676.5313 189.0781,676.9688 L189.0781,678.3906 C189.0781,678.8125 189.0469,679 188.9375,679.1563 C188.7656,679.375 188.5,679.5156 188.2344,679.5156 C188.0156,679.5156 187.7813,679.4063 187.6406,679.2656 C187.5,679.1406 187.4688,679.0156 187.4063,678.6094 C187.3125,678.2031 187.1406,677.9844 186.6563,677.7031 C186.1875,677.4531 185.5781,677.2969 185,677.2969 C183.2656,677.2969 182.0156,678.6094 182.0156,680.3906 L182.0156,681.4844 C182.0156,683.1875 183.3125,684.2813 185.3594,684.2813 C186.125,684.2813 186.8125,684.1563 187.2344,683.8906 C187.4219,683.7969 187.4219,683.7969 187.875,683.3125 C188.0625,683.125 188.2656,683.0469 188.4844,683.0469 C188.9531,683.0469 189.3438,683.4375 189.3438,683.8906 C189.3438,684.2813 189.0156,684.7344 188.4375,685.1406 C187.6875,685.6875 186.5313,685.9844 185.3125,685.9844 C182.4219,685.9844 180.3125,684.0938 180.3125,681.5156 L180.3125,680.3906 C180.3125,677.6719 182.3125,675.5938 184.9375,675.5938 C185.8125,675.5938 186.4063,675.7344 187.3438,676.1719 Z "/><text fill="#000000" font-family="sans-serif" font-size="12" lengthAdjust="spacingAndGlyphs" textLength="101" x="199" y="684.6543">ServiceCategory</text><line style="stroke: #A80036; stroke-width: 1.5;" x1="171" x2="302" y1="696.5" y2="696.5"/><text fill="#000000" font-family="sans-serif" font-size="11" lengthAdjust="spacingAndGlyphs" textLength="43" x="176" y="710.7104">id: Uuid</text><text fill="#000000" font-family="sans-serif" font-size="11" lengthAdjust="spacingAndGlyphs" textLength="74" x="176" y="723.5151">name: String</text><line style="stroke: #A80036; stroke-width: 1.5;" x1="171" x2="302" y1="730.1094" y2="730.1094"/><!--MD5=[428d22d350d9880e10e0ddd45e620f15]
class ServiceProvider--><rect fill="#FEFECE" filter="url(#f8um04xek6oay)" height="99.2188" id="ServiceProvider" style="stroke: #A80036; stroke-width: 1.5;" width="128" x="338.5" y="652"/><ellipse cx="353.5" cy="668" fill="#ADD1B2" rx="11" ry="11" style="stroke: #A80036; stroke-width: 1.0;"/><path d="M355.8438,663.6719 L356.0156,663.75 C356.2344,663.4375 356.4375,663.3438 356.7344,663.3438 C357.0313,663.3438 357.3125,663.4844 357.4688,663.75 C357.5625,663.9063 357.5781,664.0313 357.5781,664.4688 L357.5781,665.8906 C357.5781,666.3125 357.5469,666.5 357.4375,666.6563 C357.2656,666.875 357,667.0156 356.7344,667.0156 C356.5156,667.0156 356.2813,666.9063 356.1406,666.7656 C356,666.6406 355.9688,666.5156 355.9063,666.1094 C355.8125,665.7031 355.6406,665.4844 355.1563,665.2031 C354.6875,664.9531 354.0781,664.7969 353.5,664.7969 C351.7656,664.7969 350.5156,666.1094 350.5156,667.8906 L350.5156,668.9844 C350.5156,670.6875 351.8125,671.7813 353.8594,671.7813 C354.625,671.7813 355.3125,671.6563 355.7344,671.3906 C355.9219,671.2969 355.9219,671.2969 356.375,670.8125 C356.5625,670.625 356.7656,670.5469 356.9844,670.5469 C357.4531,670.5469 357.8438,670.9375 357.8438,671.3906 C357.8438,671.7813 357.5156,672.2344 356.9375,672.6406 C356.1875,673.1875 355.0313,673.4844 353.8125,673.4844 C350.9219,673.4844 348.8125,671.5938 348.8125,669.0156 L348.8125,667.8906 C348.8125,665.1719 350.8125,663.0938 353.4375,663.0938 C354.3125,663.0938 354.9063,663.2344 355.8438,663.6719 Z "/><text fill="#000000" font-family="sans-serif" font-size="12" lengthAdjust="spacingAndGlyphs" textLength="96" x="367.5" y="672.1543">ServiceProvider</text><line style="stroke: #A80036; stroke-width: 1.5;" x1="339.5" x2="465.5" y1="684" y2="684"/><text fill="#000000" font-family="sans-serif" font-size="11" lengthAdjust="spacingAndGlyphs" textLength="43" x="344.5" y="698.2104">id: Uuid</text><text fill="#000000" font-family="sans-serif" font-size="11" lengthAdjust="spacingAndGlyphs" textLength="74" x="344.5" y="711.0151">name: String</text><text fill="#000000" font-family="sans-serif" font-size="11" lengthAdjust="spacingAndGlyphs" textLength="70" x="344.5" y="723.8198">owner: User</text><text fill="#000000" font-family="sans-serif" font-size="11" lengthAdjust="spacingAndGlyphs" textLength="99" x="344.5" y="736.6245">location: Location</text><line style="stroke: #A80036; stroke-width: 1.5;" x1="339.5" x2="465.5" y1="743.2188" y2="743.2188"/><!--MD5=[dbb8b4f13c7b21394f9d757e58732f45]
class Service--><rect fill="#FEFECE" filter="url(#f8um04xek6oay)" height="163.2422" id="Service" style="stroke: #A80036; stroke-width: 1.5;" width="181" x="229" y="412"/><ellipse cx="292.75" cy="428" fill="#ADD1B2" rx="11" ry="11" style="stroke: #A80036; stroke-width: 1.0;"/><path d="M295.0938,423.6719 L295.2656,423.75 C295.4844,423.4375 295.6875,423.3438 295.9844,423.3438 C296.2813,423.3438 296.5625,423.4844 296.7188,423.75 C296.8125,423.9063 296.8281,424.0313 296.8281,424.4688 L296.8281,425.8906 C296.8281,426.3125 296.7969,426.5 296.6875,426.6563 C296.5156,426.875 296.25,427.0156 295.9844,427.0156 C295.7656,427.0156 295.5313,426.9063 295.3906,426.7656 C295.25,426.6406 295.2188,426.5156 295.1563,426.1094 C295.0625,425.7031 294.8906,425.4844 294.4063,425.2031 C293.9375,424.9531 293.3281,424.7969 292.75,424.7969 C291.0156,424.7969 289.7656,426.1094 289.7656,427.8906 L289.7656,428.9844 C289.7656,430.6875 291.0625,431.7813 293.1094,431.7813 C293.875,431.7813 294.5625,431.6563 294.9844,431.3906 C295.1719,431.2969 295.1719,431.2969 295.625,430.8125 C295.8125,430.625 296.0156,430.5469 296.2344,430.5469 C296.7031,430.5469 297.0938,430.9375 297.0938,431.3906 C297.0938,431.7813 296.7656,432.2344 296.1875,432.6406 C295.4375,433.1875 294.2813,433.4844 293.0625,433.4844 C290.1719,433.4844 288.0625,431.5938 288.0625,429.0156 L288.0625,427.8906 C288.0625,425.1719 290.0625,423.0938 292.6875,423.0938 C293.5625,423.0938 294.1563,423.2344 295.0938,423.6719 Z "/><text fill="#000000" font-family="sans-serif" font-size="12" lengthAdjust="spacingAndGlyphs" textLength="45" x="313.25" y="432.1543">Service</text><line style="stroke: #A80036; stroke-width: 1.5;" x1="230" x2="409" y1="444" y2="444"/><text fill="#000000" font-family="sans-serif" font-size="11" lengthAdjust="spacingAndGlyphs" textLength="43" x="235" y="458.2104">id: Uuid</text><text fill="#000000" font-family="sans-serif" font-size="11" lengthAdjust="spacingAndGlyphs" textLength="74" x="235" y="471.0151">name: String</text><text fill="#000000" font-family="sans-serif" font-size="11" lengthAdjust="spacingAndGlyphs" textLength="105" x="235" y="483.8198">description: String</text><text fill="#000000" font-family="sans-serif" font-size="11" lengthAdjust="spacingAndGlyphs" textLength="169" x="235" y="496.6245">categories: ServiceCategory[]</text><text fill="#000000" font-family="sans-serif" font-size="11" lengthAdjust="spacingAndGlyphs" textLength="144" x="235" y="509.4292">provider: ServiceProvider</text><text fill="#000000" font-family="sans-serif" font-size="11" lengthAdjust="spacingAndGlyphs" textLength="63" x="235" y="522.2339">picture: Url</text><text fill="#000000" font-family="sans-serif" font-size="11" lengthAdjust="spacingAndGlyphs" textLength="99" x="235" y="535.0386">location: Location</text><text fill="#000000" font-family="sans-serif" font-size="11" lengthAdjust="spacingAndGlyphs" textLength="116" x="235" y="547.8433">createdAt: DateTime</text><text fill="#000000" font-family="sans-serif" font-size="11" lengthAdjust="spacingAndGlyphs" textLength="119" x="235" y="560.6479">updatedAt: DateTime</text><line style="stroke: #A80036; stroke-width: 1.5;" x1="230" x2="409" y1="567.2422" y2="567.2422"/><!--MD5=[c25ea81cbf43478f44638108820ac108]
class ServiceSlot--><rect fill="#FEFECE" filter="url(#f8um04xek6oay)" height="124.8281" id="ServiceSlot" style="stroke: #A80036; stroke-width: 1.5;" width="131" x="254" y="210"/><ellipse cx="282.5" cy="226" fill="#ADD1B2" rx="11" ry="11" style="stroke: #A80036; stroke-width: 1.0;"/><path d="M284.8438,221.6719 L285.0156,221.75 C285.2344,221.4375 285.4375,221.3438 285.7344,221.3438 C286.0313,221.3438 286.3125,221.4844 286.4688,221.75 C286.5625,221.9063 286.5781,222.0313 286.5781,222.4688 L286.5781,223.8906 C286.5781,224.3125 286.5469,224.5 286.4375,224.6563 C286.2656,224.875 286,225.0156 285.7344,225.0156 C285.5156,225.0156 285.2813,224.9063 285.1406,224.7656 C285,224.6406 284.9688,224.5156 284.9063,224.1094 C284.8125,223.7031 284.6406,223.4844 284.1563,223.2031 C283.6875,222.9531 283.0781,222.7969 282.5,222.7969 C280.7656,222.7969 279.5156,224.1094 279.5156,225.8906 L279.5156,226.9844 C279.5156,228.6875 280.8125,229.7813 282.8594,229.7813 C283.625,229.7813 284.3125,229.6563 284.7344,229.3906 C284.9219,229.2969 284.9219,229.2969 285.375,228.8125 C285.5625,228.625 285.7656,228.5469 285.9844,228.5469 C286.4531,228.5469 286.8438,228.9375 286.8438,229.3906 C286.8438,229.7813 286.5156,230.2344 285.9375,230.6406 C285.1875,231.1875 284.0313,231.4844 282.8125,231.4844 C279.9219,231.4844 277.8125,229.5938 277.8125,227.0156 L277.8125,225.8906 C277.8125,223.1719 279.8125,221.0938 282.4375,221.0938 C283.3125,221.0938 283.9063,221.2344 284.8438,221.6719 Z "/><text fill="#000000" font-family="sans-serif" font-size="12" lengthAdjust="spacingAndGlyphs" textLength="69" x="299.5" y="230.1543">ServiceSlot</text><line style="stroke: #A80036; stroke-width: 1.5;" x1="255" x2="384" y1="242" y2="242"/><text fill="#000000" font-family="sans-serif" font-size="11" lengthAdjust="spacingAndGlyphs" textLength="43" x="260" y="256.2104">id: Uuid</text><text fill="#000000" font-family="sans-serif" font-size="11" lengthAdjust="spacingAndGlyphs" textLength="69" x="260" y="269.0151">duration: Int</text><text fill="#000000" font-family="sans-serif" font-size="11" lengthAdjust="spacingAndGlyphs" textLength="91" x="260" y="281.8198">service: Service</text><text fill="#000000" font-family="sans-serif" font-size="11" lengthAdjust="spacingAndGlyphs" textLength="117" x="260" y="294.6245">startingAt: DateTime</text><text fill="#000000" font-family="sans-serif" font-size="11" lengthAdjust="spacingAndGlyphs" textLength="116" x="260" y="307.4292">createdAt: DateTime</text><text fill="#000000" font-family="sans-serif" font-size="11" lengthAdjust="spacingAndGlyphs" textLength="119" x="260" y="320.2339">updatedAt: DateTime</text><line style="stroke: #A80036; stroke-width: 1.5;" x1="255" x2="384" y1="326.8281" y2="326.8281"/><!--MD5=[a28d90c503c104e63a4115c8fbeebdbd]
class ServiceBooking--><rect fill="#FEFECE" filter="url(#f8um04xek6oay)" height="124.8281" id="ServiceBooking" style="stroke: #A80036; stroke-width: 1.5;" width="142" x="148.5" y="8"/><ellipse cx="170.25" cy="24" fill="#ADD1B2" rx="11" ry="11" style="stroke: #A80036; stroke-width: 1.0;"/><path d="M172.5938,19.6719 L172.7656,19.75 C172.9844,19.4375 173.1875,19.3438 173.4844,19.3438 C173.7813,19.3438 174.0625,19.4844 174.2188,19.75 C174.3125,19.9063 174.3281,20.0313 174.3281,20.4688 L174.3281,21.8906 C174.3281,22.3125 174.2969,22.5 174.1875,22.6563 C174.0156,22.875 173.75,23.0156 173.4844,23.0156 C173.2656,23.0156 173.0313,22.9063 172.8906,22.7656 C172.75,22.6406 172.7188,22.5156 172.6563,22.1094 C172.5625,21.7031 172.3906,21.4844 171.9063,21.2031 C171.4375,20.9531 170.8281,20.7969 170.25,20.7969 C168.5156,20.7969 167.2656,22.1094 167.2656,23.8906 L167.2656,24.9844 C167.2656,26.6875 168.5625,27.7813 170.6094,27.7813 C171.375,27.7813 172.0625,27.6563 172.4844,27.3906 C172.6719,27.2969 172.6719,27.2969 173.125,26.8125 C173.3125,26.625 173.5156,26.5469 173.7344,26.5469 C174.2031,26.5469 174.5938,26.9375 174.5938,27.3906 C174.5938,27.7813 174.2656,28.2344 173.6875,28.6406 C172.9375,29.1875 171.7813,29.4844 170.5625,29.4844 C167.6719,29.4844 165.5625,27.5938 165.5625,25.0156 L165.5625,23.8906 C165.5625,21.1719 167.5625,19.0938 170.1875,19.0938 C171.0625,19.0938 171.6563,19.2344 172.5938,19.6719 Z "/><text fill="#000000" font-family="sans-serif" font-size="12" lengthAdjust="spacingAndGlyphs" textLength="95" x="185.75" y="28.1543">ServiceBooking</text><line style="stroke: #A80036; stroke-width: 1.5;" x1="149.5" x2="289.5" y1="40" y2="40"/><text fill="#000000" font-family="sans-serif" font-size="11" lengthAdjust="spacingAndGlyphs" textLength="43" x="154.5" y="54.2104">id: Uuid</text><text fill="#000000" font-family="sans-serif" font-size="11" lengthAdjust="spacingAndGlyphs" textLength="89" x="154.5" y="67.0151">customer: User</text><text fill="#000000" font-family="sans-serif" font-size="11" lengthAdjust="spacingAndGlyphs" textLength="93" x="154.5" y="79.8198">slot: ServiceSlot</text><text fill="#000000" font-family="sans-serif" font-size="11" lengthAdjust="spacingAndGlyphs" textLength="116" x="154.5" y="92.6245">createdAt: DateTime</text><text fill="#000000" font-family="sans-serif" font-size="11" lengthAdjust="spacingAndGlyphs" textLength="119" x="154.5" y="105.4292">updatedAt: DateTime</text><text fill="#000000" font-family="sans-serif" font-size="11" lengthAdjust="spacingAndGlyphs" textLength="130" x="154.5" y="118.2339">confirmedAt: DateTime</text><line style="stroke: #A80036; stroke-width: 1.5;" x1="149.5" x2="289.5" y1="124.8281" y2="124.8281"/><!--MD5=[5cb228ae24c49dcd6aea6b9c51a538dd]
class ServiceBookingReview--><rect fill="#FEFECE" filter="url(#f8um04xek6oay)" height="124.8281" id="ServiceBookingReview" style="stroke: #A80036; stroke-width: 1.5;" width="169" x="326" y="8"/><ellipse cx="341" cy="24" fill="#ADD1B2" rx="11" ry="11" style="stroke: #A80036; stroke-width: 1.0;"/><path d="M343.3438,19.6719 L343.5156,19.75 C343.7344,19.4375 343.9375,19.3438 344.2344,19.3438 C344.5313,19.3438 344.8125,19.4844 344.9688,19.75 C345.0625,19.9063 345.0781,20.0313 345.0781,20.4688 L345.0781,21.8906 C345.0781,22.3125 345.0469,22.5 344.9375,22.6563 C344.7656,22.875 344.5,23.0156 344.2344,23.0156 C344.0156,23.0156 343.7813,22.9063 343.6406,22.7656 C343.5,22.6406 343.4688,22.5156 343.4063,22.1094 C343.3125,21.7031 343.1406,21.4844 342.6563,21.2031 C342.1875,20.9531 341.5781,20.7969 341,20.7969 C339.2656,20.7969 338.0156,22.1094 338.0156,23.8906 L338.0156,24.9844 C338.0156,26.6875 339.3125,27.7813 341.3594,27.7813 C342.125,27.7813 342.8125,27.6563 343.2344,27.3906 C343.4219,27.2969 343.4219,27.2969 343.875,26.8125 C344.0625,26.625 344.2656,26.5469 344.4844,26.5469 C344.9531,26.5469 345.3438,26.9375 345.3438,27.3906 C345.3438,27.7813 345.0156,28.2344 344.4375,28.6406 C343.6875,29.1875 342.5313,29.4844 341.3125,29.4844 C338.4219,29.4844 336.3125,27.5938 336.3125,25.0156 L336.3125,23.8906 C336.3125,21.1719 338.3125,19.0938 340.9375,19.0938 C341.8125,19.0938 342.4063,19.2344 343.3438,19.6719 Z "/><text fill="#000000" font-family="sans-serif" font-size="12" lengthAdjust="spacingAndGlyphs" textLength="137" x="355" y="28.1543">ServiceBookingReview</text><line style="stroke: #A80036; stroke-width: 1.5;" x1="327" x2="494" y1="40" y2="40"/><text fill="#000000" font-family="sans-serif" font-size="11" lengthAdjust="spacingAndGlyphs" textLength="43" x="332" y="54.2104">id: Uuid</text><text fill="#000000" font-family="sans-serif" font-size="11" lengthAdjust="spacingAndGlyphs" textLength="139" x="332" y="67.0151">booking: ServiceBooking</text><text fill="#000000" font-family="sans-serif" font-size="11" lengthAdjust="spacingAndGlyphs" textLength="63" x="332" y="79.8198">text: String</text><text fill="#000000" font-family="sans-serif" font-size="11" lengthAdjust="spacingAndGlyphs" textLength="63" x="332" y="92.6245">rate: Rates</text><text fill="#000000" font-family="sans-serif" font-size="11" lengthAdjust="spacingAndGlyphs" textLength="116" x="332" y="105.4292">createdAt: DateTime</text><text fill="#000000" font-family="sans-serif" font-size="11" lengthAdjust="spacingAndGlyphs" textLength="119" x="332" y="118.2339">updatedAt: DateTime</text><line style="stroke: #A80036; stroke-width: 1.5;" x1="327" x2="494" y1="124.8281" y2="124.8281"/><!--MD5=[ea7aba1774eb77317e3b2bad13197ba7]
link Service to ServiceCategory--><path d="M282.5679,586.1603 C282.5679,586.1603 255.5235,653.2836 255.5235,653.2836 " fill="none" id="Service-ServiceCategory" style="stroke: #A80036; stroke-width: 1.0;"/><polygon fill="#A80036" points="251.039,664.4141,256.9914,660.3437,255.5235,653.2836,249.5711,657.354,251.039,664.4141" style="stroke: #A80036; stroke-width: 1.0;"/><polygon fill="#FFFFFF" points="287.053,575.03,281.1003,579.1001,282.5679,586.1603,288.5206,582.0902,287.053,575.03" style="stroke: #A80036; stroke-width: 1.0;"/><text fill="#000000" font-family="sans-serif" font-size="13" lengthAdjust="spacingAndGlyphs" textLength="68" x="273.5" y="618.0669">included in</text><!--MD5=[35d56abbbc9476fb605032e1244fb719]
reverse link Service to ServiceProvider--><path d="M359.521,593.829 C367.657,614.021 375.868,634.402 382.903,651.8613 " fill="none" id="Service&lt;-ServiceProvider" style="stroke: #A80036; stroke-width: 1.0;"/><polygon fill="none" points="352.928,596.197,351.947,575.03,365.914,590.965,352.928,596.197" style="stroke: #A80036; stroke-width: 1.0;"/><text fill="#000000" font-family="sans-serif" font-size="13" lengthAdjust="spacingAndGlyphs" textLength="74" x="368.5" y="618.0669">provided by</text><!--MD5=[950a9654898b858e3e90473e1ed66263]
reverse link ServiceSlot to Service--><path d="M319.5,355.318 C319.5,373.767 319.5,393.339 319.5,411.745 " fill="none" id="ServiceSlot&lt;-Service" style="stroke: #A80036; stroke-width: 1.0;"/><polygon fill="none" points="312.5,355.087,319.5,335.087,326.5,355.086,312.5,355.087" style="stroke: #A80036; stroke-width: 1.0;"/><text fill="#000000" font-family="sans-serif" font-size="13" lengthAdjust="spacingAndGlyphs" textLength="66" x="320.5" y="378.0669">defined by</text><!--MD5=[39226598dd052a6b0ed55b0a1515781a]
reverse link ServiceBooking to ServiceSlot--><path d="M259.272,151.044 C269.033,170.567 279.338,191.176 288.61,209.721 " fill="none" id="ServiceBooking&lt;-ServiceSlot" style="stroke: #A80036; stroke-width: 1.0;"/><polygon fill="none" points="253.003,154.158,250.319,133.139,265.525,147.897,253.003,154.158" style="stroke: #A80036; stroke-width: 1.0;"/><text fill="#000000" font-family="sans-serif" font-size="13" lengthAdjust="spacingAndGlyphs" textLength="68" x="272.5" y="176.0669">booked for</text><!--MD5=[df50cc15d95f6258c276f10c1c0bddb8]
reverse link ServiceBooking to User--><path d="M184.227,145.433 C181.826,151.326 179.55,157.23 177.5,163 C171.442,180.048 166.09,199.028 161.731,216.288 " fill="none" id="ServiceBooking&lt;-User" style="stroke: #A80036; stroke-width: 1.0;"/><polygon fill="#FFFFFF" points="189.299,133.397,183.2831,137.3731,184.6395,144.4555,190.6554,140.4794,189.299,133.397" style="stroke: #A80036; stroke-width: 1.0;"/><text fill="#000000" font-family="sans-serif" font-size="13" lengthAdjust="spacingAndGlyphs" textLength="66" x="178.5" y="176.0669">booked by</text><!--MD5=[46ec160af46977a23b42aaca9f0848bc]
@startuml
class Error {
  code: Int
  message: String
}

class User {
  id: Uuid
  firstName: String
  lastName: String
  email: String
  passwordHash: String
}

class ServiceCategory {
  id: Uuid
  name: String
}

class ServiceProvider {
  id: Uuid
  name: String 
  owner: User
  location: Location
}

class Service {
  id: Uuid
  name: String
  description: String
  categories: ServiceCategory[]
  provider: ServiceProvider
  picture: Url
  location: Location
  createdAt: DateTime
  updatedAt: DateTime
}

Service o- -* ServiceCategory : included in
Service <|- - ServiceProvider : provided by

class ServiceSlot {
  id: Uuid
  duration: Int
  service: Service
  startingAt: DateTime
  createdAt: DateTime
  updatedAt: DateTime
}

ServiceSlot <|- - Service : defined by

class ServiceBooking {
  id: Uuid
  customer: User
  slot: ServiceSlot
  createdAt: DateTime
  updatedAt: DateTime
  confirmedAt: DateTime
}

ServiceBooking <|- - ServiceSlot : booked for
ServiceBooking o- - User : booked by

class ServiceBookingReview {
  id: Uuid
  booking: ServiceBooking
  text: String
  rate: Rates
  createdAt: DateTime
  updatedAt: DateTime
}
@enduml

PlantUML version 1.2019.13(Tue Dec 10 17:18:29 UTC 2019)
(GPL source distribution)
Java Runtime: Java(TM) SE Runtime Environment
JVM: Java HotSpot(TM) 64-Bit Server VM
Java Version: 1.7.0_25-b15
Operating System: Linux
Default Encoding: UTF-8
Language: en
Country: US
--></g></svg>