<?xml version="1.0" encoding="UTF-8" standalone="no"?><svg xmlns="http://www.w3.org/2000/svg" xmlns:xlink="http://www.w3.org/1999/xlink" contentScriptType="application/ecmascript" contentStyleType="text/css" height="278px" preserveAspectRatio="none" style="width:381px;height:278px;" version="1.1" viewBox="0 0 381 278" width="381px" zoomAndPan="magnify"><defs><filter height="300%" id="f1c3ie584cdo9d" width="300%" x="-1" y="-1"><feGaussianBlur result="blurOut" stdDeviation="2.0"/><feColorMatrix in="blurOut" result="blurOut2" type="matrix" values="0 0 0 0 0 0 0 0 0 0 0 0 0 0 0 0 0 0 .4 0"/><feOffset dx="4.0" dy="4.0" in="blurOut2" result="blurOut3"/><feBlend in="SourceGraphic" in2="blurOut3" mode="normal"/></filter></defs><g><!--MD5=[99b31deea5d7419a569cd5090bf83263]
cluster System--><rect fill="#FFFFFF" filter="url(#f1c3ie584cdo9d)" height="243" style="stroke: #000000; stroke-width: 1.5;" width="126" x="121" y="24"/><text fill="#000000" font-family="sans-serif" font-size="14" font-weight="bold" lengthAdjust="spacingAndGlyphs" textLength="58" x="155" y="38.9951">System</text><ellipse cx="183.8406" cy="155.0236" fill="#FEFECE" filter="url(#f1c3ie584cdo9d)" rx="46.8406" ry="14.5236" style="stroke: #A80036; stroke-width: 1.5;"/><text fill="#000000" font-family="sans-serif" font-size="14" lengthAdjust="spacingAndGlyphs" textLength="62" x="152.8406" y="159.6721">Order Ytt</text><ellipse cx="183.9264" cy="74.0236" fill="#FEFECE" filter="url(#f1c3ie584cdo9d)" rx="45.4264" ry="14.5236" style="stroke: #A80036; stroke-width: 1.5;"/><text fill="#000000" font-family="sans-serif" font-size="14" lengthAdjust="spacingAndGlyphs" textLength="60" x="153.9264" y="78.6721">Payment</text><ellipse cx="183.9203" cy="236.0236" fill="#FEFECE" filter="url(#f1c3ie584cdo9d)" rx="24.9203" ry="14.5236" style="stroke: #A80036; stroke-width: 1.5;"/><text fill="#000000" font-family="sans-serif" font-size="14" lengthAdjust="spacingAndGlyphs" textLength="31" x="168.4203" y="240.6721">Help</text><!--MD5=[ae78ca0dd1f49bdd788e5556d70823ac]
entity Customer--><ellipse cx="40" cy="124" fill="#FEFECE" filter="url(#f1c3ie584cdo9d)" rx="8" ry="8" style="stroke: #A80036; stroke-width: 1.5;"/><path d="M40,132 L40,159 M27,140 L53,140 M40,159 L27,174 M40,159 L53,174 " fill="none" filter="url(#f1c3ie584cdo9d)" style="stroke: #A80036; stroke-width: 1.5;"/><text fill="#000000" font-family="sans-serif" font-size="14" lengthAdjust="spacingAndGlyphs" textLength="68" x="6" y="192.4951">Customer</text><!--MD5=[b63dcfc41522e6ccae79441453ca6b23]
entity YttProvider--><ellipse cx="331.5" cy="124" fill="#FEFECE" filter="url(#f1c3ie584cdo9d)" rx="8" ry="8" style="stroke: #A80036; stroke-width: 1.5;"/><path d="M331.5,132 L331.5,159 M318.5,140 L344.5,140 M331.5,159 L318.5,174 M331.5,159 L344.5,174 " fill="none" filter="url(#f1c3ie584cdo9d)" style="stroke: #A80036; stroke-width: 1.5;"/><text fill="#000000" font-family="sans-serif" font-size="14" lengthAdjust="spacingAndGlyphs" textLength="75" x="294" y="192.4951">YttProvider</text><!--MD5=[d899b43550ecacc8a4063ff070029a31]
link Customer to Order Ytt--><path d="M74.2927,155 C92.9009,155 116.377,155 136.747,155 " fill="none" id="Customer-Order Ytt" style="stroke: #A80036; stroke-width: 1.0;"/><!--MD5=[40e122e396ee75b36519f56b29dc4508]
link Order Ytt to Payment--><path d="M184,140.143 C184,127.127 184,108.107 184,93.8 " fill="none" id="Order Ytt-&gt;Payment" style="stroke: #A80036; stroke-width: 1.0; stroke-dasharray: 7.0,7.0;"/><polygon fill="#A80036" points="184,88.762,180,97.762,184,93.762,188,97.762,184,88.762" style="stroke: #A80036; stroke-width: 1.0;"/><text fill="#000000" font-family="sans-serif" font-size="13" lengthAdjust="spacingAndGlyphs" textLength="45" x="150" y="119.0669">include</text><!--MD5=[3cefbbc1a79656f90d6e152fe6172ab4]
link Help to Order Ytt--><path d="M184,221.1434 C184,208.1269 184,189.1069 184,174.8 " fill="none" id="Help-&gt;Order Ytt" style="stroke: #A80036; stroke-width: 1.0; stroke-dasharray: 7.0,7.0;"/><polygon fill="#A80036" points="184,169.762,180,178.762,184,174.762,188,178.762,184,169.762" style="stroke: #A80036; stroke-width: 1.0;"/><text fill="#000000" font-family="sans-serif" font-size="13" lengthAdjust="spacingAndGlyphs" textLength="51" x="147" y="200.0669">extends</text><!--MD5=[0f43551206614698d318e75800bb2514]
link Order Ytt to YttProvider--><path d="M231.037,155 C251.352,155 274.893,155 293.972,155 " fill="none" id="Order Ytt-YttProvider" style="stroke: #A80036; stroke-width: 1.0;"/><!--MD5=[59aad292ca84664746ffc5226b90e675]
@startuml
left to right direction
skinparam packageStyle rectangle

actor Customer
actor YttProvider

rectangle System {
  Customer - - (Order Ytt)
  (Order Ytt) .> (Payment) : include
  (Help) .> (Order Ytt) : extends
  (Order Ytt) - - YttProvider
}
@enduml

PlantUML version 1.2019.13(Tue Dec 10 17:18:29 UTC 2019)
(GPL source distribution)
Java Runtime: Java(TM) SE Runtime Environment
JVM: Java HotSpot(TM) 64-Bit Server VM
Java Version: 1.7.0_25-b15
Operating System: Linux
Default Encoding: UTF-8
Language: en
Country: US
--></g></svg>