<?xml version="1.0" encoding="UTF-8" standalone="no"?><svg xmlns="http://www.w3.org/2000/svg" xmlns:xlink="http://www.w3.org/1999/xlink" contentScriptType="application/ecmascript" contentStyleType="text/css" height="968px" preserveAspectRatio="none" style="width:640px;height:968px;" version="1.1" viewBox="0 0 640 968" width="640px" zoomAndPan="magnify"><defs><filter height="300%" id="fe0xx7x67bom2" width="300%" x="-1" y="-1"><feGaussianBlur result="blurOut" stdDeviation="2.0"/><feColorMatrix in="blurOut" result="blurOut2" type="matrix" values="0 0 0 0 0 0 0 0 0 0 0 0 0 0 0 0 0 0 .4 0"/><feOffset dx="4.0" dy="4.0" in="blurOut2" result="blurOut3"/><feBlend in="SourceGraphic" in2="blurOut3" mode="normal"/></filter></defs><g><rect fill="#FEFECE" filter="url(#fe0xx7x67bom2)" height="36.2969" rx="12.5" ry="12.5" style="stroke: #A80036; stroke-width: 1.5;" width="101" x="10" y="470.375"/><text fill="#000000" font-family="sans-serif" font-size="14" lengthAdjust="spacingAndGlyphs" textLength="81" x="20" y="493.3701">Technology</text><rect fill="#FEFECE" filter="url(#fe0xx7x67bom2)" height="36.2969" rx="12.5" ry="12.5" style="stroke: #A80036; stroke-width: 1.5;" width="61" x="161" y="160.7422"/><text fill="#000000" font-family="sans-serif" font-size="14" lengthAdjust="spacingAndGlyphs" textLength="41" x="171" y="183.7373">Vision</text><rect fill="#FEFECE" filter="url(#fe0xx7x67bom2)" height="36.2969" rx="12.5" ry="12.5" style="stroke: #A80036; stroke-width: 1.5;" width="193" x="272" y="20"/><text fill="#000000" font-family="sans-serif" font-size="14" lengthAdjust="spacingAndGlyphs" textLength="173" x="282" y="42.9951">Have fun with technology</text><path d="M222,178.8906 L232,178.8906 C247,178.8906 247,38.1484 262,38.1484 L272,38.1484 " fill="none" style="stroke: #A80036; stroke-width: 1.0;"/><rect fill="#FEFECE" filter="url(#fe0xx7x67bom2)" height="36.2969" rx="12.5" ry="12.5" style="stroke: #A80036; stroke-width: 1.5;" width="176" x="272" y="76.2969"/><text fill="#000000" font-family="sans-serif" font-size="14" lengthAdjust="spacingAndGlyphs" textLength="156" x="282" y="99.292">Technology == hobby</text><path d="M222,178.8906 L232,178.8906 C247,178.8906 247,94.4453 262,94.4453 L272,94.4453 " fill="none" style="stroke: #A80036; stroke-width: 1.0;"/><rect fill="#FEFECE" filter="url(#fe0xx7x67bom2)" height="36.2969" rx="12.5" ry="12.5" style="stroke: #A80036; stroke-width: 1.5;" width="160" x="272" y="132.5938"/><text fill="#000000" font-family="sans-serif" font-size="14" lengthAdjust="spacingAndGlyphs" textLength="136" x="282" y="155.5889">Code less, more life</text><path d="M222,178.8906 L232,178.8906 C247,178.8906 247,150.7422 262,150.7422 L272,150.7422 " fill="none" style="stroke: #A80036; stroke-width: 1.0;"/><rect fill="#FEFECE" filter="url(#fe0xx7x67bom2)" height="36.2969" rx="12.5" ry="12.5" style="stroke: #A80036; stroke-width: 1.5;" width="157" x="272" y="188.8906"/><text fill="#000000" font-family="sans-serif" font-size="14" lengthAdjust="spacingAndGlyphs" textLength="133" x="282" y="211.8857">Plan well and reuse</text><path d="M222,178.8906 L232,178.8906 C247,178.8906 247,207.0391 262,207.0391 L272,207.0391 " fill="none" style="stroke: #A80036; stroke-width: 1.0;"/><rect fill="#FEFECE" filter="url(#fe0xx7x67bom2)" height="36.2969" rx="12.5" ry="12.5" style="stroke: #A80036; stroke-width: 1.5;" width="173" x="272" y="245.1875"/><text fill="#000000" font-family="sans-serif" font-size="14" lengthAdjust="spacingAndGlyphs" textLength="149" x="282" y="268.1826">Work in a way you like</text><path d="M222,178.8906 L232,178.8906 C247,178.8906 247,263.3359 262,263.3359 L272,263.3359 " fill="none" style="stroke: #A80036; stroke-width: 1.0;"/><rect fill="#FEFECE" filter="url(#fe0xx7x67bom2)" height="36.2969" rx="12.5" ry="12.5" style="stroke: #A80036; stroke-width: 1.5;" width="164" x="272" y="301.4844"/><text fill="#000000" font-family="sans-serif" font-size="14" lengthAdjust="spacingAndGlyphs" textLength="144" x="282" y="324.4795">No force, no pushing</text><path d="M222,178.8906 L232,178.8906 C247,178.8906 247,319.6328 262,319.6328 L272,319.6328 " fill="none" style="stroke: #A80036; stroke-width: 1.0;"/><path d="M111,488.5234 L121,488.5234 C136,488.5234 136,178.8906 151,178.8906 L161,178.8906 " fill="none" style="stroke: #A80036; stroke-width: 1.0;"/><rect fill="#FEFECE" filter="url(#fe0xx7x67bom2)" height="36.2969" rx="12.5" ry="12.5" style="stroke: #A80036; stroke-width: 1.5;" width="80" x="161" y="639.2656"/><text fill="#000000" font-family="sans-serif" font-size="14" lengthAdjust="spacingAndGlyphs" textLength="60" x="171" y="662.2607">Software</text><rect fill="#FEFECE" filter="url(#fe0xx7x67bom2)" height="36.2969" rx="12.5" ry="12.5" style="stroke: #A80036; stroke-width: 1.5;" width="81" x="291" y="414.0781"/><text fill="#000000" font-family="sans-serif" font-size="14" lengthAdjust="spacingAndGlyphs" textLength="61" x="301" y="437.0732">Backend</text><rect fill="#FEFECE" filter="url(#fe0xx7x67bom2)" height="36.2969" rx="12.5" ry="12.5" style="stroke: #A80036; stroke-width: 1.5;" width="161" x="422" y="357.7813"/><text fill="#000000" font-family="sans-serif" font-size="14" lengthAdjust="spacingAndGlyphs" textLength="141" x="432" y="380.7764">Flask (at early stage)</text><path d="M372,432.2266 L382,432.2266 C397,432.2266 397,375.9297 412,375.9297 L422,375.9297 " fill="none" style="stroke: #A80036; stroke-width: 1.0;"/><rect fill="#FEFECE" filter="url(#fe0xx7x67bom2)" height="36.2969" rx="12.5" ry="12.5" style="stroke: #A80036; stroke-width: 1.5;" width="110" x="422" y="414.0781"/><text fill="#000000" font-family="sans-serif" font-size="14" lengthAdjust="spacingAndGlyphs" textLength="90" x="432" y="437.0732">Go / GoMicro</text><path d="M372,432.2266 L382,432.2266 C397,432.2266 397,432.2266 412,432.2266 L422,432.2266 " fill="none" style="stroke: #A80036; stroke-width: 1.0;"/><rect fill="#FEFECE" filter="url(#fe0xx7x67bom2)" height="36.2969" rx="12.5" ry="12.5" style="stroke: #A80036; stroke-width: 1.5;" width="58" x="422" y="470.375"/><text fill="#000000" font-family="sans-serif" font-size="14" lengthAdjust="spacingAndGlyphs" textLength="38" x="432" y="493.3701">gRPC</text><path d="M372,432.2266 L382,432.2266 C397,432.2266 397,488.5234 412,488.5234 L422,488.5234 " fill="none" style="stroke: #A80036; stroke-width: 1.0;"/><path d="M241,657.4141 L251,657.4141 C266,657.4141 266,432.2266 281,432.2266 L291,432.2266 " fill="none" style="stroke: #A80036; stroke-width: 1.0;"/><rect fill="#FEFECE" filter="url(#fe0xx7x67bom2)" height="36.2969" rx="12.5" ry="12.5" style="stroke: #A80036; stroke-width: 1.5;" width="83" x="291" y="611.1172"/><text fill="#000000" font-family="sans-serif" font-size="14" lengthAdjust="spacingAndGlyphs" textLength="63" x="301" y="634.1123">Frontend</text><rect fill="#FEFECE" filter="url(#fe0xx7x67bom2)" height="36.2969" rx="12.5" ry="12.5" style="stroke: #A80036; stroke-width: 1.5;" width="47" x="424" y="526.6719"/><text fill="#000000" font-family="sans-serif" font-size="14" lengthAdjust="spacingAndGlyphs" textLength="27" x="434" y="549.667">Vue</text><path d="M374,629.2656 L384,629.2656 C399,629.2656 399,544.8203 414,544.8203 L424,544.8203 " fill="none" style="stroke: #A80036; stroke-width: 1.0;"/><rect fill="#FEFECE" filter="url(#fe0xx7x67bom2)" height="36.2969" rx="12.5" ry="12.5" style="stroke: #A80036; stroke-width: 1.5;" width="65" x="424" y="582.9688"/><text fill="#000000" font-family="sans-serif" font-size="14" lengthAdjust="spacingAndGlyphs" textLength="45" x="434" y="605.9639">BitDev</text><path d="M374,629.2656 L384,629.2656 C399,629.2656 399,601.1172 414,601.1172 L424,601.1172 " fill="none" style="stroke: #A80036; stroke-width: 1.0;"/><rect fill="#FEFECE" filter="url(#fe0xx7x67bom2)" height="36.2969" rx="12.5" ry="12.5" style="stroke: #A80036; stroke-width: 1.5;" width="91" x="424" y="639.2656"/><text fill="#000000" font-family="sans-serif" font-size="14" lengthAdjust="spacingAndGlyphs" textLength="71" x="434" y="662.2607">Monorepo</text><path d="M374,629.2656 L384,629.2656 C399,629.2656 399,657.4141 414,657.4141 L424,657.4141 " fill="none" style="stroke: #A80036; stroke-width: 1.0;"/><rect fill="#FEFECE" filter="url(#fe0xx7x67bom2)" height="36.2969" rx="12.5" ry="12.5" style="stroke: #A80036; stroke-width: 1.5;" width="120" x="424" y="695.5625"/><text fill="#000000" font-family="sans-serif" font-size="14" lengthAdjust="spacingAndGlyphs" textLength="100" x="434" y="718.5576">Atomic Design</text><path d="M374,629.2656 L384,629.2656 C399,629.2656 399,713.7109 414,713.7109 L424,713.7109 " fill="none" style="stroke: #A80036; stroke-width: 1.0;"/><path d="M241,657.4141 L251,657.4141 C266,657.4141 266,629.2656 281,629.2656 L291,629.2656 " fill="none" style="stroke: #A80036; stroke-width: 1.0;"/><rect fill="#FEFECE" filter="url(#fe0xx7x67bom2)" height="36.2969" rx="12.5" ry="12.5" style="stroke: #A80036; stroke-width: 1.5;" width="69" x="291" y="780.0078"/><text fill="#000000" font-family="sans-serif" font-size="14" lengthAdjust="spacingAndGlyphs" textLength="49" x="301" y="803.0029">Design</text><rect fill="#FEFECE" filter="url(#fe0xx7x67bom2)" height="36.2969" rx="12.5" ry="12.5" style="stroke: #A80036; stroke-width: 1.5;" width="89" x="410" y="751.8594"/><text fill="#000000" font-family="sans-serif" font-size="14" lengthAdjust="spacingAndGlyphs" textLength="69" x="420" y="774.8545">Adobe XD</text><path d="M360,798.1563 L370,798.1563 C385,798.1563 385,770.0078 400,770.0078 L410,770.0078 " fill="none" style="stroke: #A80036; stroke-width: 1.0;"/><rect fill="#FEFECE" filter="url(#fe0xx7x67bom2)" height="36.2969" rx="12.5" ry="12.5" style="stroke: #A80036; stroke-width: 1.5;" width="219" x="410" y="808.1563"/><text fill="#000000" font-family="sans-serif" font-size="14" lengthAdjust="spacingAndGlyphs" textLength="199" x="420" y="831.1514">Design System Management</text><path d="M360,798.1563 L370,798.1563 C385,798.1563 385,826.3047 400,826.3047 L410,826.3047 " fill="none" style="stroke: #A80036; stroke-width: 1.0;"/><path d="M241,657.4141 L251,657.4141 C266,657.4141 266,798.1563 281,798.1563 L291,798.1563 " fill="none" style="stroke: #A80036; stroke-width: 1.0;"/><rect fill="#FEFECE" filter="url(#fe0xx7x67bom2)" height="36.2969" rx="12.5" ry="12.5" style="stroke: #A80036; stroke-width: 1.5;" width="65" x="291" y="892.6016"/><text fill="#000000" font-family="sans-serif" font-size="14" lengthAdjust="spacingAndGlyphs" textLength="45" x="301" y="915.5967">Mobile</text><rect fill="#FEFECE" filter="url(#fe0xx7x67bom2)" height="36.2969" rx="12.5" ry="12.5" style="stroke: #A80036; stroke-width: 1.5;" width="64" x="406" y="864.4531"/><text fill="#000000" font-family="sans-serif" font-size="14" lengthAdjust="spacingAndGlyphs" textLength="44" x="416" y="887.4482">Flutter</text><path d="M356,910.75 L366,910.75 C381,910.75 381,882.6016 396,882.6016 L406,882.6016 " fill="none" style="stroke: #A80036; stroke-width: 1.0;"/><rect fill="#FEFECE" filter="url(#fe0xx7x67bom2)" height="36.2969" rx="12.5" ry="12.5" style="stroke: #A80036; stroke-width: 1.5;" width="78" x="406" y="920.75"/><text fill="#000000" font-family="sans-serif" font-size="14" lengthAdjust="spacingAndGlyphs" textLength="58" x="416" y="943.7451">Fastlane</text><path d="M356,910.75 L366,910.75 C381,910.75 381,938.8984 396,938.8984 L406,938.8984 " fill="none" style="stroke: #A80036; stroke-width: 1.0;"/><path d="M241,657.4141 L251,657.4141 C266,657.4141 266,910.75 281,910.75 L291,910.75 " fill="none" style="stroke: #A80036; stroke-width: 1.0;"/><path d="M111,488.5234 L121,488.5234 C136,488.5234 136,657.4141 151,657.4141 L161,657.4141 " fill="none" style="stroke: #A80036; stroke-width: 1.0;"/><!--MD5=[8a48631ad381fb8d62c11eb6c8e46a67]
@startmindmap Technology

* Technology
** Vision
*** Have fun with technology
*** Technology == hobby
*** Code less, more life 
*** Plan well and reuse 
*** Work in a way you like 
*** No force, no pushing
** Software
*** Backend
**** Flask (at early stage)
**** Go / GoMicro
**** gRPC
*** Frontend
**** Vue
**** BitDev
**** Monorepo
**** Atomic Design
*** Design
**** Adobe XD
**** Design System Management
*** Mobile
**** Flutter
**** Fastlane
 
@endmindmap

PlantUML version 1.2019.13(Tue Dec 10 17:18:29 UTC 2019)
(GPL source distribution)
Java Runtime: Java(TM) SE Runtime Environment
JVM: Java HotSpot(TM) 64-Bit Server VM
Java Version: 1.7.0_25-b15
Operating System: Linux
Default Encoding: UTF-8
Language: en
Country: US
--></g></svg>