<?xml version="1.0" encoding="UTF-8" standalone="no"?><svg xmlns="http://www.w3.org/2000/svg" xmlns:xlink="http://www.w3.org/1999/xlink" contentScriptType="application/ecmascript" contentStyleType="text/css" height="130px" preserveAspectRatio="none" style="width:166px;height:130px;" version="1.1" viewBox="0 0 166 130" width="166px" zoomAndPan="magnify"><defs><filter height="300%" id="f18luuy8lc0en3" width="300%" x="-1" y="-1"><feGaussianBlur result="blurOut" stdDeviation="2.0"/><feColorMatrix in="blurOut" result="blurOut2" type="matrix" values="0 0 0 0 0 0 0 0 0 0 0 0 0 0 0 0 0 0 .4 0"/><feOffset dx="4.0" dy="4.0" in="blurOut2" result="blurOut3"/><feBlend in="SourceGraphic" in2="blurOut3" mode="normal"/></filter></defs><g><!--MD5=[44e3be5e93100f87f3b6fc2e9bda0b10]
class e01--><rect fill="#FEFECE" filter="url(#f18luuy8lc0en3)" height="112.0234" id="e01" style="stroke: #A80036; stroke-width: 1.5;" width="148" x="7" y="7"/><ellipse cx="37.3" cy="23" fill="#ADD1B2" rx="11" ry="11" style="stroke: #A80036; stroke-width: 1.0;"/><path d="M35.5969,23.875 L35.5969,26.2969 L39.9563,26.2969 L39.9563,25.4219 C39.9563,24.9375 39.9875,24.7969 40.0969,24.6406 C40.2688,24.3906 40.5344,24.2813 40.8,24.2813 C41.0813,24.2813 41.3625,24.4375 41.5344,24.6875 C41.6125,24.8438 41.6438,24.9844 41.6438,25.4219 L41.6438,28 L33.6438,28 C33.2531,28 33.0188,27.9531 32.8781,27.8281 C32.6594,27.6719 32.5188,27.4219 32.5188,27.1563 C32.5188,26.8594 32.675,26.5938 32.925,26.4219 C33.0813,26.3125 33.2375,26.2969 33.6438,26.2969 L33.8938,26.2969 L33.8938,19.7813 L33.6438,19.7813 C33.2219,19.7813 33.0344,19.75 32.8781,19.6406 C32.6594,19.4688 32.5188,19.2188 32.5188,18.9375 C32.5188,18.6563 32.675,18.3594 32.925,18.2031 C33.0813,18.1094 33.2063,18.0938 33.6438,18.0938 L41.2688,18.0938 L41.2688,20.6406 C41.2688,21.1094 41.2375,21.25 41.1281,21.4219 C40.9563,21.6406 40.6906,21.7813 40.425,21.7813 C40.1438,21.7813 39.8625,21.625 39.6906,21.375 C39.6125,21.2188 39.5813,21.0469 39.5813,20.6406 L39.5813,19.7813 L35.5969,19.7813 L35.5969,22.1875 L37.05,22.1875 L37.05,22.0625 C37.05,21.6094 37.0813,21.4531 37.1906,21.2813 C37.3625,21.0625 37.6281,20.9219 37.8781,20.9219 C38.3313,20.9219 38.6438,21.2344 38.7063,21.7031 C38.7219,21.8594 38.7219,21.9063 38.7219,22.0625 L38.7219,23.9844 C38.7219,24.4375 38.6906,24.5938 38.5656,24.75 C38.4094,24.9688 38.1438,25.1094 37.8938,25.1094 C37.5969,25.1094 37.3156,24.9531 37.1594,24.7031 C37.0813,24.5469 37.05,24.3906 37.05,23.9844 L37.05,23.875 Z "/><text fill="#000000" font-family="sans-serif" font-size="12" lengthAdjust="spacingAndGlyphs" textLength="82" x="54.7" y="27.1543">ActivityPoints</text><line style="stroke: #A80036; stroke-width: 1.5;" x1="8" x2="154" y1="39" y2="39"/><ellipse cx="18" cy="50" fill="#000000" rx="3" ry="3" style="stroke: #000000; stroke-width: 1.0;"/><text fill="#000000" font-family="sans-serif" font-size="11" lengthAdjust="spacingAndGlyphs" textLength="122" x="27" y="53.2104">id : uuid «generated»</text><line style="stroke: #A80036; stroke-width: 1.0;" x1="8" x2="154" y1="59.8047" y2="59.8047"/><ellipse cx="18" cy="70.8047" fill="#000000" rx="3" ry="3" style="stroke: #000000; stroke-width: 1.0;"/><text fill="#000000" font-family="sans-serif" font-size="11" lengthAdjust="spacingAndGlyphs" textLength="86" x="27" y="74.0151">value : number</text><ellipse cx="18" cy="83.6094" fill="#000000" rx="3" ry="3" style="stroke: #000000; stroke-width: 1.0;"/><text fill="#000000" font-family="sans-serif" font-size="11" lengthAdjust="spacingAndGlyphs" textLength="91" x="27" y="86.8198">activity_id : uuid</text><ellipse cx="18" cy="96.4141" fill="#000000" rx="3" ry="3" style="stroke: #000000; stroke-width: 1.0;"/><text fill="#000000" font-family="sans-serif" font-size="11" lengthAdjust="spacingAndGlyphs" textLength="97" x="27" y="99.6245">created_at : data</text><ellipse cx="18" cy="109.2188" fill="#000000" rx="3" ry="3" style="stroke: #000000; stroke-width: 1.0;"/><text fill="#000000" font-family="sans-serif" font-size="11" lengthAdjust="spacingAndGlyphs" textLength="100" x="27" y="112.4292">updated_at : data</text><!--MD5=[1c66fd78e0cf0071aaeb3773b9e98c8b]
@startuml
entity "ActivityPoints" as e01 {
  * id : uuid <<generated>>
  - -
  * value : number
  * activity_id : uuid
  * created_at : data
  * updated_at : data 
}
@enduml

PlantUML version 1.2020.00(Sat Jan 11 12:30:53 UTC 2020)
(GPL source distribution)
Java Runtime: Java(TM) SE Runtime Environment
JVM: Java HotSpot(TM) 64-Bit Server VM
Java Version: 1.7.0_25-b15
Operating System: Linux
Default Encoding: UTF-8
Language: en
Country: US
--></g></svg>