<?xml version="1.0" encoding="UTF-8" standalone="no"?><svg xmlns="http://www.w3.org/2000/svg" xmlns:xlink="http://www.w3.org/1999/xlink" contentScriptType="application/ecmascript" contentStyleType="text/css" height="251px" preserveAspectRatio="none" style="width:360px;height:251px;" version="1.1" viewBox="0 0 360 251" width="360px" zoomAndPan="magnify"><defs><filter height="300%" id="fdsx0ksxecidu" width="300%" x="-1" y="-1"><feGaussianBlur result="blurOut" stdDeviation="2.0"/><feColorMatrix in="blurOut" result="blurOut2" type="matrix" values="0 0 0 0 0 0 0 0 0 0 0 0 0 0 0 0 0 0 .4 0"/><feOffset dx="4.0" dy="4.0" in="blurOut2" result="blurOut3"/><feBlend in="SourceGraphic" in2="blurOut3" mode="normal"/></filter></defs><g><!--MD5=[6a303f703b72e8dc3683c1809e3ee95f]
class CheckoutPayment--><rect fill="#FEFECE" filter="url(#fdsx0ksxecidu)" height="73.6094" id="CheckoutPayment" style="stroke: #A80036; stroke-width: 1.5;" width="145" x="18.5" y="14"/><ellipse cx="33.5" cy="30" fill="#ADD1B2" rx="11" ry="11" style="stroke: #A80036; stroke-width: 1.0;"/><path d="M35.8438,25.6719 L36.0156,25.75 C36.2344,25.4375 36.4375,25.3438 36.7344,25.3438 C37.0313,25.3438 37.3125,25.4844 37.4688,25.75 C37.5625,25.9063 37.5781,26.0313 37.5781,26.4688 L37.5781,27.8906 C37.5781,28.3125 37.5469,28.5 37.4375,28.6563 C37.2656,28.875 37,29.0156 36.7344,29.0156 C36.5156,29.0156 36.2813,28.9063 36.1406,28.7656 C36,28.6406 35.9688,28.5156 35.9063,28.1094 C35.8125,27.7031 35.6406,27.4844 35.1563,27.2031 C34.6875,26.9531 34.0781,26.7969 33.5,26.7969 C31.7656,26.7969 30.5156,28.1094 30.5156,29.8906 L30.5156,30.9844 C30.5156,32.6875 31.8125,33.7813 33.8594,33.7813 C34.625,33.7813 35.3125,33.6563 35.7344,33.3906 C35.9219,33.2969 35.9219,33.2969 36.375,32.8125 C36.5625,32.625 36.7656,32.5469 36.9844,32.5469 C37.4531,32.5469 37.8438,32.9375 37.8438,33.3906 C37.8438,33.7813 37.5156,34.2344 36.9375,34.6406 C36.1875,35.1875 35.0313,35.4844 33.8125,35.4844 C30.9219,35.4844 28.8125,33.5938 28.8125,31.0156 L28.8125,29.8906 C28.8125,27.1719 30.8125,25.0938 33.4375,25.0938 C34.3125,25.0938 34.9063,25.2344 35.8438,25.6719 Z "/><text fill="#000000" font-family="sans-serif" font-size="12" lengthAdjust="spacingAndGlyphs" textLength="113" x="47.5" y="34.1543">CheckoutPayment</text><line style="stroke: #A80036; stroke-width: 1.5;" x1="19.5" x2="162.5" y1="46" y2="46"/><text fill="#000000" font-family="sans-serif" font-size="11" lengthAdjust="spacingAndGlyphs" textLength="43" x="24.5" y="60.2104">id: Uuid</text><text fill="#000000" font-family="sans-serif" font-size="11" lengthAdjust="spacingAndGlyphs" textLength="125" x="24.5" y="73.0151">stripePaymentId: Uuid</text><line style="stroke: #A80036; stroke-width: 1.5;" x1="19.5" x2="162.5" y1="79.6094" y2="79.6094"/><!--MD5=[5e423162b4cb0b26aee4cb947602bdf7]
class CheckoutCustomer--><rect fill="#FEFECE" filter="url(#fdsx0ksxecidu)" height="86.4141" id="CheckoutCustomer" style="stroke: #A80036; stroke-width: 1.5;" width="151" x="198.5" y="8"/><ellipse cx="213.5" cy="24" fill="#ADD1B2" rx="11" ry="11" style="stroke: #A80036; stroke-width: 1.0;"/><path d="M215.8438,19.6719 L216.0156,19.75 C216.2344,19.4375 216.4375,19.3438 216.7344,19.3438 C217.0313,19.3438 217.3125,19.4844 217.4688,19.75 C217.5625,19.9063 217.5781,20.0313 217.5781,20.4688 L217.5781,21.8906 C217.5781,22.3125 217.5469,22.5 217.4375,22.6563 C217.2656,22.875 217,23.0156 216.7344,23.0156 C216.5156,23.0156 216.2813,22.9063 216.1406,22.7656 C216,22.6406 215.9688,22.5156 215.9063,22.1094 C215.8125,21.7031 215.6406,21.4844 215.1563,21.2031 C214.6875,20.9531 214.0781,20.7969 213.5,20.7969 C211.7656,20.7969 210.5156,22.1094 210.5156,23.8906 L210.5156,24.9844 C210.5156,26.6875 211.8125,27.7813 213.8594,27.7813 C214.625,27.7813 215.3125,27.6563 215.7344,27.3906 C215.9219,27.2969 215.9219,27.2969 216.375,26.8125 C216.5625,26.625 216.7656,26.5469 216.9844,26.5469 C217.4531,26.5469 217.8438,26.9375 217.8438,27.3906 C217.8438,27.7813 217.5156,28.2344 216.9375,28.6406 C216.1875,29.1875 215.0313,29.4844 213.8125,29.4844 C210.9219,29.4844 208.8125,27.5938 208.8125,25.0156 L208.8125,23.8906 C208.8125,21.1719 210.8125,19.0938 213.4375,19.0938 C214.3125,19.0938 214.9063,19.2344 215.8438,19.6719 Z "/><text fill="#000000" font-family="sans-serif" font-size="12" lengthAdjust="spacingAndGlyphs" textLength="119" x="227.5" y="28.1543">CheckoutCustomer</text><line style="stroke: #A80036; stroke-width: 1.5;" x1="199.5" x2="348.5" y1="40" y2="40"/><text fill="#000000" font-family="sans-serif" font-size="11" lengthAdjust="spacingAndGlyphs" textLength="43" x="204.5" y="54.2104">id: Uuid</text><text fill="#000000" font-family="sans-serif" font-size="11" lengthAdjust="spacingAndGlyphs" textLength="132" x="204.5" y="67.0151">stripeCustomerId: Uuid</text><text fill="#000000" font-family="sans-serif" font-size="11" lengthAdjust="spacingAndGlyphs" textLength="69" x="204.5" y="79.8198">userId: Uuid</text><line style="stroke: #A80036; stroke-width: 1.5;" x1="199.5" x2="348.5" y1="86.4141" y2="86.4141"/><!--MD5=[abdf7627d1e24c26ebadab8e3795f154]
class CheckoutOrder--><rect fill="#FEFECE" filter="url(#fdsx0ksxecidu)" height="86.4141" id="CheckoutOrder" style="stroke: #A80036; stroke-width: 1.5;" width="170" x="6" y="154"/><ellipse cx="40.8" cy="170" fill="#ADD1B2" rx="11" ry="11" style="stroke: #A80036; stroke-width: 1.0;"/><path d="M43.1438,165.6719 L43.3156,165.75 C43.5344,165.4375 43.7375,165.3438 44.0344,165.3438 C44.3313,165.3438 44.6125,165.4844 44.7688,165.75 C44.8625,165.9063 44.8781,166.0313 44.8781,166.4688 L44.8781,167.8906 C44.8781,168.3125 44.8469,168.5 44.7375,168.6563 C44.5656,168.875 44.3,169.0156 44.0344,169.0156 C43.8156,169.0156 43.5813,168.9063 43.4406,168.7656 C43.3,168.6406 43.2688,168.5156 43.2063,168.1094 C43.1125,167.7031 42.9406,167.4844 42.4563,167.2031 C41.9875,166.9531 41.3781,166.7969 40.8,166.7969 C39.0656,166.7969 37.8156,168.1094 37.8156,169.8906 L37.8156,170.9844 C37.8156,172.6875 39.1125,173.7813 41.1594,173.7813 C41.925,173.7813 42.6125,173.6563 43.0344,173.3906 C43.2219,173.2969 43.2219,173.2969 43.675,172.8125 C43.8625,172.625 44.0656,172.5469 44.2844,172.5469 C44.7531,172.5469 45.1438,172.9375 45.1438,173.3906 C45.1438,173.7813 44.8156,174.2344 44.2375,174.6406 C43.4875,175.1875 42.3313,175.4844 41.1125,175.4844 C38.2219,175.4844 36.1125,173.5938 36.1125,171.0156 L36.1125,169.8906 C36.1125,167.1719 38.1125,165.0938 40.7375,165.0938 C41.6125,165.0938 42.2063,165.2344 43.1438,165.6719 Z "/><text fill="#000000" font-family="sans-serif" font-size="12" lengthAdjust="spacingAndGlyphs" textLength="94" x="59.2" y="174.1543">CheckoutOrder</text><line style="stroke: #A80036; stroke-width: 1.5;" x1="7" x2="175" y1="186" y2="186"/><text fill="#000000" font-family="sans-serif" font-size="11" lengthAdjust="spacingAndGlyphs" textLength="43" x="12" y="200.2104">id: Uuid</text><text fill="#000000" font-family="sans-serif" font-size="11" lengthAdjust="spacingAndGlyphs" textLength="86" x="12" y="213.0151">productId: Uuid</text><text fill="#000000" font-family="sans-serif" font-size="11" lengthAdjust="spacingAndGlyphs" textLength="158" x="12" y="225.8198">payment: CheckoutPayment</text><line style="stroke: #A80036; stroke-width: 1.5;" x1="7" x2="175" y1="232.4141" y2="232.4141"/><!--MD5=[a229d7e398f2abf60a0098dc19f227de]
link CheckoutPayment to CheckoutCustomer--><!--MD5=[81947a494ceddf9622ad417bd49ed5ca]
link CheckoutPayment to CheckoutOrder--><!--MD5=[9e528bf689269eb802745b05bb0e7855]
@startuml
class CheckoutPayment {
  id: Uuid
  stripePaymentId: Uuid
}

class CheckoutCustomer {
  id: Uuid
  stripeCustomerId: Uuid
  userId: Uuid
}

class CheckoutOrder {
  id: Uuid
  productId: Uuid
  payment: CheckoutPayment
}
@enduml

PlantUML version 1.2019.13(Tue Dec 10 17:18:29 UTC 2019)
(GPL source distribution)
Java Runtime: Java(TM) SE Runtime Environment
JVM: Java HotSpot(TM) 64-Bit Server VM
Java Version: 1.7.0_25-b15
Operating System: Linux
Default Encoding: UTF-8
Language: en
Country: US
--></g></svg>