<?xml version="1.0" encoding="UTF-8" standalone="no"?><svg xmlns="http://www.w3.org/2000/svg" xmlns:xlink="http://www.w3.org/1999/xlink" contentScriptType="application/ecmascript" contentStyleType="text/css" height="130px" preserveAspectRatio="none" style="width:157px;height:130px;" version="1.1" viewBox="0 0 157 130" width="157px" zoomAndPan="magnify"><defs><filter height="300%" id="f12tpu7e4uz1wz" width="300%" x="-1" y="-1"><feGaussianBlur result="blurOut" stdDeviation="2.0"/><feColorMatrix in="blurOut" result="blurOut2" type="matrix" values="0 0 0 0 0 0 0 0 0 0 0 0 0 0 0 0 0 0 .4 0"/><feOffset dx="4.0" dy="4.0" in="blurOut2" result="blurOut3"/><feBlend in="SourceGraphic" in2="blurOut3" mode="normal"/></filter></defs><g><!--MD5=[3fd616f346a44cd59a91eb10b19e157c]
class User--><rect fill="#FEFECE" filter="url(#f12tpu7e4uz1wz)" height="112.0234" id="User" style="stroke: #A80036; stroke-width: 1.5;" width="139" x="7" y="7"/><ellipse cx="57.75" cy="23" fill="#ADD1B2" rx="11" ry="11" style="stroke: #A80036; stroke-width: 1.0;"/><path d="M60.0938,18.6719 L60.2656,18.75 C60.4844,18.4375 60.6875,18.3438 60.9844,18.3438 C61.2813,18.3438 61.5625,18.4844 61.7188,18.75 C61.8125,18.9063 61.8281,19.0313 61.8281,19.4688 L61.8281,20.8906 C61.8281,21.3125 61.7969,21.5 61.6875,21.6563 C61.5156,21.875 61.25,22.0156 60.9844,22.0156 C60.7656,22.0156 60.5313,21.9063 60.3906,21.7656 C60.25,21.6406 60.2188,21.5156 60.1563,21.1094 C60.0625,20.7031 59.8906,20.4844 59.4063,20.2031 C58.9375,19.9531 58.3281,19.7969 57.75,19.7969 C56.0156,19.7969 54.7656,21.1094 54.7656,22.8906 L54.7656,23.9844 C54.7656,25.6875 56.0625,26.7813 58.1094,26.7813 C58.875,26.7813 59.5625,26.6563 59.9844,26.3906 C60.1719,26.2969 60.1719,26.2969 60.625,25.8125 C60.8125,25.625 61.0156,25.5469 61.2344,25.5469 C61.7031,25.5469 62.0938,25.9375 62.0938,26.3906 C62.0938,26.7813 61.7656,27.2344 61.1875,27.6406 C60.4375,28.1875 59.2813,28.4844 58.0625,28.4844 C55.1719,28.4844 53.0625,26.5938 53.0625,24.0156 L53.0625,22.8906 C53.0625,20.1719 55.0625,18.0938 57.6875,18.0938 C58.5625,18.0938 59.1563,18.2344 60.0938,18.6719 Z "/><text fill="#000000" font-family="sans-serif" font-size="12" lengthAdjust="spacingAndGlyphs" textLength="29" x="78.25" y="27.1543">User</text><line style="stroke: #A80036; stroke-width: 1.5;" x1="8" x2="145" y1="39" y2="39"/><text fill="#000000" font-family="sans-serif" font-size="11" lengthAdjust="spacingAndGlyphs" textLength="43" x="13" y="53.2104">id: Uuid</text><text fill="#000000" font-family="sans-serif" font-size="11" lengthAdjust="spacingAndGlyphs" textLength="98" x="13" y="66.0151">firstName: String</text><text fill="#000000" font-family="sans-serif" font-size="11" lengthAdjust="spacingAndGlyphs" textLength="96" x="13" y="78.8198">lastName: String</text><text fill="#000000" font-family="sans-serif" font-size="11" lengthAdjust="spacingAndGlyphs" textLength="73" x="13" y="91.6245">email: String</text><text fill="#000000" font-family="sans-serif" font-size="11" lengthAdjust="spacingAndGlyphs" textLength="127" x="13" y="104.4292">passwordHash: String</text><line style="stroke: #A80036; stroke-width: 1.5;" x1="8" x2="145" y1="111.0234" y2="111.0234"/><!--MD5=[7c1d2266bb3b2fdd4d2cccb2f8503cfb]
@startuml
class User {
  id: Uuid
  firstName: String
  lastName: String
  email: String
  passwordHash: String
}
@enduml

PlantUML version 1.2019.13(Tue Dec 10 17:18:29 UTC 2019)
(GPL source distribution)
Java Runtime: Java(TM) SE Runtime Environment
JVM: Java HotSpot(TM) 64-Bit Server VM
Java Version: 1.7.0_25-b15
Operating System: Linux
Default Encoding: UTF-8
Language: en
Country: US
--></g></svg>