<?xml version="1.0" encoding="UTF-8" standalone="no"?><svg xmlns="http://www.w3.org/2000/svg" xmlns:xlink="http://www.w3.org/1999/xlink" contentScriptType="application/ecmascript" contentStyleType="text/css" height="306px" preserveAspectRatio="none" style="width:399px;height:306px;" version="1.1" viewBox="0 0 399 306" width="399px" zoomAndPan="magnify"><defs><filter height="300%" id="fpmoo5nd9nzn7" width="300%" x="-1" y="-1"><feGaussianBlur result="blurOut" stdDeviation="2.0"/><feColorMatrix in="blurOut" result="blurOut2" type="matrix" values="0 0 0 0 0 0 0 0 0 0 0 0 0 0 0 0 0 0 .4 0"/><feOffset dx="4.0" dy="4.0" in="blurOut2" result="blurOut3"/><feBlend in="SourceGraphic" in2="blurOut3" mode="normal"/></filter></defs><g><!--MD5=[8d82b504b58c2fac8ac5760159ea733e]
class ChatRoom--><rect fill="#FEFECE" filter="url(#fpmoo5nd9nzn7)" height="86.4141" id="ChatRoom" style="stroke: #A80036; stroke-width: 1.5;" width="131" x="127" y="8"/><ellipse cx="157.75" cy="24" fill="#ADD1B2" rx="11" ry="11" style="stroke: #A80036; stroke-width: 1.0;"/><path d="M160.0938,19.6719 L160.2656,19.75 C160.4844,19.4375 160.6875,19.3438 160.9844,19.3438 C161.2813,19.3438 161.5625,19.4844 161.7188,19.75 C161.8125,19.9063 161.8281,20.0313 161.8281,20.4688 L161.8281,21.8906 C161.8281,22.3125 161.7969,22.5 161.6875,22.6563 C161.5156,22.875 161.25,23.0156 160.9844,23.0156 C160.7656,23.0156 160.5313,22.9063 160.3906,22.7656 C160.25,22.6406 160.2188,22.5156 160.1563,22.1094 C160.0625,21.7031 159.8906,21.4844 159.4063,21.2031 C158.9375,20.9531 158.3281,20.7969 157.75,20.7969 C156.0156,20.7969 154.7656,22.1094 154.7656,23.8906 L154.7656,24.9844 C154.7656,26.6875 156.0625,27.7813 158.1094,27.7813 C158.875,27.7813 159.5625,27.6563 159.9844,27.3906 C160.1719,27.2969 160.1719,27.2969 160.625,26.8125 C160.8125,26.625 161.0156,26.5469 161.2344,26.5469 C161.7031,26.5469 162.0938,26.9375 162.0938,27.3906 C162.0938,27.7813 161.7656,28.2344 161.1875,28.6406 C160.4375,29.1875 159.2813,29.4844 158.0625,29.4844 C155.1719,29.4844 153.0625,27.5938 153.0625,25.0156 L153.0625,23.8906 C153.0625,21.1719 155.0625,19.0938 157.6875,19.0938 C158.5625,19.0938 159.1563,19.2344 160.0938,19.6719 Z "/><text fill="#000000" font-family="sans-serif" font-size="12" lengthAdjust="spacingAndGlyphs" textLength="64" x="175.25" y="28.1543">ChatRoom</text><line style="stroke: #A80036; stroke-width: 1.5;" x1="128" x2="257" y1="40" y2="40"/><text fill="#000000" font-family="sans-serif" font-size="11" lengthAdjust="spacingAndGlyphs" textLength="43" x="133" y="54.2104">id: Uuid</text><text fill="#000000" font-family="sans-serif" font-size="11" lengthAdjust="spacingAndGlyphs" textLength="116" x="133" y="67.0151">createdAt: DateTime</text><text fill="#000000" font-family="sans-serif" font-size="11" lengthAdjust="spacingAndGlyphs" textLength="119" x="133" y="79.8198">updatedAt: DateTime</text><line style="stroke: #A80036; stroke-width: 1.5;" x1="128" x2="257" y1="86.4141" y2="86.4141"/><!--MD5=[e3370b7491bf3a88b8f7499002dcd8bf]
class ChatRoles--><rect fill="#FEFECE" filter="url(#fpmoo5nd9nzn7)" height="73.6094" id="ChatRoles" style="stroke: #A80036; stroke-width: 1.5;" width="95" x="293" y="14"/><ellipse cx="308" cy="30" fill="#EB937F" rx="11" ry="11" style="stroke: #A80036; stroke-width: 1.0;"/><path d="M306.2969,30.875 L306.2969,33.2969 L310.6563,33.2969 L310.6563,32.4219 C310.6563,31.9375 310.6875,31.7969 310.7969,31.6406 C310.9688,31.3906 311.2344,31.2813 311.5,31.2813 C311.7813,31.2813 312.0625,31.4375 312.2344,31.6875 C312.3125,31.8438 312.3438,31.9844 312.3438,32.4219 L312.3438,35 L304.3438,35 C303.9531,35 303.7188,34.9531 303.5781,34.8281 C303.3594,34.6719 303.2188,34.4219 303.2188,34.1563 C303.2188,33.8594 303.375,33.5938 303.625,33.4219 C303.7813,33.3125 303.9375,33.2969 304.3438,33.2969 L304.5938,33.2969 L304.5938,26.7813 L304.3438,26.7813 C303.9219,26.7813 303.7344,26.75 303.5781,26.6406 C303.3594,26.4688 303.2188,26.2188 303.2188,25.9375 C303.2188,25.6563 303.375,25.3594 303.625,25.2031 C303.7813,25.1094 303.9063,25.0938 304.3438,25.0938 L311.9688,25.0938 L311.9688,27.6406 C311.9688,28.1094 311.9375,28.25 311.8281,28.4219 C311.6563,28.6406 311.3906,28.7813 311.125,28.7813 C310.8438,28.7813 310.5625,28.625 310.3906,28.375 C310.3125,28.2188 310.2813,28.0469 310.2813,27.6406 L310.2813,26.7813 L306.2969,26.7813 L306.2969,29.1875 L307.75,29.1875 L307.75,29.0625 C307.75,28.6094 307.7813,28.4531 307.8906,28.2813 C308.0625,28.0625 308.3281,27.9219 308.5781,27.9219 C309.0313,27.9219 309.3438,28.2344 309.4063,28.7031 C309.4219,28.8594 309.4219,28.9063 309.4219,29.0625 L309.4219,30.9844 C309.4219,31.4375 309.3906,31.5938 309.2656,31.75 C309.1094,31.9688 308.8438,32.1094 308.5938,32.1094 C308.2969,32.1094 308.0156,31.9531 307.8594,31.7031 C307.7813,31.5469 307.75,31.3906 307.75,30.9844 L307.75,30.875 Z "/><text fill="#000000" font-family="sans-serif" font-size="12" lengthAdjust="spacingAndGlyphs" textLength="63" x="322" y="34.1543">ChatRoles</text><line style="stroke: #A80036; stroke-width: 1.5;" x1="294" x2="387" y1="46" y2="46"/><text fill="#000000" font-family="sans-serif" font-size="11" lengthAdjust="spacingAndGlyphs" textLength="35" x="299" y="60.2104">Admin</text><text fill="#000000" font-family="sans-serif" font-size="11" lengthAdjust="spacingAndGlyphs" textLength="27" x="299" y="73.0151">User</text><line style="stroke: #A80036; stroke-width: 1.5;" x1="294" x2="387" y1="79.6094" y2="79.6094"/><!--MD5=[e35fb0d8a4ea12f16a48c426f9d5bd1d]
class ChatRoomParticipation--><rect fill="#FEFECE" filter="url(#fpmoo5nd9nzn7)" height="124.8281" id="ChatRoomParticipation" style="stroke: #A80036; stroke-width: 1.5;" width="175" x="6" y="171"/><ellipse cx="21" cy="187" fill="#ADD1B2" rx="11" ry="11" style="stroke: #A80036; stroke-width: 1.0;"/><path d="M23.3438,182.6719 L23.5156,182.75 C23.7344,182.4375 23.9375,182.3438 24.2344,182.3438 C24.5313,182.3438 24.8125,182.4844 24.9688,182.75 C25.0625,182.9063 25.0781,183.0313 25.0781,183.4688 L25.0781,184.8906 C25.0781,185.3125 25.0469,185.5 24.9375,185.6563 C24.7656,185.875 24.5,186.0156 24.2344,186.0156 C24.0156,186.0156 23.7813,185.9063 23.6406,185.7656 C23.5,185.6406 23.4688,185.5156 23.4063,185.1094 C23.3125,184.7031 23.1406,184.4844 22.6563,184.2031 C22.1875,183.9531 21.5781,183.7969 21,183.7969 C19.2656,183.7969 18.0156,185.1094 18.0156,186.8906 L18.0156,187.9844 C18.0156,189.6875 19.3125,190.7813 21.3594,190.7813 C22.125,190.7813 22.8125,190.6563 23.2344,190.3906 C23.4219,190.2969 23.4219,190.2969 23.875,189.8125 C24.0625,189.625 24.2656,189.5469 24.4844,189.5469 C24.9531,189.5469 25.3438,189.9375 25.3438,190.3906 C25.3438,190.7813 25.0156,191.2344 24.4375,191.6406 C23.6875,192.1875 22.5313,192.4844 21.3125,192.4844 C18.4219,192.4844 16.3125,190.5938 16.3125,188.0156 L16.3125,186.8906 C16.3125,184.1719 18.3125,182.0938 20.9375,182.0938 C21.8125,182.0938 22.4063,182.2344 23.3438,182.6719 Z "/><text fill="#000000" font-family="sans-serif" font-size="12" lengthAdjust="spacingAndGlyphs" textLength="143" x="35" y="191.1543">ChatRoomParticipation</text><line style="stroke: #A80036; stroke-width: 1.5;" x1="7" x2="180" y1="203" y2="203"/><text fill="#000000" font-family="sans-serif" font-size="11" lengthAdjust="spacingAndGlyphs" textLength="43" x="12" y="217.2104">id: Uuid</text><text fill="#000000" font-family="sans-serif" font-size="11" lengthAdjust="spacingAndGlyphs" textLength="69" x="12" y="230.0151">userId: Uuid</text><text fill="#000000" font-family="sans-serif" font-size="11" lengthAdjust="spacingAndGlyphs" textLength="87" x="12" y="242.8198">role: ChatRoles</text><text fill="#000000" font-family="sans-serif" font-size="11" lengthAdjust="spacingAndGlyphs" textLength="96" x="12" y="255.6245">room: ChatRoom</text><text fill="#000000" font-family="sans-serif" font-size="11" lengthAdjust="spacingAndGlyphs" textLength="116" x="12" y="268.4292">createdAt: DateTime</text><text fill="#000000" font-family="sans-serif" font-size="11" lengthAdjust="spacingAndGlyphs" textLength="119" x="12" y="281.2339">updatedAt: DateTime</text><line style="stroke: #A80036; stroke-width: 1.5;" x1="7" x2="180" y1="287.8281" y2="287.8281"/><!--MD5=[825d8f9934a0a39f4af751f96ebc9deb]
class ChatRoomMessage--><rect fill="#FEFECE" filter="url(#fpmoo5nd9nzn7)" height="124.8281" id="ChatRoomMessage" style="stroke: #A80036; stroke-width: 1.5;" width="152" x="216.5" y="171"/><ellipse cx="231.5" cy="187" fill="#ADD1B2" rx="11" ry="11" style="stroke: #A80036; stroke-width: 1.0;"/><path d="M233.8438,182.6719 L234.0156,182.75 C234.2344,182.4375 234.4375,182.3438 234.7344,182.3438 C235.0313,182.3438 235.3125,182.4844 235.4688,182.75 C235.5625,182.9063 235.5781,183.0313 235.5781,183.4688 L235.5781,184.8906 C235.5781,185.3125 235.5469,185.5 235.4375,185.6563 C235.2656,185.875 235,186.0156 234.7344,186.0156 C234.5156,186.0156 234.2813,185.9063 234.1406,185.7656 C234,185.6406 233.9688,185.5156 233.9063,185.1094 C233.8125,184.7031 233.6406,184.4844 233.1563,184.2031 C232.6875,183.9531 232.0781,183.7969 231.5,183.7969 C229.7656,183.7969 228.5156,185.1094 228.5156,186.8906 L228.5156,187.9844 C228.5156,189.6875 229.8125,190.7813 231.8594,190.7813 C232.625,190.7813 233.3125,190.6563 233.7344,190.3906 C233.9219,190.2969 233.9219,190.2969 234.375,189.8125 C234.5625,189.625 234.7656,189.5469 234.9844,189.5469 C235.4531,189.5469 235.8438,189.9375 235.8438,190.3906 C235.8438,190.7813 235.5156,191.2344 234.9375,191.6406 C234.1875,192.1875 233.0313,192.4844 231.8125,192.4844 C228.9219,192.4844 226.8125,190.5938 226.8125,188.0156 L226.8125,186.8906 C226.8125,184.1719 228.8125,182.0938 231.4375,182.0938 C232.3125,182.0938 232.9063,182.2344 233.8438,182.6719 Z "/><text fill="#000000" font-family="sans-serif" font-size="12" lengthAdjust="spacingAndGlyphs" textLength="120" x="245.5" y="191.1543">ChatRoomMessage</text><line style="stroke: #A80036; stroke-width: 1.5;" x1="217.5" x2="367.5" y1="203" y2="203"/><text fill="#000000" font-family="sans-serif" font-size="11" lengthAdjust="spacingAndGlyphs" textLength="43" x="222.5" y="217.2104">id: Uuid</text><text fill="#000000" font-family="sans-serif" font-size="11" lengthAdjust="spacingAndGlyphs" textLength="63" x="222.5" y="230.0151">text: String</text><text fill="#000000" font-family="sans-serif" font-size="11" lengthAdjust="spacingAndGlyphs" textLength="80" x="222.5" y="242.8198">authorId: Uuid</text><text fill="#000000" font-family="sans-serif" font-size="11" lengthAdjust="spacingAndGlyphs" textLength="96" x="222.5" y="255.6245">room: ChatRoom</text><text fill="#000000" font-family="sans-serif" font-size="11" lengthAdjust="spacingAndGlyphs" textLength="116" x="222.5" y="268.4292">createdAt: DateTime</text><text fill="#000000" font-family="sans-serif" font-size="11" lengthAdjust="spacingAndGlyphs" textLength="119" x="222.5" y="281.2339">updatedAt: DateTime</text><line style="stroke: #A80036; stroke-width: 1.5;" x1="217.5" x2="367.5" y1="287.8281" y2="287.8281"/><!--MD5=[ee1053e4ba348c4bce8350b52bea2e3b]
reverse link ChatRoom to ChatRoomParticipation--><path d="M159.126,111.976 C156.88,116.043 154.655,120.08 152.5,124 C144.186,139.126 135.267,155.468 126.945,170.765 " fill="none" id="ChatRoom&lt;-ChatRoomParticipation" style="stroke: #A80036; stroke-width: 1.0;"/><polygon fill="none" points="153.145,108.329,168.958,94.225,165.392,115.112,153.145,108.329" style="stroke: #A80036; stroke-width: 1.0;"/><text fill="#000000" font-family="sans-serif" font-size="13" lengthAdjust="spacingAndGlyphs" textLength="95" x="153.5" y="137.0669">participated by</text><!--MD5=[24404e4e428614d709a6a9d8d281bb01]
reverse link ChatRoom to ChatRoomMessage--><path d="M245,110.689 C248.048,115.073 250.918,119.532 253.5,124 C261.862,138.472 268.919,155.046 274.631,170.811 " fill="none" id="ChatRoom&lt;-ChatRoomMessage" style="stroke: #A80036; stroke-width: 1.0;"/><polygon fill="none" points="239.077,114.462,232.592,94.289,250.241,106.015,239.077,114.462" style="stroke: #A80036; stroke-width: 1.0;"/><text fill="#000000" font-family="sans-serif" font-size="13" lengthAdjust="spacingAndGlyphs" textLength="58" x="263.5" y="137.0669">written in</text><!--MD5=[fd81d71a221ffdc945dd3d3f0fba2243]
@startuml
class ChatRoom {
  id: Uuid
  createdAt: DateTime
  updatedAt: DateTime
}

enum ChatRoles {
  Admin
  User
}

class ChatRoomParticipation {
  id: Uuid
  userId: Uuid
  role: ChatRoles
  room: ChatRoom
  createdAt: DateTime
  updatedAt: DateTime
}

class ChatRoomMessage {
  id: Uuid
  text: String
  authorId: Uuid
  room: ChatRoom
  createdAt: DateTime
  updatedAt: DateTime
}

ChatRoom <|- - ChatRoomParticipation : participated by
ChatRoom <|- - ChatRoomMessage : written in
@enduml

PlantUML version 1.2019.13(Tue Dec 10 17:18:29 UTC 2019)
(GPL source distribution)
Java Runtime: Java(TM) SE Runtime Environment
JVM: Java HotSpot(TM) 64-Bit Server VM
Java Version: 1.7.0_25-b15
Operating System: Linux
Default Encoding: UTF-8
Language: en
Country: US
--></g></svg>