<?xml version="1.0" encoding="UTF-8" standalone="no"?><svg xmlns="http://www.w3.org/2000/svg" xmlns:xlink="http://www.w3.org/1999/xlink" contentScriptType="application/ecmascript" contentStyleType="text/css" height="560px" preserveAspectRatio="none" style="width:313px;height:560px;" version="1.1" viewBox="0 0 313 560" width="313px" zoomAndPan="magnify"><defs><filter height="300%" id="f1s1lrck6z6fdn" width="300%" x="-1" y="-1"><feGaussianBlur result="blurOut" stdDeviation="2.0"/><feColorMatrix in="blurOut" result="blurOut2" type="matrix" values="0 0 0 0 0 0 0 0 0 0 0 0 0 0 0 0 0 0 .4 0"/><feOffset dx="4.0" dy="4.0" in="blurOut2" result="blurOut3"/><feBlend in="SourceGraphic" in2="blurOut3" mode="normal"/></filter></defs><g><!--MD5=[3492c9cfc0f6cd990abee700d172ce18]
class ServiceCategory--><rect fill="#FEFECE" filter="url(#f1s1lrck6z6fdn)" height="73.6094" id="ServiceCategory" style="stroke: #A80036; stroke-width: 1.5;" width="133" x="6" y="462.5"/><ellipse cx="21" cy="478.5" fill="#ADD1B2" rx="11" ry="11" style="stroke: #A80036; stroke-width: 1.0;"/><path d="M23.3438,474.1719 L23.5156,474.25 C23.7344,473.9375 23.9375,473.8438 24.2344,473.8438 C24.5313,473.8438 24.8125,473.9844 24.9688,474.25 C25.0625,474.4063 25.0781,474.5313 25.0781,474.9688 L25.0781,476.3906 C25.0781,476.8125 25.0469,477 24.9375,477.1563 C24.7656,477.375 24.5,477.5156 24.2344,477.5156 C24.0156,477.5156 23.7813,477.4063 23.6406,477.2656 C23.5,477.1406 23.4688,477.0156 23.4063,476.6094 C23.3125,476.2031 23.1406,475.9844 22.6563,475.7031 C22.1875,475.4531 21.5781,475.2969 21,475.2969 C19.2656,475.2969 18.0156,476.6094 18.0156,478.3906 L18.0156,479.4844 C18.0156,481.1875 19.3125,482.2813 21.3594,482.2813 C22.125,482.2813 22.8125,482.1563 23.2344,481.8906 C23.4219,481.7969 23.4219,481.7969 23.875,481.3125 C24.0625,481.125 24.2656,481.0469 24.4844,481.0469 C24.9531,481.0469 25.3438,481.4375 25.3438,481.8906 C25.3438,482.2813 25.0156,482.7344 24.4375,483.1406 C23.6875,483.6875 22.5313,483.9844 21.3125,483.9844 C18.4219,483.9844 16.3125,482.0938 16.3125,479.5156 L16.3125,478.3906 C16.3125,475.6719 18.3125,473.5938 20.9375,473.5938 C21.8125,473.5938 22.4063,473.7344 23.3438,474.1719 Z "/><text fill="#000000" font-family="sans-serif" font-size="12" lengthAdjust="spacingAndGlyphs" textLength="101" x="35" y="482.6543">ServiceCategory</text><line style="stroke: #A80036; stroke-width: 1.5;" x1="7" x2="138" y1="494.5" y2="494.5"/><text fill="#000000" font-family="sans-serif" font-size="11" lengthAdjust="spacingAndGlyphs" textLength="43" x="12" y="508.7104">id: Uuid</text><text fill="#000000" font-family="sans-serif" font-size="11" lengthAdjust="spacingAndGlyphs" textLength="74" x="12" y="521.5151">name: String</text><line style="stroke: #A80036; stroke-width: 1.5;" x1="7" x2="138" y1="528.1094" y2="528.1094"/><!--MD5=[428d22d350d9880e10e0ddd45e620f15]
class ServiceProvider--><rect fill="#FEFECE" filter="url(#f1s1lrck6z6fdn)" height="99.2188" id="ServiceProvider" style="stroke: #A80036; stroke-width: 1.5;" width="128" x="174.5" y="450"/><ellipse cx="189.5" cy="466" fill="#ADD1B2" rx="11" ry="11" style="stroke: #A80036; stroke-width: 1.0;"/><path d="M191.8438,461.6719 L192.0156,461.75 C192.2344,461.4375 192.4375,461.3438 192.7344,461.3438 C193.0313,461.3438 193.3125,461.4844 193.4688,461.75 C193.5625,461.9063 193.5781,462.0313 193.5781,462.4688 L193.5781,463.8906 C193.5781,464.3125 193.5469,464.5 193.4375,464.6563 C193.2656,464.875 193,465.0156 192.7344,465.0156 C192.5156,465.0156 192.2813,464.9063 192.1406,464.7656 C192,464.6406 191.9688,464.5156 191.9063,464.1094 C191.8125,463.7031 191.6406,463.4844 191.1563,463.2031 C190.6875,462.9531 190.0781,462.7969 189.5,462.7969 C187.7656,462.7969 186.5156,464.1094 186.5156,465.8906 L186.5156,466.9844 C186.5156,468.6875 187.8125,469.7813 189.8594,469.7813 C190.625,469.7813 191.3125,469.6563 191.7344,469.3906 C191.9219,469.2969 191.9219,469.2969 192.375,468.8125 C192.5625,468.625 192.7656,468.5469 192.9844,468.5469 C193.4531,468.5469 193.8438,468.9375 193.8438,469.3906 C193.8438,469.7813 193.5156,470.2344 192.9375,470.6406 C192.1875,471.1875 191.0313,471.4844 189.8125,471.4844 C186.9219,471.4844 184.8125,469.5938 184.8125,467.0156 L184.8125,465.8906 C184.8125,463.1719 186.8125,461.0938 189.4375,461.0938 C190.3125,461.0938 190.9063,461.2344 191.8438,461.6719 Z "/><text fill="#000000" font-family="sans-serif" font-size="12" lengthAdjust="spacingAndGlyphs" textLength="96" x="203.5" y="470.1543">ServiceProvider</text><line style="stroke: #A80036; stroke-width: 1.5;" x1="175.5" x2="301.5" y1="482" y2="482"/><text fill="#000000" font-family="sans-serif" font-size="11" lengthAdjust="spacingAndGlyphs" textLength="43" x="180.5" y="496.2104">id: Uuid</text><text fill="#000000" font-family="sans-serif" font-size="11" lengthAdjust="spacingAndGlyphs" textLength="74" x="180.5" y="509.0151">name: String</text><text fill="#000000" font-family="sans-serif" font-size="11" lengthAdjust="spacingAndGlyphs" textLength="78" x="180.5" y="521.8198">ownerId: Uuid</text><text fill="#000000" font-family="sans-serif" font-size="11" lengthAdjust="spacingAndGlyphs" textLength="99" x="180.5" y="534.6245">location: Location</text><line style="stroke: #A80036; stroke-width: 1.5;" x1="175.5" x2="301.5" y1="541.2188" y2="541.2188"/><!--MD5=[dbb8b4f13c7b21394f9d757e58732f45]
class Service--><rect fill="#FEFECE" filter="url(#f1s1lrck6z6fdn)" height="163.2422" id="Service" style="stroke: #A80036; stroke-width: 1.5;" width="181" x="65" y="210"/><ellipse cx="128.75" cy="226" fill="#ADD1B2" rx="11" ry="11" style="stroke: #A80036; stroke-width: 1.0;"/><path d="M131.0938,221.6719 L131.2656,221.75 C131.4844,221.4375 131.6875,221.3438 131.9844,221.3438 C132.2813,221.3438 132.5625,221.4844 132.7188,221.75 C132.8125,221.9063 132.8281,222.0313 132.8281,222.4688 L132.8281,223.8906 C132.8281,224.3125 132.7969,224.5 132.6875,224.6563 C132.5156,224.875 132.25,225.0156 131.9844,225.0156 C131.7656,225.0156 131.5313,224.9063 131.3906,224.7656 C131.25,224.6406 131.2188,224.5156 131.1563,224.1094 C131.0625,223.7031 130.8906,223.4844 130.4063,223.2031 C129.9375,222.9531 129.3281,222.7969 128.75,222.7969 C127.0156,222.7969 125.7656,224.1094 125.7656,225.8906 L125.7656,226.9844 C125.7656,228.6875 127.0625,229.7813 129.1094,229.7813 C129.875,229.7813 130.5625,229.6563 130.9844,229.3906 C131.1719,229.2969 131.1719,229.2969 131.625,228.8125 C131.8125,228.625 132.0156,228.5469 132.2344,228.5469 C132.7031,228.5469 133.0938,228.9375 133.0938,229.3906 C133.0938,229.7813 132.7656,230.2344 132.1875,230.6406 C131.4375,231.1875 130.2813,231.4844 129.0625,231.4844 C126.1719,231.4844 124.0625,229.5938 124.0625,227.0156 L124.0625,225.8906 C124.0625,223.1719 126.0625,221.0938 128.6875,221.0938 C129.5625,221.0938 130.1563,221.2344 131.0938,221.6719 Z "/><text fill="#000000" font-family="sans-serif" font-size="12" lengthAdjust="spacingAndGlyphs" textLength="45" x="149.25" y="230.1543">Service</text><line style="stroke: #A80036; stroke-width: 1.5;" x1="66" x2="245" y1="242" y2="242"/><text fill="#000000" font-family="sans-serif" font-size="11" lengthAdjust="spacingAndGlyphs" textLength="43" x="71" y="256.2104">id: Uuid</text><text fill="#000000" font-family="sans-serif" font-size="11" lengthAdjust="spacingAndGlyphs" textLength="74" x="71" y="269.0151">name: String</text><text fill="#000000" font-family="sans-serif" font-size="11" lengthAdjust="spacingAndGlyphs" textLength="105" x="71" y="281.8198">description: String</text><text fill="#000000" font-family="sans-serif" font-size="11" lengthAdjust="spacingAndGlyphs" textLength="169" x="71" y="294.6245">categories: ServiceCategory[]</text><text fill="#000000" font-family="sans-serif" font-size="11" lengthAdjust="spacingAndGlyphs" textLength="144" x="71" y="307.4292">provider: ServiceProvider</text><text fill="#000000" font-family="sans-serif" font-size="11" lengthAdjust="spacingAndGlyphs" textLength="63" x="71" y="320.2339">picture: Url</text><text fill="#000000" font-family="sans-serif" font-size="11" lengthAdjust="spacingAndGlyphs" textLength="99" x="71" y="333.0386">location: Location</text><text fill="#000000" font-family="sans-serif" font-size="11" lengthAdjust="spacingAndGlyphs" textLength="116" x="71" y="345.8433">createdAt: DateTime</text><text fill="#000000" font-family="sans-serif" font-size="11" lengthAdjust="spacingAndGlyphs" textLength="119" x="71" y="358.6479">updatedAt: DateTime</text><line style="stroke: #A80036; stroke-width: 1.5;" x1="66" x2="245" y1="365.2422" y2="365.2422"/><!--MD5=[c25ea81cbf43478f44638108820ac108]
class ServiceSlot--><rect fill="#FEFECE" filter="url(#f1s1lrck6z6fdn)" height="124.8281" id="ServiceSlot" style="stroke: #A80036; stroke-width: 1.5;" width="131" x="90" y="8"/><ellipse cx="118.5" cy="24" fill="#ADD1B2" rx="11" ry="11" style="stroke: #A80036; stroke-width: 1.0;"/><path d="M120.8438,19.6719 L121.0156,19.75 C121.2344,19.4375 121.4375,19.3438 121.7344,19.3438 C122.0313,19.3438 122.3125,19.4844 122.4688,19.75 C122.5625,19.9063 122.5781,20.0313 122.5781,20.4688 L122.5781,21.8906 C122.5781,22.3125 122.5469,22.5 122.4375,22.6563 C122.2656,22.875 122,23.0156 121.7344,23.0156 C121.5156,23.0156 121.2813,22.9063 121.1406,22.7656 C121,22.6406 120.9688,22.5156 120.9063,22.1094 C120.8125,21.7031 120.6406,21.4844 120.1563,21.2031 C119.6875,20.9531 119.0781,20.7969 118.5,20.7969 C116.7656,20.7969 115.5156,22.1094 115.5156,23.8906 L115.5156,24.9844 C115.5156,26.6875 116.8125,27.7813 118.8594,27.7813 C119.625,27.7813 120.3125,27.6563 120.7344,27.3906 C120.9219,27.2969 120.9219,27.2969 121.375,26.8125 C121.5625,26.625 121.7656,26.5469 121.9844,26.5469 C122.4531,26.5469 122.8438,26.9375 122.8438,27.3906 C122.8438,27.7813 122.5156,28.2344 121.9375,28.6406 C121.1875,29.1875 120.0313,29.4844 118.8125,29.4844 C115.9219,29.4844 113.8125,27.5938 113.8125,25.0156 L113.8125,23.8906 C113.8125,21.1719 115.8125,19.0938 118.4375,19.0938 C119.3125,19.0938 119.9063,19.2344 120.8438,19.6719 Z "/><text fill="#000000" font-family="sans-serif" font-size="12" lengthAdjust="spacingAndGlyphs" textLength="69" x="135.5" y="28.1543">ServiceSlot</text><line style="stroke: #A80036; stroke-width: 1.5;" x1="91" x2="220" y1="40" y2="40"/><text fill="#000000" font-family="sans-serif" font-size="11" lengthAdjust="spacingAndGlyphs" textLength="43" x="96" y="54.2104">id: Uuid</text><text fill="#000000" font-family="sans-serif" font-size="11" lengthAdjust="spacingAndGlyphs" textLength="69" x="96" y="67.0151">duration: Int</text><text fill="#000000" font-family="sans-serif" font-size="11" lengthAdjust="spacingAndGlyphs" textLength="91" x="96" y="79.8198">service: Service</text><text fill="#000000" font-family="sans-serif" font-size="11" lengthAdjust="spacingAndGlyphs" textLength="117" x="96" y="92.6245">startingAt: DateTime</text><text fill="#000000" font-family="sans-serif" font-size="11" lengthAdjust="spacingAndGlyphs" textLength="116" x="96" y="105.4292">createdAt: DateTime</text><text fill="#000000" font-family="sans-serif" font-size="11" lengthAdjust="spacingAndGlyphs" textLength="119" x="96" y="118.2339">updatedAt: DateTime</text><line style="stroke: #A80036; stroke-width: 1.5;" x1="91" x2="220" y1="124.8281" y2="124.8281"/><!--MD5=[ea7aba1774eb77317e3b2bad13197ba7]
link Service to ServiceCategory--><path d="M118.5679,384.1603 C118.5679,384.1603 91.5238,451.2834 91.5238,451.2834 " fill="none" id="Service-ServiceCategory" style="stroke: #A80036; stroke-width: 1.0;"/><polygon fill="#A80036" points="87.0395,462.4141,92.9918,458.3435,91.5238,451.2834,85.5714,455.354,87.0395,462.4141" style="stroke: #A80036; stroke-width: 1.0;"/><polygon fill="#FFFFFF" points="123.053,373.03,117.1003,377.1001,118.5679,384.1603,124.5206,380.0902,123.053,373.03" style="stroke: #A80036; stroke-width: 1.0;"/><text fill="#000000" font-family="sans-serif" font-size="13" lengthAdjust="spacingAndGlyphs" textLength="68" x="110.5" y="416.0669">included in</text><!--MD5=[35d56abbbc9476fb605032e1244fb719]
reverse link Service to ServiceProvider--><path d="M195.521,391.829 C203.657,412.021 211.868,432.402 218.903,449.8613 " fill="none" id="Service&lt;-ServiceProvider" style="stroke: #A80036; stroke-width: 1.0;"/><polygon fill="none" points="188.928,394.197,187.947,373.03,201.914,388.965,188.928,394.197" style="stroke: #A80036; stroke-width: 1.0;"/><text fill="#000000" font-family="sans-serif" font-size="13" lengthAdjust="spacingAndGlyphs" textLength="74" x="205.5" y="416.0669">provided by</text><!--MD5=[950a9654898b858e3e90473e1ed66263]
reverse link ServiceSlot to Service--><path d="M155.5,153.318 C155.5,171.767 155.5,191.339 155.5,209.745 " fill="none" id="ServiceSlot&lt;-Service" style="stroke: #A80036; stroke-width: 1.0;"/><polygon fill="none" points="148.5,153.087,155.5,133.087,162.5,153.086,148.5,153.087" style="stroke: #A80036; stroke-width: 1.0;"/><text fill="#000000" font-family="sans-serif" font-size="13" lengthAdjust="spacingAndGlyphs" textLength="66" x="156.5" y="176.0669">defined by</text><!--MD5=[6b4f5b5cab7798b17c8be87a8c648dd5]
@startuml
class ServiceCategory {
  id: Uuid
  name: String
}

class ServiceProvider {
  id: Uuid
  name: String
  ownerId: Uuid
  location: Location
}

class Service {
  id: Uuid
  name: String
  description: String
  categories: ServiceCategory[]
  provider: ServiceProvider
  picture: Url
  location: Location
  createdAt: DateTime
  updatedAt: DateTime
}
 
Service o- -* ServiceCategory : included in
Service <|- - ServiceProvider : provided by

class ServiceSlot {
  id: Uuid
  duration: Int
  service: Service
  startingAt: DateTime
  createdAt: DateTime
  updatedAt: DateTime
}

ServiceSlot <|- - Service : defined by
@enduml

PlantUML version 1.2019.13(Tue Dec 10 17:18:29 UTC 2019)
(GPL source distribution)
Java Runtime: Java(TM) SE Runtime Environment
JVM: Java HotSpot(TM) 64-Bit Server VM
Java Version: 1.7.0_25-b15
Operating System: Linux
Default Encoding: UTF-8
Language: en
Country: US
--></g></svg>