<?xml version="1.0" encoding="UTF-8" standalone="no"?><svg xmlns="http://www.w3.org/2000/svg" xmlns:xlink="http://www.w3.org/1999/xlink" contentScriptType="application/ecmascript" contentStyleType="text/css" height="92px" preserveAspectRatio="none" style="width:333px;height:92px;" version="1.1" viewBox="0 0 333 92" width="333px" zoomAndPan="magnify"><defs><filter height="300%" id="f1tyz06co5r65b" width="300%" x="-1" y="-1"><feGaussianBlur result="blurOut" stdDeviation="2.0"/><feColorMatrix in="blurOut" result="blurOut2" type="matrix" values="0 0 0 0 0 0 0 0 0 0 0 0 0 0 0 0 0 0 .4 0"/><feOffset dx="4.0" dy="4.0" in="blurOut2" result="blurOut3"/><feBlend in="SourceGraphic" in2="blurOut3" mode="normal"/></filter></defs><g><!--MD5=[764fca796ce7f635542948d8fc39db5e]
class Payment--><rect fill="#FEFECE" filter="url(#f1tyz06co5r65b)" height="73.6094" id="Payment" style="stroke: #A80036; stroke-width: 1.5;" width="137" x="6" y="8"/><ellipse cx="43.95" cy="24" fill="#ADD1B2" rx="11" ry="11" style="stroke: #A80036; stroke-width: 1.0;"/><path d="M46.2938,19.6719 L46.4656,19.75 C46.6844,19.4375 46.8875,19.3438 47.1844,19.3438 C47.4813,19.3438 47.7625,19.4844 47.9188,19.75 C48.0125,19.9063 48.0281,20.0313 48.0281,20.4688 L48.0281,21.8906 C48.0281,22.3125 47.9969,22.5 47.8875,22.6563 C47.7156,22.875 47.45,23.0156 47.1844,23.0156 C46.9656,23.0156 46.7313,22.9063 46.5906,22.7656 C46.45,22.6406 46.4188,22.5156 46.3563,22.1094 C46.2625,21.7031 46.0906,21.4844 45.6063,21.2031 C45.1375,20.9531 44.5281,20.7969 43.95,20.7969 C42.2156,20.7969 40.9656,22.1094 40.9656,23.8906 L40.9656,24.9844 C40.9656,26.6875 42.2625,27.7813 44.3094,27.7813 C45.075,27.7813 45.7625,27.6563 46.1844,27.3906 C46.3719,27.2969 46.3719,27.2969 46.825,26.8125 C47.0125,26.625 47.2156,26.5469 47.4344,26.5469 C47.9031,26.5469 48.2938,26.9375 48.2938,27.3906 C48.2938,27.7813 47.9656,28.2344 47.3875,28.6406 C46.6375,29.1875 45.4813,29.4844 44.2625,29.4844 C41.3719,29.4844 39.2625,27.5938 39.2625,25.0156 L39.2625,23.8906 C39.2625,21.1719 41.2625,19.0938 43.8875,19.0938 C44.7625,19.0938 45.3563,19.2344 46.2938,19.6719 Z "/><text fill="#000000" font-family="sans-serif" font-size="12" lengthAdjust="spacingAndGlyphs" textLength="54" x="63.05" y="28.1543">Payment</text><line style="stroke: #A80036; stroke-width: 1.5;" x1="7" x2="142" y1="40" y2="40"/><text fill="#000000" font-family="sans-serif" font-size="11" lengthAdjust="spacingAndGlyphs" textLength="43" x="12" y="54.2104">id: Uuid</text><text fill="#000000" font-family="sans-serif" font-size="11" lengthAdjust="spacingAndGlyphs" textLength="125" x="12" y="67.0151">stripePaymentId: Uuid</text><line style="stroke: #A80036; stroke-width: 1.5;" x1="7" x2="142" y1="73.6094" y2="73.6094"/><!--MD5=[2ce0c9fb7f55b1e256ab28a8ea6b25ec]
class Customer--><rect fill="#FEFECE" filter="url(#f1tyz06co5r65b)" height="73.6094" id="Customer" style="stroke: #A80036; stroke-width: 1.5;" width="144" x="178.5" y="8"/><ellipse cx="216.9" cy="24" fill="#ADD1B2" rx="11" ry="11" style="stroke: #A80036; stroke-width: 1.0;"/><path d="M219.2438,19.6719 L219.4156,19.75 C219.6344,19.4375 219.8375,19.3438 220.1344,19.3438 C220.4313,19.3438 220.7125,19.4844 220.8688,19.75 C220.9625,19.9063 220.9781,20.0313 220.9781,20.4688 L220.9781,21.8906 C220.9781,22.3125 220.9469,22.5 220.8375,22.6563 C220.6656,22.875 220.4,23.0156 220.1344,23.0156 C219.9156,23.0156 219.6813,22.9063 219.5406,22.7656 C219.4,22.6406 219.3688,22.5156 219.3063,22.1094 C219.2125,21.7031 219.0406,21.4844 218.5563,21.2031 C218.0875,20.9531 217.4781,20.7969 216.9,20.7969 C215.1656,20.7969 213.9156,22.1094 213.9156,23.8906 L213.9156,24.9844 C213.9156,26.6875 215.2125,27.7813 217.2594,27.7813 C218.025,27.7813 218.7125,27.6563 219.1344,27.3906 C219.3219,27.2969 219.3219,27.2969 219.775,26.8125 C219.9625,26.625 220.1656,26.5469 220.3844,26.5469 C220.8531,26.5469 221.2438,26.9375 221.2438,27.3906 C221.2438,27.7813 220.9156,28.2344 220.3375,28.6406 C219.5875,29.1875 218.4313,29.4844 217.2125,29.4844 C214.3219,29.4844 212.2125,27.5938 212.2125,25.0156 L212.2125,23.8906 C212.2125,21.1719 214.2125,19.0938 216.8375,19.0938 C217.7125,19.0938 218.3063,19.2344 219.2438,19.6719 Z "/><text fill="#000000" font-family="sans-serif" font-size="12" lengthAdjust="spacingAndGlyphs" textLength="60" x="236.1" y="28.1543">Customer</text><line style="stroke: #A80036; stroke-width: 1.5;" x1="179.5" x2="321.5" y1="40" y2="40"/><text fill="#000000" font-family="sans-serif" font-size="11" lengthAdjust="spacingAndGlyphs" textLength="43" x="184.5" y="54.2104">id: Uuid</text><text fill="#000000" font-family="sans-serif" font-size="11" lengthAdjust="spacingAndGlyphs" textLength="132" x="184.5" y="67.0151">stripeCustomerId: Uuid</text><line style="stroke: #A80036; stroke-width: 1.5;" x1="179.5" x2="321.5" y1="73.6094" y2="73.6094"/><!--MD5=[94300f2cbd8fd62d41dfcddad5438e7d]
@startuml
class Payment {
  id: Uuid
  stripePaymentId: Uuid
}

class Customer {
  id: Uuid
  stripeCustomerId: Uuid
}
@enduml

PlantUML version 1.2019.13(Tue Dec 10 17:18:29 UTC 2019)
(GPL source distribution)
Java Runtime: Java(TM) SE Runtime Environment
JVM: Java HotSpot(TM) 64-Bit Server VM
Java Version: 1.7.0_25-b15
Operating System: Linux
Default Encoding: UTF-8
Language: en
Country: US
--></g></svg>