<?xml version="1.0" encoding="UTF-8" standalone="no"?><svg xmlns="http://www.w3.org/2000/svg" xmlns:xlink="http://www.w3.org/1999/xlink" contentScriptType="application/ecmascript" contentStyleType="text/css" height="328px" preserveAspectRatio="none" style="width:186px;height:328px;" version="1.1" viewBox="0 0 186 328" width="186px" zoomAndPan="magnify"><defs><filter height="300%" id="f1jr3rt2zwxij7" width="300%" x="-1" y="-1"><feGaussianBlur result="blurOut" stdDeviation="2.0"/><feColorMatrix in="blurOut" result="blurOut2" type="matrix" values="0 0 0 0 0 0 0 0 0 0 0 0 0 0 0 0 0 0 .4 0"/><feOffset dx="4.0" dy="4.0" in="blurOut2" result="blurOut3"/><feBlend in="SourceGraphic" in2="blurOut3" mode="normal"/></filter></defs><g><!--MD5=[a28d90c503c104e63a4115c8fbeebdbd]
class ServiceBooking--><rect fill="#FEFECE" filter="url(#f1jr3rt2zwxij7)" height="124.8281" id="ServiceBooking" style="stroke: #A80036; stroke-width: 1.5;" width="142" x="19.5" y="8"/><ellipse cx="41.25" cy="24" fill="#ADD1B2" rx="11" ry="11" style="stroke: #A80036; stroke-width: 1.0;"/><path d="M43.5938,19.6719 L43.7656,19.75 C43.9844,19.4375 44.1875,19.3438 44.4844,19.3438 C44.7813,19.3438 45.0625,19.4844 45.2188,19.75 C45.3125,19.9063 45.3281,20.0313 45.3281,20.4688 L45.3281,21.8906 C45.3281,22.3125 45.2969,22.5 45.1875,22.6563 C45.0156,22.875 44.75,23.0156 44.4844,23.0156 C44.2656,23.0156 44.0313,22.9063 43.8906,22.7656 C43.75,22.6406 43.7188,22.5156 43.6563,22.1094 C43.5625,21.7031 43.3906,21.4844 42.9063,21.2031 C42.4375,20.9531 41.8281,20.7969 41.25,20.7969 C39.5156,20.7969 38.2656,22.1094 38.2656,23.8906 L38.2656,24.9844 C38.2656,26.6875 39.5625,27.7813 41.6094,27.7813 C42.375,27.7813 43.0625,27.6563 43.4844,27.3906 C43.6719,27.2969 43.6719,27.2969 44.125,26.8125 C44.3125,26.625 44.5156,26.5469 44.7344,26.5469 C45.2031,26.5469 45.5938,26.9375 45.5938,27.3906 C45.5938,27.7813 45.2656,28.2344 44.6875,28.6406 C43.9375,29.1875 42.7813,29.4844 41.5625,29.4844 C38.6719,29.4844 36.5625,27.5938 36.5625,25.0156 L36.5625,23.8906 C36.5625,21.1719 38.5625,19.0938 41.1875,19.0938 C42.0625,19.0938 42.6563,19.2344 43.5938,19.6719 Z "/><text fill="#000000" font-family="sans-serif" font-size="12" lengthAdjust="spacingAndGlyphs" textLength="95" x="56.75" y="28.1543">ServiceBooking</text><line style="stroke: #A80036; stroke-width: 1.5;" x1="20.5" x2="160.5" y1="40" y2="40"/><text fill="#000000" font-family="sans-serif" font-size="11" lengthAdjust="spacingAndGlyphs" textLength="43" x="25.5" y="54.2104">id: Uuid</text><text fill="#000000" font-family="sans-serif" font-size="11" lengthAdjust="spacingAndGlyphs" textLength="97" x="25.5" y="67.0151">customerId: Uuid</text><text fill="#000000" font-family="sans-serif" font-size="11" lengthAdjust="spacingAndGlyphs" textLength="106" x="25.5" y="79.8198">serviceSlotId: Uuid</text><text fill="#000000" font-family="sans-serif" font-size="11" lengthAdjust="spacingAndGlyphs" textLength="116" x="25.5" y="92.6245">createdAt: DateTime</text><text fill="#000000" font-family="sans-serif" font-size="11" lengthAdjust="spacingAndGlyphs" textLength="119" x="25.5" y="105.4292">updatedAt: DateTime</text><text fill="#000000" font-family="sans-serif" font-size="11" lengthAdjust="spacingAndGlyphs" textLength="130" x="25.5" y="118.2339">confirmedAt: DateTime</text><line style="stroke: #A80036; stroke-width: 1.5;" x1="20.5" x2="160.5" y1="124.8281" y2="124.8281"/><!--MD5=[5cb228ae24c49dcd6aea6b9c51a538dd]
class ServiceBookingReview--><rect fill="#FEFECE" filter="url(#f1jr3rt2zwxij7)" height="124.8281" id="ServiceBookingReview" style="stroke: #A80036; stroke-width: 1.5;" width="169" x="6" y="193"/><ellipse cx="21" cy="209" fill="#ADD1B2" rx="11" ry="11" style="stroke: #A80036; stroke-width: 1.0;"/><path d="M23.3438,204.6719 L23.5156,204.75 C23.7344,204.4375 23.9375,204.3438 24.2344,204.3438 C24.5313,204.3438 24.8125,204.4844 24.9688,204.75 C25.0625,204.9063 25.0781,205.0313 25.0781,205.4688 L25.0781,206.8906 C25.0781,207.3125 25.0469,207.5 24.9375,207.6563 C24.7656,207.875 24.5,208.0156 24.2344,208.0156 C24.0156,208.0156 23.7813,207.9063 23.6406,207.7656 C23.5,207.6406 23.4688,207.5156 23.4063,207.1094 C23.3125,206.7031 23.1406,206.4844 22.6563,206.2031 C22.1875,205.9531 21.5781,205.7969 21,205.7969 C19.2656,205.7969 18.0156,207.1094 18.0156,208.8906 L18.0156,209.9844 C18.0156,211.6875 19.3125,212.7813 21.3594,212.7813 C22.125,212.7813 22.8125,212.6563 23.2344,212.3906 C23.4219,212.2969 23.4219,212.2969 23.875,211.8125 C24.0625,211.625 24.2656,211.5469 24.4844,211.5469 C24.9531,211.5469 25.3438,211.9375 25.3438,212.3906 C25.3438,212.7813 25.0156,213.2344 24.4375,213.6406 C23.6875,214.1875 22.5313,214.4844 21.3125,214.4844 C18.4219,214.4844 16.3125,212.5938 16.3125,210.0156 L16.3125,208.8906 C16.3125,206.1719 18.3125,204.0938 20.9375,204.0938 C21.8125,204.0938 22.4063,204.2344 23.3438,204.6719 Z "/><text fill="#000000" font-family="sans-serif" font-size="12" lengthAdjust="spacingAndGlyphs" textLength="137" x="35" y="213.1543">ServiceBookingReview</text><line style="stroke: #A80036; stroke-width: 1.5;" x1="7" x2="174" y1="225" y2="225"/><text fill="#000000" font-family="sans-serif" font-size="11" lengthAdjust="spacingAndGlyphs" textLength="43" x="12" y="239.2104">id: Uuid</text><text fill="#000000" font-family="sans-serif" font-size="11" lengthAdjust="spacingAndGlyphs" textLength="63" x="12" y="252.0151">text: String</text><text fill="#000000" font-family="sans-serif" font-size="11" lengthAdjust="spacingAndGlyphs" textLength="45" x="12" y="264.8198">rate: Int</text><text fill="#000000" font-family="sans-serif" font-size="11" lengthAdjust="spacingAndGlyphs" textLength="139" x="12" y="277.6245">booking: ServiceBooking</text><text fill="#000000" font-family="sans-serif" font-size="11" lengthAdjust="spacingAndGlyphs" textLength="116" x="12" y="290.4292">createdAt: DateTime</text><text fill="#000000" font-family="sans-serif" font-size="11" lengthAdjust="spacingAndGlyphs" textLength="119" x="12" y="303.2339">updatedAt: DateTime</text><line style="stroke: #A80036; stroke-width: 1.5;" x1="7" x2="174" y1="309.8281" y2="309.8281"/><!--MD5=[5c1e71a87358a8b6db4ab82953088109]
reverse link ServiceBooking to ServiceBookingReview--><path d="M90.5,153.533 C90.5,166.713 90.5,180.157 90.5,192.756 " fill="none" id="ServiceBooking&lt;-ServiceBookingReview" style="stroke: #A80036; stroke-width: 1.0;"/><polygon fill="none" points="83.5001,153.2,90.5,133.2,97.5001,153.2,83.5001,153.2" style="stroke: #A80036; stroke-width: 1.0;"/><!--MD5=[3dffefdb61e81d17f9cb90cfc7b8c60d]
@startuml
class ServiceBooking {
  id: Uuid
  customerId: Uuid
  serviceSlotId: Uuid
  createdAt: DateTime
  updatedAt: DateTime
  confirmedAt: DateTime
}

class ServiceBookingReview {
  id: Uuid
  text: String
  rate: Int
  booking: ServiceBooking
  createdAt: DateTime
  updatedAt: DateTime
}

ServiceBooking <|- - ServiceBookingReview
@enduml

PlantUML version 1.2019.13(Tue Dec 10 17:18:29 UTC 2019)
(GPL source distribution)
Java Runtime: Java(TM) SE Runtime Environment
JVM: Java HotSpot(TM) 64-Bit Server VM
Java Version: 1.7.0_25-b15
Operating System: Linux
Default Encoding: UTF-8
Language: en
Country: US
--></g></svg>