<?xml version="1.0" encoding="UTF-8" standalone="no"?><svg xmlns="http://www.w3.org/2000/svg" xmlns:xlink="http://www.w3.org/1999/xlink" contentScriptType="application/ecmascript" contentStyleType="text/css" height="91px" preserveAspectRatio="none" style="width:125px;height:91px;" version="1.1" viewBox="0 0 125 91" width="125px" zoomAndPan="magnify"><defs><filter height="300%" id="f90cvgyhxchhw" width="300%" x="-1" y="-1"><feGaussianBlur result="blurOut" stdDeviation="2.0"/><feColorMatrix in="blurOut" result="blurOut2" type="matrix" values="0 0 0 0 0 0 0 0 0 0 0 0 0 0 0 0 0 0 .4 0"/><feOffset dx="4.0" dy="4.0" in="blurOut2" result="blurOut3"/><feBlend in="SourceGraphic" in2="blurOut3" mode="normal"/></filter></defs><g><!--MD5=[b8cfd8c4119a3b0a7a46bfc5fc780f85]
class Error--><rect fill="#FEFECE" filter="url(#f90cvgyhxchhw)" height="73.6094" id="Error" style="stroke: #A80036; stroke-width: 1.5;" width="107" x="7" y="7"/><ellipse cx="41.8" cy="23" fill="#ADD1B2" rx="11" ry="11" style="stroke: #A80036; stroke-width: 1.0;"/><path d="M44.1438,18.6719 L44.3156,18.75 C44.5344,18.4375 44.7375,18.3438 45.0344,18.3438 C45.3313,18.3438 45.6125,18.4844 45.7688,18.75 C45.8625,18.9063 45.8781,19.0313 45.8781,19.4688 L45.8781,20.8906 C45.8781,21.3125 45.8469,21.5 45.7375,21.6563 C45.5656,21.875 45.3,22.0156 45.0344,22.0156 C44.8156,22.0156 44.5813,21.9063 44.4406,21.7656 C44.3,21.6406 44.2688,21.5156 44.2063,21.1094 C44.1125,20.7031 43.9406,20.4844 43.4563,20.2031 C42.9875,19.9531 42.3781,19.7969 41.8,19.7969 C40.0656,19.7969 38.8156,21.1094 38.8156,22.8906 L38.8156,23.9844 C38.8156,25.6875 40.1125,26.7813 42.1594,26.7813 C42.925,26.7813 43.6125,26.6563 44.0344,26.3906 C44.2219,26.2969 44.2219,26.2969 44.675,25.8125 C44.8625,25.625 45.0656,25.5469 45.2844,25.5469 C45.7531,25.5469 46.1438,25.9375 46.1438,26.3906 C46.1438,26.7813 45.8156,27.2344 45.2375,27.6406 C44.4875,28.1875 43.3313,28.4844 42.1125,28.4844 C39.2219,28.4844 37.1125,26.5938 37.1125,24.0156 L37.1125,22.8906 C37.1125,20.1719 39.1125,18.0938 41.7375,18.0938 C42.6125,18.0938 43.2063,18.2344 44.1438,18.6719 Z "/><text fill="#000000" font-family="sans-serif" font-size="12" lengthAdjust="spacingAndGlyphs" textLength="31" x="60.2" y="27.1543">Error</text><line style="stroke: #A80036; stroke-width: 1.5;" x1="8" x2="113" y1="39" y2="39"/><text fill="#000000" font-family="sans-serif" font-size="11" lengthAdjust="spacingAndGlyphs" textLength="49" x="13" y="53.2104">code: Int</text><text fill="#000000" font-family="sans-serif" font-size="11" lengthAdjust="spacingAndGlyphs" textLength="95" x="13" y="66.0151">message: String</text><line style="stroke: #A80036; stroke-width: 1.5;" x1="8" x2="113" y1="72.6094" y2="72.6094"/><!--MD5=[cc2d67a1c9bf892960cbd68cf13bc1d8]
@startuml
class Error {
  code: Int
  message: String
}
@enduml

PlantUML version 1.2019.13(Tue Dec 10 17:18:29 UTC 2019)
(GPL source distribution)
Java Runtime: Java(TM) SE Runtime Environment
JVM: Java HotSpot(TM) 64-Bit Server VM
Java Version: 1.7.0_25-b15
Operating System: Linux
Default Encoding: UTF-8
Language: en
Country: US
--></g></svg>