<?xml version="1.0" encoding="UTF-8" standalone="no"?><svg xmlns="http://www.w3.org/2000/svg" xmlns:xlink="http://www.w3.org/1999/xlink" contentScriptType="application/ecmascript" contentStyleType="text/css" height="179px" preserveAspectRatio="none" style="width:445px;height:179px;" version="1.1" viewBox="0 0 445 179" width="445px" zoomAndPan="magnify"><defs><filter height="300%" id="f19l801i8713l3" width="300%" x="-1" y="-1"><feGaussianBlur result="blurOut" stdDeviation="2.0"/><feColorMatrix in="blurOut" result="blurOut2" type="matrix" values="0 0 0 0 0 0 0 0 0 0 0 0 0 0 0 0 0 0 .4 0"/><feOffset dx="4.0" dy="4.0" in="blurOut2" result="blurOut3"/><feBlend in="SourceGraphic" in2="blurOut3" mode="normal"/></filter></defs><g><rect fill="#FEFECE" filter="url(#f19l801i8713l3)" height="36.2969" rx="12.5" ry="12.5" style="stroke: #A80036; stroke-width: 1.5;" width="88" x="10" y="76.2969"/><text fill="#000000" font-family="sans-serif" font-size="14" lengthAdjust="spacingAndGlyphs" textLength="68" x="20" y="99.292">Marketing</text><rect fill="#FEFECE" filter="url(#f19l801i8713l3)" height="36.2969" rx="12.5" ry="12.5" style="stroke: #A80036; stroke-width: 1.5;" width="150" x="148" y="20"/><text fill="#000000" font-family="sans-serif" font-size="14" lengthAdjust="spacingAndGlyphs" textLength="130" x="158" y="42.9951">InBound Marketing</text><rect fill="#FEFECE" filter="url(#f19l801i8713l3)" height="36.2969" rx="12.5" ry="12.5" style="stroke: #A80036; stroke-width: 1.5;" width="79" x="348" y="20"/><text fill="#000000" font-family="sans-serif" font-size="14" lengthAdjust="spacingAndGlyphs" textLength="59" x="358" y="42.9951">Hubspot</text><path d="M298,38.1484 L308,38.1484 C323,38.1484 323,38.1484 338,38.1484 L348,38.1484 " fill="none" style="stroke: #A80036; stroke-width: 1.0;"/><path d="M98,94.4453 L108,94.4453 C123,94.4453 123,38.1484 138,38.1484 L148,38.1484 " fill="none" style="stroke: #A80036; stroke-width: 1.0;"/><rect fill="#FEFECE" filter="url(#f19l801i8713l3)" height="36.2969" rx="12.5" ry="12.5" style="stroke: #A80036; stroke-width: 1.5;" width="109" x="148" y="104.4453"/><text fill="#000000" font-family="sans-serif" font-size="14" lengthAdjust="spacingAndGlyphs" textLength="85" x="158" y="127.4404">Social Media</text><rect fill="#FEFECE" filter="url(#f19l801i8713l3)" height="36.2969" rx="12.5" ry="12.5" style="stroke: #A80036; stroke-width: 1.5;" width="127" x="307" y="76.2969"/><text fill="#000000" font-family="sans-serif" font-size="14" lengthAdjust="spacingAndGlyphs" textLength="107" x="317" y="99.292">Facebook Page</text><path d="M257,122.5938 L267,122.5938 C282,122.5938 282,94.4453 297,94.4453 L307,94.4453 " fill="none" style="stroke: #A80036; stroke-width: 1.0;"/><rect fill="#FEFECE" filter="url(#f19l801i8713l3)" height="36.2969" rx="12.5" ry="12.5" style="stroke: #A80036; stroke-width: 1.5;" width="122" x="307" y="132.5938"/><text fill="#000000" font-family="sans-serif" font-size="14" lengthAdjust="spacingAndGlyphs" textLength="102" x="317" y="155.5889">Kodesmil Page</text><path d="M257,122.5938 L267,122.5938 C282,122.5938 282,150.7422 297,150.7422 L307,150.7422 " fill="none" style="stroke: #A80036; stroke-width: 1.0;"/><path d="M98,94.4453 L108,94.4453 C123,94.4453 123,122.5938 138,122.5938 L148,122.5938 " fill="none" style="stroke: #A80036; stroke-width: 1.0;"/><!--MD5=[d2c4231a35757ea4bc3cbe9c72871fa5]
@startmindmap Marketing

* Marketing
** InBound Marketing
*** Hubspot
** Social Media 
*** Facebook Page
*** Kodesmil Page

@endmindmap

PlantUML version 1.2019.13(Tue Dec 10 17:18:29 UTC 2019)
(GPL source distribution)
Java Runtime: Java(TM) SE Runtime Environment
JVM: Java HotSpot(TM) 64-Bit Server VM
Java Version: 1.7.0_25-b15
Operating System: Linux
Default Encoding: UTF-8
Language: en
Country: US
--></g></svg>