<?xml version="1.0" encoding="UTF-8" standalone="no"?><svg xmlns="http://www.w3.org/2000/svg" xmlns:xlink="http://www.w3.org/1999/xlink" contentScriptType="application/ecmascript" contentStyleType="text/css" height="517px" preserveAspectRatio="none" style="width:594px;height:517px;" version="1.1" viewBox="0 0 594 517" width="594px" zoomAndPan="magnify"><defs><filter height="300%" id="f1oxrxkt7hfxwj" width="300%" x="-1" y="-1"><feGaussianBlur result="blurOut" stdDeviation="2.0"/><feColorMatrix in="blurOut" result="blurOut2" type="matrix" values="0 0 0 0 0 0 0 0 0 0 0 0 0 0 0 0 0 0 .4 0"/><feOffset dx="4.0" dy="4.0" in="blurOut2" result="blurOut3"/><feBlend in="SourceGraphic" in2="blurOut3" mode="normal"/></filter></defs><g><rect fill="#FEFECE" filter="url(#f1oxrxkt7hfxwj)" height="36.2969" rx="12.5" ry="12.5" style="stroke: #A80036; stroke-width: 1.5;" width="101" x="10" y="245.1875"/><text fill="#000000" font-family="sans-serif" font-size="14" lengthAdjust="spacingAndGlyphs" textLength="81" x="20" y="268.1826">Technology</text><rect fill="#FEFECE" filter="url(#f1oxrxkt7hfxwj)" height="36.2969" rx="12.5" ry="12.5" style="stroke: #A80036; stroke-width: 1.5;" width="61" x="161" y="48.1484"/><text fill="#000000" font-family="sans-serif" font-size="14" lengthAdjust="spacingAndGlyphs" textLength="41" x="171" y="71.1436">Vision</text><rect fill="#FEFECE" filter="url(#f1oxrxkt7hfxwj)" height="36.2969" rx="12.5" ry="12.5" style="stroke: #A80036; stroke-width: 1.5;" width="193" x="272" y="20"/><text fill="#000000" font-family="sans-serif" font-size="14" lengthAdjust="spacingAndGlyphs" textLength="173" x="282" y="42.9951">Have fun with technology</text><path d="M222,66.2969 L232,66.2969 C247,66.2969 247,38.1484 262,38.1484 L272,38.1484 " fill="none" style="stroke: #A80036; stroke-width: 1.0;"/><rect fill="#FEFECE" filter="url(#f1oxrxkt7hfxwj)" height="36.2969" rx="12.5" ry="12.5" style="stroke: #A80036; stroke-width: 1.5;" width="168" x="272" y="76.2969"/><text fill="#000000" font-family="sans-serif" font-size="14" lengthAdjust="spacingAndGlyphs" textLength="148" x="282" y="99.292">Technology as hobby</text><path d="M222,66.2969 L232,66.2969 C247,66.2969 247,94.4453 262,94.4453 L272,94.4453 " fill="none" style="stroke: #A80036; stroke-width: 1.0;"/><path d="M111,263.3359 L121,263.3359 C136,263.3359 136,66.2969 151,66.2969 L161,66.2969 " fill="none" style="stroke: #A80036; stroke-width: 1.0;"/><rect fill="#FEFECE" filter="url(#f1oxrxkt7hfxwj)" height="36.2969" rx="12.5" ry="12.5" style="stroke: #A80036; stroke-width: 1.5;" width="80" x="161" y="301.4844"/><text fill="#000000" font-family="sans-serif" font-size="14" lengthAdjust="spacingAndGlyphs" textLength="60" x="171" y="324.4795">Software</text><rect fill="#FEFECE" filter="url(#f1oxrxkt7hfxwj)" height="36.2969" rx="12.5" ry="12.5" style="stroke: #A80036; stroke-width: 1.5;" width="81" x="291" y="188.8906"/><text fill="#000000" font-family="sans-serif" font-size="14" lengthAdjust="spacingAndGlyphs" textLength="61" x="301" y="211.8857">Backend</text><rect fill="#FEFECE" filter="url(#f1oxrxkt7hfxwj)" height="36.2969" rx="12.5" ry="12.5" style="stroke: #A80036; stroke-width: 1.5;" width="161" x="422" y="132.5938"/><text fill="#000000" font-family="sans-serif" font-size="14" lengthAdjust="spacingAndGlyphs" textLength="141" x="432" y="155.5889">Flask (at early stage)</text><path d="M372,207.0391 L382,207.0391 C397,207.0391 397,150.7422 412,150.7422 L422,150.7422 " fill="none" style="stroke: #A80036; stroke-width: 1.0;"/><rect fill="#FEFECE" filter="url(#f1oxrxkt7hfxwj)" height="36.2969" rx="12.5" ry="12.5" style="stroke: #A80036; stroke-width: 1.5;" width="110" x="422" y="188.8906"/><text fill="#000000" font-family="sans-serif" font-size="14" lengthAdjust="spacingAndGlyphs" textLength="90" x="432" y="211.8857">Go / GoMicro</text><path d="M372,207.0391 L382,207.0391 C397,207.0391 397,207.0391 412,207.0391 L422,207.0391 " fill="none" style="stroke: #A80036; stroke-width: 1.0;"/><rect fill="#FEFECE" filter="url(#f1oxrxkt7hfxwj)" height="36.2969" rx="12.5" ry="12.5" style="stroke: #A80036; stroke-width: 1.5;" width="58" x="422" y="245.1875"/><text fill="#000000" font-family="sans-serif" font-size="14" lengthAdjust="spacingAndGlyphs" textLength="38" x="432" y="268.1826">gRPC</text><path d="M372,207.0391 L382,207.0391 C397,207.0391 397,263.3359 412,263.3359 L422,263.3359 " fill="none" style="stroke: #A80036; stroke-width: 1.0;"/><path d="M241,319.6328 L251,319.6328 C266,319.6328 266,207.0391 281,207.0391 L291,207.0391 " fill="none" style="stroke: #A80036; stroke-width: 1.0;"/><rect fill="#FEFECE" filter="url(#f1oxrxkt7hfxwj)" height="36.2969" rx="12.5" ry="12.5" style="stroke: #A80036; stroke-width: 1.5;" width="83" x="291" y="357.7813"/><text fill="#000000" font-family="sans-serif" font-size="14" lengthAdjust="spacingAndGlyphs" textLength="63" x="301" y="380.7764">Frontend</text><rect fill="#FEFECE" filter="url(#f1oxrxkt7hfxwj)" height="36.2969" rx="12.5" ry="12.5" style="stroke: #A80036; stroke-width: 1.5;" width="47" x="424" y="301.4844"/><text fill="#000000" font-family="sans-serif" font-size="14" lengthAdjust="spacingAndGlyphs" textLength="27" x="434" y="324.4795">Vue</text><path d="M374,375.9297 L384,375.9297 C399,375.9297 399,319.6328 414,319.6328 L424,319.6328 " fill="none" style="stroke: #A80036; stroke-width: 1.0;"/><rect fill="#FEFECE" filter="url(#f1oxrxkt7hfxwj)" height="36.2969" rx="12.5" ry="12.5" style="stroke: #A80036; stroke-width: 1.5;" width="65" x="424" y="357.7813"/><text fill="#000000" font-family="sans-serif" font-size="14" lengthAdjust="spacingAndGlyphs" textLength="45" x="434" y="380.7764">BitDev</text><path d="M374,375.9297 L384,375.9297 C399,375.9297 399,375.9297 414,375.9297 L424,375.9297 " fill="none" style="stroke: #A80036; stroke-width: 1.0;"/><rect fill="#FEFECE" filter="url(#f1oxrxkt7hfxwj)" height="36.2969" rx="12.5" ry="12.5" style="stroke: #A80036; stroke-width: 1.5;" width="91" x="424" y="414.0781"/><text fill="#000000" font-family="sans-serif" font-size="14" lengthAdjust="spacingAndGlyphs" textLength="71" x="434" y="437.0732">Monorepo</text><path d="M374,375.9297 L384,375.9297 C399,375.9297 399,432.2266 414,432.2266 L424,432.2266 " fill="none" style="stroke: #A80036; stroke-width: 1.0;"/><path d="M241,319.6328 L251,319.6328 C266,319.6328 266,375.9297 281,375.9297 L291,375.9297 " fill="none" style="stroke: #A80036; stroke-width: 1.0;"/><rect fill="#FEFECE" filter="url(#f1oxrxkt7hfxwj)" height="36.2969" rx="12.5" ry="12.5" style="stroke: #A80036; stroke-width: 1.5;" width="65" x="291" y="470.375"/><text fill="#000000" font-family="sans-serif" font-size="14" lengthAdjust="spacingAndGlyphs" textLength="45" x="301" y="493.3701">Mobile</text><rect fill="#FEFECE" filter="url(#f1oxrxkt7hfxwj)" height="36.2969" rx="12.5" ry="12.5" style="stroke: #A80036; stroke-width: 1.5;" width="64" x="406" y="470.375"/><text fill="#000000" font-family="sans-serif" font-size="14" lengthAdjust="spacingAndGlyphs" textLength="44" x="416" y="493.3701">Flutter</text><path d="M356,488.5234 L366,488.5234 C381,488.5234 381,488.5234 396,488.5234 L406,488.5234 " fill="none" style="stroke: #A80036; stroke-width: 1.0;"/><path d="M241,319.6328 L251,319.6328 C266,319.6328 266,488.5234 281,488.5234 L291,488.5234 " fill="none" style="stroke: #A80036; stroke-width: 1.0;"/><path d="M111,263.3359 L121,263.3359 C136,263.3359 136,319.6328 151,319.6328 L161,319.6328 " fill="none" style="stroke: #A80036; stroke-width: 1.0;"/><!--MD5=[c06d0bd54ba646a1c630b2824362ffb1]
@startmindmap Technology

* Technology
** Vision
*** Have fun with technology
*** Technology as hobby
** Software
*** Backend
**** Flask (at early stage)
**** Go / GoMicro
**** gRPC
*** Frontend
**** Vue
**** BitDev
**** Monorepo
*** Mobile
**** Flutter

@endmindmap

PlantUML version 1.2019.13(Tue Dec 10 17:18:29 UTC 2019)
(GPL source distribution)
Java Runtime: Java(TM) SE Runtime Environment
JVM: Java HotSpot(TM) 64-Bit Server VM
Java Version: 1.7.0_25-b15
Operating System: Linux
Default Encoding: UTF-8
Language: en
Country: US
--></g></svg>